<svg width="36" height="30" viewBox="0 0 36 30" fill="none" xmlns="http://www.w3.org/2000/svg">
<path d="M0.7321 29.6949C0.727041 29.6234 0.723247 29.5832 0.723247 29.5443C0.723247 23.8268 0.723247 18.1105 0.723247 12.393C0.723247 8.60352 0.720718 4.81277 0.718188 1.02328C0.718188 0.924115 0.706807 0.824953 0.699219 0.72328C0.751069 0.666795 0.820625 0.693155 0.882592 0.693155C1.43904 0.693155 1.99548 0.699431 2.55192 0.699431C9.72245 0.701942 16.893 0.703197 24.0623 0.706962C25.3345 0.706962 26.608 0.722025 27.8802 0.72077C30.2894 0.717004 32.6998 0.706962 35.1089 0.699431C35.1722 0.699431 35.2354 0.699431 35.3151 0.699431C35.3201 0.775999 35.3277 0.832484 35.3277 0.888969C35.3302 3.69814 35.3328 6.50605 35.3353 9.31523C35.3353 9.93781 35.3391 10.5604 35.3416 11.1842C35.3479 13.6394 35.3631 16.0959 35.3606 18.5511C35.3581 21.0716 35.3391 23.592 35.3264 26.1113C35.3214 27.2096 35.3138 28.3079 35.3062 29.4062C35.3062 29.4928 35.3011 29.5794 35.2986 29.6811C35.2227 29.6811 35.1595 29.6836 35.0963 29.6811C34.8965 29.6698 34.6954 29.6459 34.4956 29.6459C33.4004 29.6434 32.3052 29.6485 31.21 29.6485C23.3414 29.6497 15.4715 29.651 7.60291 29.651C5.50107 29.651 3.39923 29.651 1.2974 29.6522C1.2329 29.6522 1.1684 29.666 1.1039 29.671C0.987558 29.6798 0.869946 29.6874 0.733364 29.6962L0.7321 29.6949Z" fill="#0C1837"/>
<path d="M34.7945 29.1841C34.73 29.1866 34.6832 29.1917 34.6377 29.1917C33.8915 29.1929 33.1454 29.1942 32.3992 29.1954C28.4801 29.2004 24.5597 29.2067 20.6406 29.2117C20.3927 29.2117 20.1436 29.1967 19.8957 29.1979C14.7271 29.203 9.55725 29.2105 4.38865 29.213C3.38832 29.213 2.38798 29.1967 1.38765 29.1866C1.34086 29.1866 1.29407 29.1829 1.23463 29.1804C1.22957 29.1314 1.21945 29.0875 1.21945 29.0435C1.22325 24.6478 1.22957 20.2533 1.23083 15.8575C1.23083 13.7952 1.22325 11.7329 1.21819 9.6693C1.21819 9.4898 1.20048 9.31031 1.19922 9.13081C1.19922 8.97893 1.21819 8.8258 1.21819 8.67391C1.21819 6.28775 1.21819 3.90284 1.21819 1.51668C1.21819 1.40622 1.21819 1.29702 1.21819 1.1853C2.8344 1.21166 4.43038 1.19158 6.02636 1.19534C7.62487 1.19785 9.22338 1.1966 10.8232 1.1966C12.4217 1.1966 14.0202 1.1966 15.62 1.1966C17.2134 1.1966 18.8056 1.19534 20.399 1.19409C21.9975 1.19409 23.5961 1.19409 25.1958 1.19409C26.7956 1.19409 28.3929 1.19409 29.9926 1.19409C31.5899 1.19409 33.1859 1.1966 34.8008 1.19785C34.8033 1.29702 34.8071 1.37735 34.8071 1.45768C34.8147 4.13129 34.8261 6.80364 34.8274 9.47725C34.8299 15.3303 34.8274 21.1821 34.8261 27.0352C34.8261 27.7105 34.8147 28.3858 34.8084 29.0611C34.8084 29.095 34.8021 29.1302 34.797 29.1816L34.7945 29.1841Z" fill="#FAFAFB"/>
<path d="M8.93253 18.9642C9.00714 18.9353 9.00082 18.86 9.02485 18.8023C9.13487 18.5374 9.24237 18.2713 9.35113 18.0065C9.35619 17.9939 9.37516 17.9851 9.41057 17.9575C9.39033 18.0956 9.3448 18.1985 9.29801 18.3002C9.17787 18.5625 9.08049 18.8324 9.03117 19.1173C9.00082 19.2956 8.98565 19.4776 8.9692 19.6583C8.95656 19.7926 8.9515 19.927 8.94391 20.0613C8.94391 20.0788 8.93759 20.0964 8.94012 20.114C8.97679 20.3713 8.92494 20.6274 8.93759 20.8834C8.95529 21.2223 8.96541 21.5625 8.97806 21.9039C9.06405 21.9478 9.13614 21.9278 9.18546 21.86C9.23984 21.7847 9.29422 21.7043 9.32331 21.6177C9.44598 21.2512 9.56359 20.8822 9.67361 20.5106C9.76593 20.2018 9.85699 19.8931 9.92528 19.5793C9.97966 19.3282 10.0012 19.0696 10.0328 18.8148C10.0606 18.5939 10.0707 18.373 10.1301 18.1558C10.1883 17.9475 10.2832 17.7617 10.4286 17.6036C10.5462 17.4755 10.6297 17.3299 10.7081 17.1617C10.6297 17.0575 10.55 16.9508 10.4691 16.8454C10.44 16.8065 10.4109 16.7701 10.4526 16.7136C10.5677 16.7136 10.6512 16.7939 10.7549 16.8467C10.8067 16.7964 10.8118 16.7324 10.8131 16.6697C10.8181 16.46 10.9092 16.2994 11.0862 16.1839C11.1747 16.1262 11.2544 16.0546 11.3417 15.9956C11.3834 15.9668 11.434 15.9492 11.4846 15.9241C11.5238 15.9555 11.5567 15.978 11.5858 16.0057C11.697 16.1111 11.8045 16.2203 11.9171 16.3245C12.0221 16.4224 12.1106 16.5366 12.1548 16.6697C12.2181 16.863 12.3281 17.0362 12.366 17.2446C12.4014 17.4354 12.5089 17.6123 12.5874 17.8031C12.5595 17.8433 12.5292 17.886 12.4963 17.9324C12.452 17.9399 12.4078 17.9475 12.3559 17.955C12.2864 18.2286 12.3129 18.5023 12.3129 18.7734C12.5444 18.7734 12.9844 18.4922 13.1602 18.2425C13.2614 18.2425 13.36 18.2437 13.4587 18.2412C13.4726 18.2412 13.4852 18.2199 13.4802 18.2249C13.5434 18.2362 13.5927 18.2525 13.6421 18.2538C13.7723 18.2575 13.9026 18.25 14.0328 18.2563C14.2276 18.2638 14.4223 18.2763 14.6158 18.2939C14.6639 18.2977 14.7107 18.3253 14.7853 18.3517C14.7372 18.3906 14.7132 18.4257 14.6867 18.4282C14.4805 18.4471 14.2744 18.4722 14.0682 18.4722C13.8748 18.4722 13.68 18.4471 13.4865 18.4332C13.4283 18.4295 13.3664 18.4157 13.3297 18.4734C13.2956 18.4571 13.2627 18.4408 13.2386 18.4295C12.9642 18.5814 12.7024 18.727 12.4356 18.8751C12.3977 18.8613 12.3547 18.8475 12.3041 18.8299C12.2813 18.9127 12.2611 18.9843 12.2446 19.0433C12.2535 19.1475 12.2623 19.2378 12.2699 19.3244C12.5684 19.1249 12.8732 18.9203 13.1931 18.7069C13.1931 18.683 13.1969 18.6378 13.2007 18.5537C13.2424 18.6215 13.2639 18.6579 13.2956 18.7094C13.6749 18.6542 14.0619 18.5977 14.4489 18.5412C14.2984 18.6429 14.1252 18.6454 13.9595 18.678C13.6952 18.732 13.4208 18.7445 13.1678 18.8537C12.8504 18.9906 12.5747 19.1889 12.3205 19.4224C12.3155 19.4525 12.3066 19.4814 12.3079 19.5102C12.323 19.9207 12.342 20.3311 12.3534 20.7428C12.366 21.1596 12.3812 21.5763 12.3787 21.993C12.3762 22.3859 12.3534 22.7788 12.3382 23.1717C12.337 23.2169 12.323 23.2608 12.2876 23.3047C12.2838 23.2658 12.2788 23.2257 12.2762 23.1867C12.2737 23.1453 12.2712 23.1052 12.2699 23.0637C12.2623 22.9119 12.2472 22.76 12.2484 22.6081C12.2484 22.4914 12.2661 22.3746 12.2813 22.2591C12.3243 21.9315 12.3117 21.6039 12.2902 21.2751C12.2876 21.2462 12.2838 21.2173 12.2826 21.1872C12.2661 20.783 12.2636 20.3763 12.2307 19.9734C12.1839 19.3809 12.2143 18.7872 12.2029 18.1948C12.2004 18.0479 12.1738 17.9161 12.041 17.7755C11.9247 17.7215 11.7717 17.6487 11.6098 17.5734C11.4884 17.6575 11.3594 17.6249 11.2304 17.5659C11.1823 17.5433 11.133 17.5232 11.0837 17.5044C10.9787 17.4642 10.875 17.473 10.7751 17.5232C10.5424 17.6387 10.3831 17.8169 10.2895 18.0592C10.2086 18.2701 10.1694 18.4897 10.1542 18.7106C10.1175 19.2516 9.99989 19.7763 9.8456 20.2935C9.78743 20.4893 9.74064 20.6901 9.67488 20.8834C9.5737 21.1822 9.45862 21.4784 9.35113 21.7746C9.3448 21.7909 9.34227 21.8073 9.33595 21.8273C9.42574 21.8939 9.513 21.9604 9.60406 22.0282C9.75581 21.9328 9.84181 21.7909 9.95436 21.6642C9.8886 21.5211 9.73558 21.4269 9.72293 21.2575C9.76214 21.2211 9.81652 21.191 9.84054 21.1445C10.1466 20.5859 10.4008 20.0085 10.4994 19.3721C10.526 19.2002 10.5437 19.0245 10.6385 18.8437C10.6562 18.8889 10.6777 18.9165 10.6777 18.9441C10.6752 19.091 10.6676 19.2366 10.66 19.3834C10.6588 19.4123 10.6524 19.4412 10.6512 19.4713C10.6347 19.8931 10.6183 20.3161 10.6031 20.7378C10.5968 20.9136 10.5816 21.0893 10.5842 21.265C10.5879 21.5939 10.5905 21.9227 10.6158 22.2504C10.6385 22.529 10.6752 22.8089 10.7599 23.0801C10.8017 23.2144 10.8257 23.3524 10.8611 23.4893C10.8801 23.5621 10.9066 23.6336 10.9294 23.7014C11.2228 23.8696 11.5263 23.9788 11.8513 24.024C11.9386 24.0365 12.0322 24.0064 12.1258 23.9964C12.1194 24.0892 12.0334 24.098 11.9702 24.152C11.8931 24.6466 11.8311 25.1562 11.711 25.6495C11.348 25.6871 10.9724 25.6332 10.5955 25.4938C10.5854 25.4336 10.574 25.3721 10.5639 25.3131C10.531 25.283 10.502 25.2566 10.4691 25.2252C10.4501 24.9855 10.4387 24.7445 10.4096 24.506C10.3818 24.2763 10.4122 24.039 10.3148 23.8056C10.292 23.8407 10.2768 23.8633 10.2693 23.8759C9.94678 23.8118 9.62935 23.7478 9.31066 23.6863C9.27778 23.68 9.24237 23.6901 9.19052 23.6939C9.19558 23.8081 9.20063 23.9135 9.20569 24.019C9.12981 23.9888 9.12096 23.9374 9.11717 23.8809C9.08049 23.4491 9.04129 23.016 9.00462 22.5842C8.9907 22.4148 8.98438 22.2441 8.96415 22.0759C8.94644 21.9253 8.91735 21.7759 8.88574 21.6278C8.87942 21.5976 8.84527 21.5738 8.82251 21.5474C8.8263 21.4997 8.83262 21.4483 8.83262 21.3968C8.83136 21.0968 8.82756 20.7981 8.8263 20.4981C8.8263 20.4152 8.83009 20.3324 8.75422 20.2546C8.62016 20.2069 8.47094 20.1541 8.29515 20.0926C8.24962 20.1215 8.1826 20.1642 8.12569 20.2006C8.0966 20.3424 8.16363 20.4479 8.19145 20.5596C8.22054 20.6725 8.25468 20.7855 8.30021 20.8922C8.34574 21.0002 8.41023 21.0993 8.46461 21.2035C8.51773 21.3027 8.56831 21.4031 8.6366 21.5324C8.32677 21.4922 8.05487 21.4545 7.7817 21.4207C7.60086 21.3981 7.41875 21.3792 7.23664 21.3604C7.11903 21.3491 7.00142 21.3353 6.88381 21.3328C6.34254 21.3215 5.81392 21.4094 5.29415 21.5525C4.89705 21.6617 4.50501 21.7922 4.10665 21.9027C3.69311 22.0181 3.27704 22.1299 2.85845 22.224C2.56126 22.2905 2.25521 22.3257 1.93399 22.3784C1.93146 22.3018 1.92767 22.2391 1.92767 22.1763C1.93146 18.7973 1.93652 15.4182 1.94031 12.0392C1.94031 11.5333 1.93779 11.0287 1.93273 10.5229C1.93273 10.4363 1.91123 10.3509 1.90111 10.2769C1.69118 10.1187 1.50907 9.96431 1.38134 9.75218C1.25994 9.55009 1.25235 9.35428 1.3649 9.15219C1.49642 8.91621 1.63174 8.68148 1.85558 8.51454C1.93273 8.4568 1.96055 8.3727 1.95928 8.28107C1.95676 8.07521 1.9479 7.87061 1.94537 7.66476C1.94158 7.38861 1.93779 7.11246 1.93779 6.83631C1.93779 5.24972 1.94031 3.66313 1.94284 2.07654C1.94284 2.02005 1.9517 1.96357 1.95676 1.90332C8.7833 1.90332 15.5921 1.88951 22.3997 1.90834C26.2872 1.91964 30.1748 1.90834 34.0762 1.92215C34.0812 1.96859 34.0914 2.01378 34.0914 2.05771C34.0901 3.43845 34.0863 4.81918 34.0838 6.19992C34.0838 6.38695 34.0838 6.57397 34.0838 6.73841C34.2026 6.92418 34.3215 7.07983 34.41 7.25054C34.6023 7.62459 34.5997 7.99362 34.3354 8.34132C34.257 8.44424 34.1761 8.54466 34.0926 8.6501V22.0006C34.0724 22.0131 34.0635 22.0257 34.0534 22.0244C33.6816 22.0169 33.3085 22.0194 32.9367 21.9993C32.0995 21.9554 31.3053 21.7081 30.5048 21.4859C29.9825 21.3416 29.459 21.2035 28.9291 21.0893C28.6597 21.0315 28.3777 21.0303 28.102 21.0077C27.949 20.9951 27.796 20.9901 27.6278 20.9801C27.3622 21.2474 27.1447 21.5575 26.912 21.8838C27.0814 21.8675 27.2281 21.8575 27.3736 21.8386C27.7163 21.7947 28.0577 21.8035 28.3992 21.8386C29.1858 21.9177 29.9383 22.1361 30.6857 22.3734C31.299 22.5667 31.9174 22.7399 32.5498 22.8604C33.0126 22.9495 33.4755 22.9759 33.9409 22.8767C33.9699 22.8704 33.999 22.8692 34.0294 22.8679C34.0522 22.8679 34.0762 22.8704 34.1065 22.8717C34.1571 22.9909 34.1204 23.1139 34.1255 23.2344C34.1306 23.3512 34.1255 23.4692 34.1255 23.5972C34.0724 23.6148 34.0243 23.6399 33.9737 23.6449C33.5374 23.6926 33.1049 23.7001 32.6674 23.6298C32.0477 23.5294 31.447 23.3625 30.8501 23.1767C30.2595 22.9922 29.6765 22.7788 29.0669 22.6596C28.8368 22.6144 28.6015 22.5893 28.3676 22.5591C28.2626 22.5453 28.1551 22.5328 28.0502 22.534C27.4178 22.5453 26.788 22.578 26.1835 22.7964C25.8636 22.9119 25.5828 23.0951 25.3059 23.2872C24.8658 23.5934 24.4307 23.9085 23.9755 24.1922C23.6467 24.398 23.2888 24.5574 22.9448 24.7394C22.8803 24.7733 22.7956 24.7846 22.7639 24.8938C22.812 24.9039 22.8563 24.924 22.8967 24.9177C23.1345 24.8788 23.376 24.8499 23.6087 24.7884C23.9097 24.7081 24.2056 24.6014 24.5016 24.501C24.8987 24.3666 25.297 24.2361 25.6891 24.0905C26.1178 23.9323 26.5604 23.8369 27.0068 23.7528C27.4874 23.6625 27.9717 23.6575 28.4574 23.6888C28.6976 23.7039 28.9354 23.7629 29.1732 23.8031C29.7574 23.9035 30.3189 24.0817 30.8817 24.26C31.4849 24.4495 32.0957 24.6026 32.7217 24.7018C33.1062 24.7633 33.4869 24.7382 33.8662 24.6591C33.9409 24.6441 34.0155 24.6277 34.0901 24.6114C34.1331 24.7206 34.1419 25.1298 34.1091 25.3746C34.1002 25.3821 34.0914 25.3934 34.0812 25.3947C33.7271 25.4549 33.373 25.5428 33.0113 25.5139C32.7534 25.4938 32.4979 25.4386 32.2412 25.3984C31.7201 25.3156 31.2244 25.1449 30.7249 24.983C30.2595 24.8323 29.7928 24.683 29.3211 24.5537C28.9569 24.4545 28.5851 24.3817 28.2032 24.3867C28.1387 24.3867 28.0742 24.3666 28.0097 24.3692C27.691 24.3792 27.3698 24.3767 27.0536 24.4118C26.4327 24.4784 25.8509 24.698 25.2667 24.9039C24.6268 25.1286 23.9894 25.3633 23.3267 25.5189C22.8095 25.6407 22.2884 25.6671 21.7649 25.5415C21.5815 25.4976 21.3969 25.4587 21.2122 25.4185C21.1452 25.4436 21.0769 25.4662 21.0137 25.4951C20.7759 25.6018 20.5179 25.5917 20.2675 25.6294C20.1929 25.6407 20.117 25.6532 20.0197 25.6683C20.3244 25.8616 20.6355 25.9645 20.958 26.0373C21.3614 26.1277 21.7661 26.2168 22.1784 26.2507C22.6628 26.2909 23.1446 26.2934 23.6252 26.1968C24.1816 26.085 24.7343 25.9645 25.2679 25.7725C25.5398 25.6746 25.8092 25.5704 26.0824 25.475C26.5123 25.3244 26.955 25.2302 27.4115 25.1926C27.7024 25.1687 27.9907 25.1788 28.2791 25.2051C28.5434 25.229 28.8051 25.2754 29.0669 25.3219C29.7903 25.4499 30.4808 25.6959 31.1801 25.9106C31.6986 26.0687 32.2235 26.2043 32.766 26.2683C33.1758 26.3173 33.5792 26.3173 33.9788 26.2005C34.0167 26.1892 34.0585 26.1942 34.0964 26.1905C34.1331 26.3373 34.1306 26.8131 34.0914 26.9549C34.0332 26.9649 33.97 26.98 33.9067 26.9838C33.5476 27.0064 33.1922 27.0453 32.828 27.0214C32.164 26.9762 31.5456 26.7716 30.926 26.5608C30.4176 26.3888 29.9092 26.2168 29.3995 26.0499C29.0505 25.9357 28.6901 25.8842 28.3221 25.8629C28.0249 25.8453 27.7289 25.8541 27.4368 25.8817C27.1624 25.9081 26.8867 25.9608 26.6224 26.0399C26.1709 26.1742 25.7283 26.3398 25.2806 26.4905C24.9227 26.611 24.5686 26.744 24.193 26.8043C23.9135 26.8495 23.6353 26.9009 23.3495 26.8997C23.0472 26.8984 22.745 26.9085 22.444 26.8934C21.842 26.862 21.2451 26.7867 20.6646 26.6147C20.0715 26.439 19.4708 26.2871 18.8625 26.1679C18.7525 26.1465 18.6399 26.1352 18.5286 26.129C17.9431 26.0963 17.3576 26.065 16.7721 26.0926C16.3648 26.1114 15.9665 26.2018 15.5757 26.3185C15.0724 26.4679 14.5716 26.621 14.067 26.7641C13.6534 26.8821 13.2323 26.97 12.8061 27.034C12.6316 27.0603 12.4533 27.0679 12.2762 27.0729C11.9917 27.0804 11.7084 27.0741 11.4239 27.0792C11.0369 27.0854 10.6613 27.0139 10.2895 26.9147C9.71787 26.7629 9.16775 26.5507 8.6189 26.3373C8.31033 26.2168 7.99922 26.1076 7.66915 26.0637C7.58695 26.0524 7.50348 26.0549 7.42128 26.0499C6.81678 26.0122 6.23505 26.1252 5.65963 26.3022C5.14745 26.4603 4.63907 26.6336 4.11171 26.7365C3.94983 26.7679 3.78669 26.793 3.62229 26.8106C3.4288 26.8319 3.23405 26.847 3.04056 26.857C2.73957 26.8733 2.43858 26.8834 2.1376 26.8947C2.07943 26.8972 2.01999 26.8947 1.95296 26.8947C1.86191 26.6562 1.92261 26.4152 1.89479 26.1729C1.94284 26.1654 1.97573 26.1553 2.00987 26.1541C2.60046 26.1365 3.19231 26.1051 3.77531 26.0034C4.15724 25.9369 4.53283 25.8302 4.91096 25.7361C5.30553 25.6382 5.69631 25.5189 6.09467 25.4348C6.61191 25.3269 7.138 25.3055 7.66536 25.3608C8.31918 25.4298 8.92494 25.6645 9.53071 25.898C9.89872 26.0399 10.2642 26.1905 10.6537 26.2708C11.1191 26.3662 11.5845 26.4126 12.0613 26.375C12.4862 26.3411 12.9086 26.2947 13.3272 26.2206C13.9494 26.1101 14.5615 25.9558 15.1558 25.7361C15.3051 25.6809 15.4581 25.6344 15.6073 25.5817C15.6781 25.5566 15.7464 25.524 15.859 25.4763C15.773 25.4499 15.7275 25.4348 15.6819 25.4223C15.4252 25.3558 15.1685 25.2917 14.913 25.2215C14.8511 25.2051 14.7954 25.17 14.7335 25.1424C13.8773 25.4436 12.9946 25.6306 12.0663 25.6671C12.041 25.4122 12.0739 25.1763 12.1017 24.9328C12.5469 24.8612 13.0047 24.8863 13.46 24.7282C13.0667 24.5097 12.6531 24.3729 12.3964 24.019C12.4432 23.8018 12.5304 23.6035 12.4571 23.3813C12.4849 23.3662 12.5115 23.3399 12.5431 23.3336C13.2273 23.183 13.9089 23.0236 14.5817 22.829C14.9548 22.7211 15.3253 22.6018 15.6984 22.4951C16.1865 22.3545 16.6797 22.2391 17.1881 22.2102C17.4233 22.1964 17.6598 22.2215 17.8951 22.2278C17.9709 22.2303 18.0468 22.2278 18.1341 22.2278C18.2353 21.9918 18.3529 21.7658 18.3895 21.5048C18.4401 21.1395 18.5122 20.778 18.5729 20.414C18.6007 20.247 18.6146 20.0763 18.6437 19.9094C18.6753 19.7261 18.7196 19.5454 18.755 19.3621C18.7651 19.3106 18.7778 19.2529 18.7639 19.2052C18.7259 19.0696 18.7411 18.9416 18.7778 18.8086C18.8119 18.6855 18.8145 18.5537 18.8473 18.4307C18.9738 17.9713 18.9422 17.5019 18.9574 17.0349C18.965 16.8203 18.9751 16.6044 18.9864 16.3898C18.989 16.3383 19.0067 16.2868 19.013 16.2529C19.013 16.1601 19.0168 16.0847 19.013 16.0107C19.0092 15.9479 18.9966 15.8852 18.9852 15.8224C18.951 15.6304 18.9232 15.4421 18.9523 15.2425C18.9789 15.0642 18.9574 14.8797 18.9574 14.7078C18.9295 14.6488 18.908 14.5998 18.8891 14.5584C18.8891 14.3889 18.8688 14.2295 18.9257 14.0651C18.9599 13.9659 18.9447 13.8454 18.9308 13.7375C18.9131 13.5881 18.8752 13.44 18.8448 13.2856C18.9321 13.1388 18.9561 12.9856 18.8638 12.83C18.7892 12.84 18.7272 12.8488 18.6602 12.8588C18.6134 12.668 18.5704 12.4885 18.5274 12.3103H18.4945C18.4844 12.3492 18.4679 12.3856 18.4667 12.4233C18.4604 12.609 18.4642 12.7961 18.4528 12.9818C18.4477 13.0685 18.4249 13.1576 18.3921 13.2367C18.3263 13.3973 18.3187 13.5618 18.3187 13.73C18.3187 13.794 18.3339 13.8718 18.2378 13.9182C18.1088 13.5392 18.0873 13.1538 18.062 12.7547C18.0228 12.7408 17.9823 12.727 17.9267 12.707C17.8887 12.7496 17.8533 12.7873 17.8091 12.8362C17.8242 12.9078 17.8407 12.9806 17.8559 13.0521C17.8609 13.0521 17.866 13.0496 17.871 13.0484C17.89 13.2994 17.9014 13.5517 17.9305 13.8015C17.9596 14.05 18.0064 14.2973 18.0443 14.5358C17.9494 14.6714 17.9279 14.8157 17.8989 14.9588C17.8812 15.0479 17.8786 15.1433 17.7876 15.2287C17.7281 15.0843 17.7041 14.9475 17.7079 14.8094C17.7142 14.6086 17.6649 14.4153 17.6257 14.222C17.6105 14.1442 17.5384 14.0764 17.479 14.0136C17.4259 13.8479 17.374 13.6823 17.3196 13.5178C17.3171 13.5115 17.2994 13.5103 17.2842 13.5053C17.1805 13.5693 17.245 13.6923 17.1843 13.7701C17.2893 13.9823 17.2779 14.2082 17.3095 14.4266C17.3222 14.512 17.3272 14.5986 17.3399 14.6839C17.3804 14.9563 17.4259 15.2274 17.4638 15.4998C17.4714 15.5563 17.46 15.6153 17.4562 15.6818C17.4056 15.7157 17.3589 15.7471 17.2956 15.7885C17.2577 15.7446 17.2096 15.7119 17.1944 15.668C17.1578 15.5651 17.1375 15.4571 17.1097 15.3517C17.0933 15.2902 17.0756 15.2287 17.0566 15.1596C17.0667 15.1446 17.0819 15.1195 17.1009 15.0894C17.0832 15.0755 17.0655 15.0617 17.0452 15.0454C16.958 15.1659 16.8732 15.2814 16.7885 15.3994C16.7936 15.4295 16.791 15.4622 16.8037 15.486C16.8783 15.6178 16.8846 15.7596 16.9023 15.9065C16.9263 16.0973 16.9542 16.3019 17.0996 16.4613C17.092 16.5077 17.0844 16.5529 17.0781 16.5956C17.1122 16.6408 17.1439 16.6822 17.1982 16.755C17.1325 16.7324 17.0983 16.7211 17.0338 16.6998C17.0692 16.7713 17.0895 16.8153 17.1122 16.8617C17.0819 16.9408 17.0528 17.0199 17.0161 17.1165C16.9706 17.0098 16.9276 16.9107 16.8821 16.804C16.8062 16.8454 16.7974 16.9019 16.7898 16.9646C16.81 17.0023 16.8315 17.0425 16.8568 17.0889C16.8138 17.1153 16.7759 17.1379 16.7303 17.1655C16.7265 17.2471 16.7227 17.3287 16.7189 17.4153C16.6848 17.419 16.6519 17.4241 16.6064 17.4291C16.5609 17.3362 16.5141 17.242 16.4635 17.1391C16.4673 17.0726 16.4711 16.9985 16.4761 16.9069C16.533 16.9358 16.5672 16.9533 16.619 16.9785C16.6658 16.8793 16.7101 16.7864 16.7594 16.6797C16.6456 16.5605 16.743 16.3571 16.5786 16.2391C16.4572 16.3697 16.49 16.5165 16.5217 16.6546C16.5419 16.7425 16.547 16.814 16.4559 16.8843C16.4116 16.8542 16.3648 16.8241 16.3079 16.7864H16.1827C16.0727 16.6295 16.2131 16.4651 16.1676 16.3094C16.1106 16.2868 16.0613 16.268 16.012 16.2479C15.9184 16.1412 15.8248 16.0358 15.8514 15.8475C15.9032 15.914 15.9349 15.9542 15.9829 16.0157C16.0234 15.8475 15.907 15.8011 15.8274 15.7308C15.8312 15.6956 15.8337 15.6617 15.8375 15.6266C15.878 15.6153 15.9108 15.6065 15.95 15.5952C15.9349 15.5776 15.9222 15.5613 15.8957 15.5287C15.9361 15.5011 15.9753 15.4747 16.0158 15.4483C16.0702 15.481 16.1119 15.5073 16.1524 15.5312C16.2093 15.4622 16.1676 15.417 16.1284 15.363C16.1461 15.3417 16.165 15.3203 16.1878 15.2927C16.2118 15.3341 16.2257 15.358 16.2434 15.3881C16.3446 15.3705 16.3573 15.2864 16.3952 15.2061C16.2852 15.1659 16.1638 15.1559 16.1296 15.0241C16.0866 15.0103 16.0424 14.9977 15.9867 14.9802C16.0069 14.9274 16.0259 14.8835 16.0487 14.8258C15.9829 14.8094 15.9285 14.7956 15.8742 14.7831C15.8716 14.7605 15.8691 14.7442 15.8653 14.7166C15.9374 14.7027 16.0069 14.6889 16.0841 14.6726C16.0993 14.7115 16.1144 14.7467 16.1309 14.7881C16.1499 14.7781 16.1701 14.7743 16.1764 14.763C16.1979 14.7216 16.2143 14.6776 16.2346 14.6299C16.2738 14.6375 16.3067 14.645 16.3484 14.6538C16.3737 14.6224 16.4015 14.586 16.4293 14.5521C16.3952 14.4944 16.3661 14.4442 16.3345 14.3915C16.3623 14.3651 16.3876 14.3412 16.418 14.3124C16.3863 14.2735 16.3547 14.2346 16.3231 14.1969C16.3117 14.2032 16.3003 14.2107 16.289 14.217C16.2826 14.2584 16.2776 14.2998 16.27 14.3513C16.1878 14.3475 16.1081 14.3438 16.0601 14.3412C15.95 14.3638 15.9361 14.5057 15.7882 14.4454C15.84 14.4216 15.8666 14.409 15.9007 14.3927C15.921 14.34 15.9437 14.2835 15.9677 14.2233C15.9564 14.1994 15.9425 14.1743 15.921 14.1316C15.8868 14.1793 15.8602 14.217 15.8324 14.2559C15.8223 14.2458 15.8071 14.2358 15.8084 14.2308C15.8223 14.163 15.8451 14.0965 15.8046 14.0274C15.797 14.0136 15.8248 13.9797 15.8413 13.9421C15.8729 13.9659 15.8957 13.9823 15.9159 13.9986C15.9387 13.9735 15.9614 13.9484 15.9892 13.917C16.0284 13.9346 16.0639 13.9496 16.1043 13.9672C16.1562 13.8228 16.2068 13.6785 16.2687 13.504C16.2624 13.4927 16.2396 13.4463 16.2194 13.4074C16.227 13.2354 16.2991 13.0936 16.3977 12.9693C16.4989 12.84 16.5394 12.6919 16.576 12.5526C16.5482 12.4195 16.4167 12.5463 16.3775 12.4584C16.3003 12.6229 16.1663 12.7195 15.9956 12.771C15.9083 12.7647 15.821 12.7584 15.7199 12.7509C15.6984 12.7157 15.6718 12.6731 15.6516 12.6404C15.5441 12.6316 15.448 12.6229 15.3253 12.6128C15.2494 12.6994 15.1331 12.6028 15.0193 12.6203C15.3304 12.3128 15.5959 11.9752 15.8792 11.6112C15.8097 11.6199 15.7679 11.6262 15.6971 11.6363C15.5264 11.817 15.3417 12.0116 15.1584 12.2074C15.1268 12.2413 15.0926 12.2764 15.0711 12.3178C14.994 12.4609 14.8801 12.5701 14.7461 12.6743C14.6791 12.6831 14.6045 12.6931 14.5248 12.7044C14.4363 12.6743 14.3427 12.6429 14.2352 12.6065C14.1365 12.6969 14.0341 12.7898 13.9266 12.8877C13.8887 12.8262 13.8571 12.7735 13.8178 12.7082C13.9709 12.5187 14.1315 12.3203 14.2845 12.1308H14.4173C14.4628 12.0091 14.6095 11.9601 14.6727 11.812C14.612 11.812 14.5678 11.8007 14.5362 11.8145C14.4666 11.8446 14.3983 11.8835 14.3376 11.9287C14.2061 12.0266 14.0796 12.1308 13.962 12.2224C13.79 12.427 13.6357 12.6329 13.4574 12.8174C13.3765 12.9003 13.2563 12.9605 13.1071 12.9216C13.293 12.6643 13.5573 12.471 13.6724 12.1496C13.5826 12.0605 13.489 11.9676 13.3929 11.876C13.3879 11.871 13.3626 11.8848 13.3373 11.8936C13.3651 11.9425 13.3904 11.9865 13.4258 12.0467C13.3563 12.1446 13.2854 12.2438 13.2146 12.3429C13.0717 12.5438 12.9377 12.7521 12.7821 12.9442C12.6329 13.1287 12.4343 13.2555 12.2029 13.3258C12.0258 13.3798 11.8488 13.4111 11.6654 13.3509C11.611 13.3333 11.563 13.3208 11.5668 13.2379C11.5959 13.2216 11.63 13.2028 11.6578 13.1877C11.711 13.2116 11.7565 13.2329 11.8109 13.258C11.864 13.209 11.9108 13.1664 11.9576 13.1237C11.9449 13.0747 11.9348 13.0358 11.9234 12.9931C11.8741 12.9605 11.826 12.9291 11.7679 12.8902C11.7818 12.84 11.7957 12.7911 11.8083 12.7459C11.9019 12.7019 11.9866 12.663 12.0714 12.6241C12.1207 12.6015 12.1447 12.5676 12.1245 12.4986C12.0866 12.4835 12.041 12.466 11.9942 12.4471C11.998 12.422 11.9942 12.3969 12.0056 12.3906C12.0524 12.3568 12.0992 12.3128 12.1523 12.3003C12.3167 12.2601 12.4849 12.235 12.6518 12.1998C12.772 12.1747 12.8921 12.1446 12.9756 12.1258C13.1172 12.0078 13.2285 11.9149 13.3423 11.8208C13.2943 11.7191 13.25 11.6262 13.202 11.5258H13.0793C13.073 11.5584 13.0679 11.5898 13.0591 11.635C13.0249 11.6312 12.9908 11.6262 12.9402 11.6199C13.0085 11.5283 13.0616 11.4543 13.1223 11.3727C13.1109 11.325 13.0983 11.2685 13.0869 11.2195C13.1716 11.0287 13.3449 10.9446 13.5662 10.966C13.7458 10.9835 13.914 11.0438 14.0708 11.1179C14.2364 11.1957 14.3768 11.1593 14.5273 11.1028C14.5804 11.0827 14.6373 11.0714 14.6778 11.0601C14.8865 11.1794 15.08 11.2773 15.3215 11.2195C15.2975 11.1179 15.1976 11.099 15.1381 11.0438C15.0787 10.9886 15.0041 10.9471 14.9333 10.9082C14.8877 10.8831 14.8359 10.8668 14.7853 10.8555C14.5716 10.8078 14.3642 10.7451 14.1745 10.622C14.1871 10.607 14.1972 10.5856 14.2099 10.5844C14.3844 10.5643 14.5324 10.4777 14.674 10.3861C14.7802 10.317 14.8953 10.302 15.0129 10.3107C15.2064 10.3258 15.3987 10.3522 15.5909 10.3785C15.6819 10.3911 15.7705 10.4187 15.8577 10.4702C15.9425 10.4551 16.0259 10.4413 16.1423 10.4212C16.0803 10.3547 16.0436 10.3158 16.0019 10.2706C16.0095 10.2467 16.0171 10.2191 16.0284 10.1827C16.1764 10.2154 16.3155 10.2568 16.4584 10.2731C16.5975 10.2882 16.7404 10.2769 16.9011 10.2769C16.9213 10.2518 16.9542 10.2128 16.9896 10.1714C16.9491 10.076 16.9112 9.98439 16.8783 9.90532C16.7771 9.84883 16.6911 9.79988 16.6039 9.75218C16.5988 9.60281 16.4395 9.58398 16.3825 9.4798H16.1903C15.9564 9.43084 15.7882 9.27896 15.5959 9.13838C15.5706 9.09319 15.5378 9.03169 15.5049 8.97269C15.5327 8.87604 15.6389 8.90616 15.6971 8.84591C15.7072 8.78817 15.6819 8.74173 15.6263 8.70533C15.4884 8.70031 15.4644 8.84717 15.3658 8.89612C15.2735 8.94257 15.1925 9.00909 15.1053 9.06683C15.0408 9.02039 14.9889 8.98273 14.9295 8.94131C14.8941 8.96014 14.8587 8.97771 14.8245 8.99905C14.6905 9.08441 14.5577 9.17227 14.4223 9.25637C14.3882 9.27771 14.3439 9.29905 14.3073 9.29528C14.1656 9.28398 14.0594 9.36808 13.9468 9.42833C13.8849 9.46222 13.8419 9.53377 13.7964 9.59402C13.7369 9.67185 13.6699 9.71327 13.57 9.67812C13.5637 9.53126 13.6244 9.41076 13.7091 9.30658C13.7888 9.20867 13.8849 9.12206 13.9848 9.01788C13.9582 8.96516 13.9304 8.90868 13.9038 8.85219C13.8697 8.77813 13.833 8.70408 13.8077 8.62751C13.7812 8.54717 13.8014 8.47688 13.8823 8.43797C14.0265 8.41035 14.086 8.54215 14.1922 8.59487C14.2592 8.53211 14.2858 8.45805 14.2896 8.37395C14.2934 8.26851 14.3364 8.18065 14.4173 8.11287C14.5248 8.02249 14.5792 7.8794 14.7157 7.81789C14.7372 7.80785 14.7575 7.79781 14.7929 7.78024C14.9725 7.86183 15.1584 7.94592 15.3443 8.03002C15.4075 8.01245 15.4632 7.99739 15.534 7.97856C15.5403 7.90827 15.5454 7.84049 15.5504 7.78024C15.4973 7.68359 15.4202 7.60827 15.448 7.46894C15.4973 7.43631 15.5631 7.39237 15.62 7.35472C15.8312 7.44007 15.9412 7.59446 16.0082 7.78275C16.0411 7.87563 16.0929 7.95095 16.1701 7.97856C16.2384 8.08651 16.2966 8.17814 16.3699 8.29362C16.4268 8.0953 16.3535 7.96977 16.2409 7.85555C16.3029 7.76392 16.3762 7.68358 16.4142 7.5907C16.4521 7.49781 16.4546 7.38986 16.4749 7.27815C16.3737 7.24928 16.289 7.22543 16.2093 7.20284C16.1524 7.13129 16.098 7.06351 16.0436 6.99447C16.036 7.00326 16.0284 7.01204 16.0196 7.02083C15.9943 6.95556 15.969 6.89154 15.95 6.84134C15.8691 6.76979 15.7856 6.76728 15.7022 6.76853C15.62 6.76853 15.5378 6.76853 15.4556 6.76853C15.4062 6.69824 15.3632 6.63799 15.3215 6.579C15.3759 6.51121 15.4239 6.44971 15.4695 6.39322C15.4176 6.30661 15.362 6.32042 15.3089 6.35431C15.1166 6.47983 14.8991 6.52251 14.6778 6.55891C14.6335 6.56644 14.5893 6.58527 14.5475 6.6041C14.4957 6.62669 14.4464 6.65682 14.3616 6.61916C14.4261 6.56393 14.478 6.52126 14.54 6.46979C14.5374 6.43465 14.5349 6.39071 14.5324 6.32795C14.454 6.31163 14.3806 6.28779 14.3073 6.28402C14.239 6.28025 14.1682 6.29783 14.0948 6.30787C14.0468 6.25641 14.005 6.20996 13.9671 6.16729C14.0075 6.08319 14.072 6.07063 14.1353 6.05934C14.4021 6.01289 14.669 5.96017 14.9371 5.92126C15.0749 5.90118 15.2165 5.9062 15.3367 5.90118C15.5694 5.82712 15.7882 5.76059 16.0069 5.68905C16.0866 5.66269 16.16 5.66896 16.2283 5.7129C16.3724 5.80327 16.5217 5.88863 16.6544 5.99532C16.7392 6.0631 16.7986 6.16226 16.8656 6.25138C16.915 6.31791 16.9567 6.38946 17.0566 6.4108C17.0591 6.4108 17.0718 6.41331 17.0819 6.4108C17.3045 6.34678 17.3664 6.37816 17.4335 6.59531C17.4474 6.63925 17.4537 6.68694 17.4626 6.73213C17.4815 6.83004 17.4929 6.84761 17.5953 6.92167C17.6523 6.87899 17.6345 6.81247 17.6358 6.75849C17.6421 6.48862 17.6371 6.21875 17.6472 5.95013C17.6548 5.75181 17.6763 5.55474 17.7724 5.37148C17.8293 5.26353 17.9027 5.17818 17.9975 5.10537C18.038 5.07399 18.0759 5.03508 18.1063 4.99366C18.1733 4.90579 18.253 4.83676 18.363 4.81918C18.5754 4.78529 18.7828 4.71751 19.0004 4.82923C19.1053 4.8832 19.2406 4.8832 19.3633 4.8945C19.5378 4.91081 19.7136 4.91709 19.8881 4.92713C19.9109 4.92839 19.9337 4.93466 19.9653 4.94094C19.9729 4.97358 19.9805 5.00496 19.9893 5.03885C19.8907 5.12797 19.7819 5.15182 19.658 5.14805C19.534 5.14303 19.4088 5.14428 19.3127 5.24596C19.295 5.26479 19.2596 5.27608 19.2318 5.27859C19.0762 5.2924 18.9194 5.30119 18.7436 5.31374C18.755 5.4242 18.7702 5.53968 18.7778 5.65641C18.7816 5.71415 18.7854 5.77691 18.6981 5.80578C18.6817 5.76562 18.6652 5.7267 18.6475 5.68528H18.5767C18.6083 5.59114 18.6399 5.50077 18.6703 5.41165C18.6146 5.35139 18.5653 5.3401 18.5072 5.39658C18.4831 5.52964 18.4452 5.6652 18.4363 5.80202C18.4275 5.93884 18.4464 6.07691 18.454 6.20996C18.4212 6.25892 18.4009 6.31414 18.3617 6.34553C18.2011 6.47607 18.196 6.65682 18.1758 6.83882C18.1556 7.01832 18.1151 7.19531 18.081 7.37982C18.1252 7.4476 18.172 7.52041 18.2138 7.58442C18.1935 7.68986 18.1758 7.78149 18.1556 7.88693C18.1138 7.94341 17.9962 7.95848 18.0064 8.08274C18.0493 8.18693 18.2112 8.21454 18.2277 8.35638V8.57479C18.2378 8.5773 18.2492 8.57981 18.2593 8.58232C18.277 8.53839 18.3023 8.49571 18.3111 8.45052C18.3567 8.19571 18.5603 8.01747 18.6311 7.74384C18.6753 7.8066 18.6994 7.84174 18.731 7.88567C18.7626 7.77522 18.6893 7.70994 18.6678 7.66601C18.688 7.543 18.7032 7.4476 18.7247 7.31204C18.7398 7.28945 18.779 7.23171 18.8258 7.16393C18.9068 7.25054 18.903 7.34468 18.865 7.42627C18.793 7.58568 18.8056 7.73881 18.865 7.89823C18.9017 7.91831 18.9371 7.93839 18.9814 7.9635C19.0649 7.89948 19.1964 7.93463 19.2672 7.83672C19.2609 7.82166 19.2596 7.81413 19.2571 7.81162C19.1939 7.75513 19.0661 7.74635 19.0699 7.64342C19.0737 7.53045 19.0927 7.39991 19.1534 7.31079C19.2343 7.1928 19.2874 7.06602 19.3532 6.94301C19.3722 6.90661 19.3937 6.87146 19.4101 6.84259C19.4367 6.76351 19.3861 6.67063 19.4885 6.59657C19.5062 6.66435 19.5201 6.71707 19.5404 6.79113C19.5707 6.83004 19.6137 6.88527 19.663 6.94803C19.6947 6.93548 19.7376 6.93297 19.7541 6.91037C19.811 6.83129 19.8578 6.74468 19.8957 6.65305C20.045 6.55766 20.0273 6.33674 20.1828 6.25264C20.3169 6.26017 20.3548 6.3744 20.4218 6.44092C20.5407 6.44845 20.5318 6.31917 20.6216 6.28528C20.6444 6.29657 20.6747 6.31163 20.7038 6.32795C20.7291 6.34301 20.7532 6.35933 20.781 6.37691C20.8012 6.42962 20.8214 6.48485 20.8442 6.54636C20.8771 6.57021 20.915 6.59782 20.9454 6.61916C21.0364 6.72335 21.0187 6.89154 21.168 6.94677C21.2451 6.90661 21.3197 6.87146 21.3893 6.83004C21.5436 6.73841 21.7143 6.73339 21.8863 6.72962C21.9786 6.72837 22.0722 6.72837 22.1645 6.71958C22.2037 6.71581 22.2416 6.69196 22.2695 6.68067C22.3795 6.68945 22.4781 6.69824 22.5869 6.70703V6.83129C22.6577 6.88652 22.7336 6.94803 22.8069 7.00577C23.1315 7.01414 23.3271 7.05681 23.3937 7.1338C23.3431 7.15388 23.2964 7.17146 23.2546 7.18778C23.2028 7.16644 23.1585 7.14886 23.113 7.13129C23.0814 7.14008 23.0485 7.14886 23.0143 7.15765C22.9638 7.13631 22.9157 7.11497 22.8613 7.09238C22.7905 7.15263 22.7222 7.21162 22.6539 7.27062C22.5237 7.22418 22.4086 7.1815 22.2872 7.13757C22.2341 7.15639 22.1734 7.17648 22.1177 7.19531C22.033 7.16769 21.9558 7.14133 21.8901 7.11999C21.7788 7.18401 21.6827 7.23798 21.5916 7.2907C21.5398 7.28066 21.4942 7.27313 21.4652 7.26685C21.3513 7.32459 21.2527 7.37355 21.1667 7.41873C21.0896 7.39614 21.0339 7.37982 20.9593 7.35723C20.8556 7.40995 20.743 7.47145 20.6254 7.52543C20.5799 7.54677 20.5255 7.54928 20.4648 7.56308C20.4547 7.58191 20.4408 7.60576 20.4244 7.63212C20.4509 7.64593 20.4711 7.65723 20.4876 7.66601C20.4104 7.69363 20.3282 7.71497 20.2549 7.75262C20.1297 7.81664 20.1246 7.83923 20.1689 7.95722C20.2157 7.94969 20.265 7.94341 20.3358 7.93337C20.3067 8.00241 20.3206 8.0727 20.2359 8.11036C20.2157 8.07772 20.1954 8.04509 20.1752 8.01371C20.1183 7.9999 20.0601 7.98735 19.9956 7.97228C19.9261 8.00115 19.8502 8.03128 19.7693 8.06517C19.749 8.0953 19.7263 8.12793 19.6997 8.16684C19.5265 8.10659 19.4152 8.28107 19.247 8.266C19.252 8.30115 19.2546 8.32249 19.2583 8.35136C19.295 8.34508 19.3228 8.34132 19.362 8.33379C19.3772 8.37144 19.3924 8.41287 19.4101 8.4568H19.5062C19.5227 8.39655 19.5378 8.33755 19.5568 8.26475C19.6124 8.42291 19.6124 8.42542 19.5087 8.62876C19.5391 8.6978 19.5669 8.7593 19.5998 8.83462C19.5454 8.8434 19.5075 8.84842 19.486 8.85219C19.4 8.78817 19.3266 8.73545 19.2748 8.69654H19.0004C18.9902 8.72792 18.9776 8.76809 18.9561 8.83336C19.0117 8.82207 19.0421 8.81579 19.0775 8.80826C19.1192 8.83211 19.1686 8.85972 19.2242 8.8911C19.2495 8.94257 19.2773 9.00031 19.3039 9.05428C19.2925 9.10449 19.2824 9.14842 19.271 9.19988C19.3178 9.23754 19.362 9.27394 19.4088 9.31285C19.4442 9.31034 19.4784 9.30909 19.5176 9.30658C19.5517 9.24884 19.5834 9.19486 19.6213 9.13085C19.6681 9.09947 19.7212 9.06432 19.7794 9.02415C19.8236 9.03796 19.8666 9.05177 19.9109 9.06432C20.0108 9.02666 20.1095 8.98901 20.2081 8.95261C20.2992 8.85093 20.3105 8.67772 20.5028 8.6501C20.5483 8.69278 20.6027 8.74299 20.6634 8.79947C20.6406 8.84466 20.6204 8.88483 20.5925 8.9388C20.6343 8.94508 20.6684 8.9501 20.7102 8.95637C20.7418 8.7819 20.8429 8.70031 21.0086 8.67269C21.1111 8.65638 21.2084 8.60491 21.3096 8.57353C21.4095 8.54215 21.5044 8.50073 21.6169 8.51203C21.689 8.51956 21.7661 8.48316 21.8559 8.46182C21.9305 8.49194 22.0165 8.52709 22.1 8.56098C22.1127 8.63002 22.1228 8.6865 22.1341 8.75052C22.2859 8.79571 22.4326 8.88357 22.5717 8.74926C22.5945 8.75052 22.6097 8.74675 22.6172 8.75303C22.7779 8.86851 22.9713 8.85847 23.1522 8.89361C23.2926 8.92123 23.4127 8.98901 23.529 9.06683C23.5316 9.12206 23.5341 9.16725 23.5366 9.22624C23.4886 9.2639 23.4456 9.31662 23.3887 9.34047C23.2205 9.41076 23.0498 9.47603 22.8765 9.53126C22.7766 9.56264 22.6691 9.589 22.5667 9.58524C22.3934 9.57896 22.248 9.66808 22.0874 9.69821C22.0216 9.71076 21.9533 9.71578 21.8711 9.72707C21.7674 9.80239 21.6473 9.889 21.5309 9.97435C21.5474 10.012 21.5549 10.0296 21.5663 10.0559C21.5271 10.0748 21.493 10.0999 21.455 10.1099C21.3083 10.1513 21.1604 10.1915 21.0111 10.2241C20.934 10.2405 20.8682 10.2656 20.805 10.3145C20.7519 10.3559 20.6773 10.3697 20.6065 10.3974C20.5963 10.4425 20.5875 10.4865 20.5799 10.5216C20.4446 10.5518 20.3131 10.5769 20.1992 10.6672C20.2359 10.799 20.3447 10.8605 20.4357 10.922C20.5268 10.9835 20.6103 11.04 20.6406 11.1404C20.7013 11.1668 20.7494 11.1881 20.7797 11.2007C20.9353 11.1706 21.0731 11.1442 21.216 11.1166C21.2894 11.1618 21.3615 11.207 21.4348 11.2522C21.2628 11.2647 21.0921 11.1831 20.9391 11.3287C20.9631 11.3764 20.9859 11.4204 21.0137 11.4768C20.9517 11.4894 20.8973 11.5007 20.8392 11.512C20.7607 11.63 20.8151 11.7266 20.8923 11.812C21.039 11.9739 21.2097 12.1019 21.4234 12.1735C21.5777 12.225 21.7269 12.2927 21.885 12.3555C21.9723 12.6442 22.1392 12.8588 22.4238 12.9781C22.487 12.9492 22.5502 12.9203 22.6122 12.8927C22.5911 12.84 22.5452 12.8024 22.4743 12.7798C22.4326 12.7258 22.3883 12.6706 22.3428 12.6128C22.339 12.5739 22.3352 12.5337 22.3302 12.4835C22.3529 12.4496 22.3795 12.4132 22.4086 12.3706C22.3808 12.3141 22.3529 12.2588 22.3099 12.1722C22.4718 12.2325 22.4882 12.4095 22.6349 12.4446C22.659 12.4283 22.6881 12.4095 22.726 12.3844C22.7728 12.4283 22.8133 12.5187 22.9182 12.4484C22.9271 12.4032 22.9372 12.348 22.9486 12.2827C23.0434 12.2915 23.0978 12.3655 23.1825 12.4057C23.1459 12.4597 23.113 12.5061 23.0763 12.5614C23.1206 12.599 23.1585 12.6316 23.1661 12.6392C23.2888 12.9229 23.3963 13.1726 23.5076 13.4224C23.5177 13.4438 23.5493 13.4563 23.5935 13.4902C23.6757 13.1111 23.7782 12.7634 23.9881 12.4572C24.1437 12.4747 24.2588 12.3065 24.408 12.4245C24.5724 12.2965 24.7279 12.1672 24.8923 12.0517C25.0466 11.945 25.2186 11.866 25.378 11.8308C25.5601 11.8948 25.7207 11.9488 25.88 12.0078C25.9559 12.0354 26.0419 12.0542 26.076 12.1446C26.0621 12.2124 25.9976 12.2124 25.9508 12.2212C25.8535 12.2413 25.751 12.2664 25.6537 12.2576C25.5626 12.2488 25.488 12.2701 25.4184 12.3116C25.1149 12.4911 24.8152 12.6756 24.5155 12.8613C24.4573 12.8977 24.4092 12.9517 24.3574 12.9957V13.1952C24.4017 13.2329 24.4396 13.268 24.4775 13.2994C24.4017 13.4739 24.3195 13.6396 24.3207 13.8354C24.2929 13.8869 24.2562 13.9446 24.2297 14.0061C24.2208 14.0274 24.2335 14.0576 24.236 14.0827C24.2588 14.0839 24.2739 14.0902 24.2802 14.0852C24.4105 13.9772 24.5395 13.8655 24.6698 13.7588C24.752 13.691 24.8569 13.6961 24.9556 13.6835C25.0125 13.676 25.0694 13.6622 25.1263 13.6597C25.1895 13.6572 25.254 13.6597 25.3173 13.6697C25.3742 13.6797 25.4285 13.7049 25.4994 13.7274C25.622 13.6735 25.751 13.6182 25.8889 13.5567C25.9445 13.568 26.0128 13.5818 26.1001 13.5982C26.076 13.6597 26.0558 13.7099 26.0293 13.7751C26.0748 13.8115 26.1228 13.8517 26.1734 13.8931C26.1949 13.9371 26.2177 13.9823 26.2455 14.0375C26.2885 14.0099 26.3201 13.9898 26.3707 13.9584C26.4504 14.0149 26.5364 14.0739 26.6198 14.1366C26.7185 14.2094 26.8133 14.2898 26.9158 14.3588C26.9916 14.4103 27.0511 14.4718 27.0802 14.5571C27.0182 14.6463 26.9866 14.6613 26.9158 14.6262C26.869 14.6023 26.8234 14.5722 26.7855 14.5345C26.654 14.404 26.5035 14.4065 26.3429 14.4617C26.3264 14.468 26.31 14.473 26.2809 14.4831C26.1974 14.4454 26.1077 14.4053 25.9888 14.3525C25.88 14.345 25.7649 14.3739 25.6916 14.5107C25.6688 14.5534 25.6157 14.581 25.5715 14.6199C25.5677 14.6475 25.5626 14.6814 25.5575 14.7115C25.6296 14.8371 25.7637 14.8232 25.8813 14.8709C25.9003 14.8948 25.9268 14.9249 25.9496 14.9588C25.9964 15.0266 26.052 15.0793 26.1254 15.1232C26.2392 15.1935 26.3441 15.2827 26.4441 15.3718C26.6034 15.5149 26.7842 15.6191 26.9815 15.7006C27.1371 15.7647 27.2028 15.8324 27.2484 15.9818C27.2079 15.9529 27.1839 15.9341 27.1586 15.9191C27.0928 15.8814 27.0283 15.84 26.96 15.8098C26.8917 15.781 26.8348 15.8061 26.7969 15.8776C26.8386 15.9793 26.9069 16.0584 26.9866 16.1287C27.0751 16.2065 27.1459 16.2981 27.1826 16.4111C27.1889 16.4324 27.1877 16.455 27.1927 16.5065C27.1447 16.4688 27.1093 16.4513 27.0878 16.4236C27.0093 16.3283 26.9436 16.2216 26.8576 16.1362C26.7842 16.0634 26.6907 16.0094 26.6021 15.9529C26.5579 15.9253 26.506 15.909 26.4554 15.8864C26.3429 15.9015 26.2265 15.9165 26.138 15.9278C25.9723 15.9153 25.832 15.9052 25.6929 15.8927C25.5082 15.8751 25.3223 15.8613 25.1377 15.8337C25.0643 15.8224 24.996 15.7747 24.924 15.7521C24.8835 15.7383 24.838 15.7408 24.7785 15.7333C24.824 15.8237 24.8582 15.8939 24.905 15.9906C24.9505 16.0057 25.0188 16.0283 25.0871 16.0508C25.0922 16.0408 25.0972 16.0308 25.1035 16.0207C25.1819 16.091 25.2667 16.155 25.3375 16.2316C25.5398 16.4525 25.7599 16.6521 26.0191 16.8077C26.095 16.8529 26.1595 16.9144 26.2341 16.9621C26.3391 17.0274 26.3871 17.1266 26.4023 17.2395C26.4491 17.581 26.5199 17.9186 26.6123 18.2512C26.6413 18.3579 26.6224 18.4596 26.5705 18.5537C26.4731 18.5851 26.3796 18.6153 26.3037 18.6391C26.1911 18.8023 26.2797 18.9454 26.2948 19.086C26.3075 19.2014 26.3467 19.3144 26.3745 19.4311C26.3467 19.4901 26.3189 19.5466 26.2898 19.6069H26.181C26.1494 19.5466 26.1152 19.4801 26.0798 19.4148C26.028 19.3182 25.9989 19.2115 25.9458 19.1123C25.8927 19.0144 25.8914 18.8876 25.8788 18.7722C25.8509 18.5274 25.8358 18.2814 25.8079 18.0379C25.7915 17.8897 25.7789 17.8784 25.6688 17.7793C25.6334 17.7868 25.5942 17.7969 25.536 17.8094C25.5044 17.7667 25.469 17.7165 25.4285 17.6625C25.488 17.5935 25.536 17.5358 25.6031 17.4579C25.5917 17.3663 25.5752 17.2571 25.5651 17.1479C25.5588 17.0839 25.5601 17.0186 25.5563 16.9546C25.5512 16.8554 25.5487 16.8529 25.4538 16.7701C25.4146 16.8241 25.3754 16.8793 25.3362 16.9345C25.3008 16.9257 25.2793 16.9207 25.2464 16.9132C25.2641 16.8718 25.2793 16.8391 25.297 16.799C25.2351 16.809 25.1807 16.8178 25.1276 16.8253C25.0985 16.75 25.0744 16.6872 25.0504 16.622C25.0808 16.5906 25.1111 16.5592 25.1491 16.519C25.0656 16.44 25.0049 16.3446 24.8506 16.3835C24.8683 16.4462 24.8835 16.5002 24.8999 16.558C24.8784 16.5818 24.8519 16.6107 24.8354 16.6282C24.8569 16.755 24.8759 16.868 24.8936 16.9709C24.8582 17.0249 24.8316 17.0688 24.8 17.1178C24.7014 17.1102 24.6862 17.2031 24.6584 17.2759C24.4978 17.1944 24.4269 17.0588 24.3599 16.9144C24.3169 16.8216 24.2499 16.7387 24.1753 16.6232C24.1437 16.6835 24.1108 16.7161 24.1121 16.7462C24.1234 16.9446 24.0931 17.1592 24.2967 17.3036C24.3296 17.2885 24.365 17.2722 24.408 17.2521C24.4598 17.3889 24.5104 17.5195 24.5597 17.65C24.6204 17.8107 24.7153 17.9512 24.8253 18.083C24.8683 18.1345 24.9037 18.186 24.8658 18.26C24.7785 18.2738 24.7393 18.2174 24.6976 18.1584C24.6634 18.1107 24.6242 18.0667 24.5825 18.0253C24.4801 17.9224 24.3738 17.8207 24.2689 17.7178C24.1728 17.7793 24.2069 17.8609 24.2158 17.9312C24.2373 18.0881 24.2663 18.2425 24.2942 18.4056C24.3157 18.4307 24.3422 18.4621 24.3726 18.4973C24.3447 18.5726 24.3157 18.6491 24.279 18.7483C24.3397 18.9027 24.4067 19.0696 24.4801 19.2542C24.4383 19.2391 24.4042 19.2265 24.3625 19.2102C24.3283 19.347 24.3764 19.4826 24.3865 19.6169C24.3966 19.7625 24.4244 19.9069 24.4497 20.05C24.4737 20.183 24.5876 20.296 24.5458 20.4567C24.4257 20.4253 24.3789 20.3286 24.3549 20.2445C24.2802 19.9734 24.1955 19.7048 24.2031 19.4173C24.2056 19.3132 24.1841 19.2077 24.1702 19.1035C24.1614 19.0358 24.1348 18.9793 24.0526 18.9579C23.873 19.0609 23.7466 19.2027 23.7352 19.3872C23.7972 19.7073 23.8541 19.9947 23.9097 20.2809C23.8971 20.2897 23.8832 20.2985 23.8705 20.3073C23.9122 20.3387 23.954 20.37 23.9982 20.4039C24.0716 20.3851 24.1424 20.3663 24.2132 20.3475C24.217 20.355 24.2195 20.3625 24.2233 20.37C24.1702 20.4127 24.1171 20.4554 24.0653 20.4968C24.0855 20.6663 24.1032 20.8156 24.1247 20.9939C24.1028 21.0968 24.0568 21.1784 23.9869 21.2387C23.9691 21.2186 23.9476 21.1997 23.9337 21.1771C23.9186 21.1533 23.911 21.1244 23.9009 21.1006C23.8452 21.078 23.7972 21.0579 23.7339 21.0315C23.7263 20.9964 23.7187 20.955 23.7086 20.9035H23.8895C23.9489 20.788 23.9148 20.6889 23.8832 20.5935C23.8364 20.5508 23.7934 20.5131 23.7478 20.4717C23.7731 20.4278 23.7934 20.3926 23.8111 20.3625C23.7592 20.1203 23.7074 19.8805 23.6568 19.6408C23.572 19.6106 23.4911 19.5818 23.4152 19.5542C23.4544 19.278 23.5695 19.0508 23.7301 18.8312C23.6656 18.7659 23.6163 18.7144 23.5493 18.6454C23.5025 18.7207 23.4696 18.7734 23.4304 18.8374C23.4089 18.8437 23.3773 18.8537 23.3343 18.8663C23.3039 18.8186 23.2774 18.7747 23.2445 18.7219C23.3014 18.663 23.3533 18.6077 23.4089 18.55C23.4253 18.5035 23.4418 18.4546 23.462 18.3981C23.4342 18.309 23.4266 18.2061 23.3381 18.1395C23.1699 18.1408 23.0649 18.2098 23.0118 18.3768C22.9675 18.5148 22.8727 18.6353 22.8259 18.7734C22.7171 19.0947 22.6248 19.4224 22.5224 19.7462C22.4389 20.0085 22.3542 20.2709 22.2619 20.5307C22.0949 20.9939 21.9356 21.4608 21.7459 21.9152C21.6169 22.2227 21.4399 22.5102 21.2856 22.8064C21.254 22.8679 21.2236 22.9307 21.1907 22.9997C21.2881 23.0801 21.4007 23.1014 21.5056 23.1227C21.8408 23.1918 22.1771 23.2533 22.5237 23.2407C22.8259 23.2294 23.1218 23.1817 23.4152 23.1114C23.916 22.9909 24.3941 22.8027 24.8746 22.6269C25.2186 22.5014 25.5613 22.3746 25.9078 22.2579C26.2392 22.1462 26.5073 21.9491 26.7185 21.6817C27.1497 21.137 27.581 20.5922 27.9313 19.991C28.3347 19.2993 28.704 18.5901 28.9518 17.8282C29.0695 17.4667 29.1529 17.0939 29.2465 16.7249C29.3591 16.2806 29.4172 15.8287 29.4703 15.3743C29.5311 14.8659 29.5551 14.3551 29.5273 13.8454C29.5058 13.4488 29.4451 13.0534 29.3995 12.658C29.3451 12.186 29.2351 11.7241 29.1099 11.2672C28.9468 10.6672 28.7381 10.081 28.4548 9.52373C28.3031 9.22624 28.1576 8.92248 27.9781 8.64006C27.5721 7.9999 27.1636 7.36099 26.6401 6.80493C26.0609 6.18862 25.4387 5.62001 24.7355 5.15056C23.715 4.46898 22.6198 3.93551 21.4335 3.59535C20.8986 3.44221 20.3548 3.3418 19.8072 3.24891C19.4784 3.19242 19.1483 3.18991 18.8183 3.1736C18.4161 3.15351 18.0139 3.17736 17.613 3.18991C17.0819 3.20623 16.5545 3.27527 16.0386 3.40832C15.6326 3.51376 15.2241 3.60288 14.822 3.71962C14.5728 3.79116 14.3313 3.89158 14.0935 3.99451C13.6003 4.20789 13.1122 4.43132 12.6481 4.70245C12.0296 5.0627 11.4454 5.46939 10.913 5.95013C10.3249 6.48109 9.78869 7.05849 9.31319 7.69112C8.92747 8.2045 8.59614 8.75303 8.30906 9.32666C8.05107 9.84256 7.83735 10.3773 7.65903 10.9233C7.49842 11.4128 7.37322 11.9137 7.29988 12.4258C7.25688 12.727 7.21135 13.0283 7.16962 13.3295C7.16203 13.3873 7.16203 13.4463 7.16076 13.5053C7.1595 13.9283 7.1595 14.3513 7.15571 14.7743C7.15318 15.1747 7.22147 15.5676 7.28343 15.9605C7.35046 16.3822 7.4314 16.8015 7.54901 17.2119C7.79815 18.083 8.13328 18.9203 8.58728 19.7073C8.63913 19.7977 8.68087 19.8943 8.73019 19.9872C8.75295 20.0299 8.78457 20.0688 8.83262 20.1378C8.84654 20.0751 8.85918 20.0487 8.85792 20.0223C8.84653 19.6998 8.86677 19.3797 8.92874 19.0621C8.93379 19.0332 8.93127 19.0044 8.93253 18.9755L8.93 18.9793L8.93253 18.9642Z" fill="#0C1837"/>
<path d="M1.91309 28.3371V27.9731C1.98517 27.963 2.04714 27.9467 2.11037 27.9467C2.53529 27.9442 2.96021 27.9442 3.38513 27.9467C3.7797 27.9492 4.17553 27.958 4.5701 27.958C4.96594 27.958 5.36177 27.948 5.7576 27.948C6.00547 27.948 6.25461 27.9593 6.50248 27.9593C6.96407 27.9593 7.4244 27.9517 7.886 27.9505C8.79149 27.9492 9.69697 27.9505 10.6025 27.9505C18.1094 27.9517 25.6176 27.953 33.1245 27.9542C33.3964 27.9542 33.6696 27.9492 33.9415 27.9467C33.9883 27.9467 34.0338 27.9467 34.0806 27.9467C34.1501 28.0747 34.1172 28.194 34.1021 28.3308C34.0414 28.3346 33.9845 28.3421 33.9276 28.3421C31.7422 28.3434 29.5582 28.3446 27.3729 28.3446C21.204 28.3446 15.035 28.3459 8.86483 28.3459C6.59733 28.3459 4.32982 28.3446 2.06231 28.3434C2.01552 28.3434 1.96999 28.3396 1.91309 28.3371Z" fill="#0C1837"/>
<path d="M10.2722 24.4912V25.2481C10.1672 25.2243 10.0774 25.208 9.99014 25.1816C9.46026 25.0209 8.93163 24.8565 8.40175 24.6933C8.07421 24.5929 7.74287 24.505 7.40142 24.4774C7.15481 24.4573 6.90441 24.4686 6.65781 24.485C6.03939 24.5276 5.46019 24.7322 4.87213 24.9092C4.30177 25.0812 3.7251 25.2293 3.14589 25.3661C2.90055 25.4239 2.64256 25.4264 2.3909 25.4527C2.30237 25.4628 2.21511 25.4741 2.12659 25.4791C2.05703 25.4828 1.98748 25.4791 1.90527 25.4791V24.7159C2.03806 24.7021 2.16579 24.6845 2.29352 24.677C2.67165 24.6519 3.04598 24.5979 3.41146 24.5063C4.02987 24.3519 4.64323 24.185 5.25911 24.0218C5.90661 23.8511 6.56169 23.7444 7.23448 23.7481C7.65181 23.7507 8.05903 23.8184 8.45866 23.9176C8.88231 24.0218 9.29838 24.1536 9.71571 24.2816C9.90541 24.3406 10.0888 24.4209 10.2722 24.49V24.4912Z" fill="#0C1837"/>
<path d="M8.87987 22.5435C8.88998 22.7958 8.89884 23.0205 8.90895 23.2703C8.78755 23.2502 8.68891 23.2414 8.59532 23.2163C7.88586 23.0243 7.16122 22.9804 6.43278 23.0293C6.08627 23.0519 5.74229 23.1172 5.40716 23.2163C4.93797 23.3557 4.46879 23.4937 4.00087 23.6381C3.58354 23.7674 3.16494 23.8891 2.73243 23.9544C2.4656 23.9946 2.19496 24.0071 1.91421 24.0335C1.88133 23.8916 1.89903 23.7636 1.89524 23.6368C1.89145 23.5088 1.89524 23.3795 1.89524 23.2402C1.96733 23.2251 2.03435 23.2025 2.10264 23.1988C2.66541 23.1674 3.20921 23.0306 3.75047 22.89C4.20574 22.7707 4.65722 22.6339 5.10996 22.5021C5.53994 22.3766 5.96739 22.2435 6.41381 22.1808C6.4606 22.1745 6.50866 22.1707 6.55545 22.1695C6.84506 22.1682 7.13592 22.1607 7.42553 22.1695C7.89092 22.1833 8.33481 22.305 8.76605 22.4758C8.80905 22.4921 8.84572 22.5222 8.8824 22.5448L8.87987 22.5435Z" fill="#0C1837"/>
<path d="M9.64489 16.319C9.65755 16.3567 9.67274 16.3894 9.67906 16.4233C9.68413 16.4572 9.67906 16.4924 9.67906 16.5351C9.61199 16.5602 9.54618 16.5841 9.48164 16.6067C9.39305 16.5866 9.33357 16.5338 9.29814 16.4535C9.29561 16.4484 9.29308 16.4421 9.28928 16.4384C9.06022 16.1909 9.14881 15.9347 9.28548 15.6935C9.40571 15.4812 9.58668 15.3217 9.81954 15.2288C9.8942 15.2865 9.96254 15.3393 10.0271 15.3883C10.1195 15.3682 10.2005 15.3519 10.2903 15.3318C10.3232 15.3506 10.3637 15.3732 10.4055 15.3958C10.4257 15.5327 10.446 15.6646 10.4662 15.8028C10.5168 15.8304 10.5675 15.8593 10.6156 15.8857C10.7117 16.0917 10.7016 16.206 10.5725 16.3153C10.5282 16.2977 10.4801 16.2776 10.4308 16.2588C10.2587 16.3592 10.3283 16.5125 10.346 16.6594C10.1903 16.6795 10.1979 16.5213 10.1131 16.4874C10.0967 16.3869 10.1093 16.3052 10.1498 16.2223C10.2561 16.0013 10.2701 15.7726 10.1802 15.5214C10.06 15.5114 9.93343 15.5013 9.78663 15.49C9.67442 15.5244 9.57782 15.5918 9.49683 15.6923V16.2299C9.54239 16.2575 9.58668 16.2851 9.64236 16.319H9.64489Z" fill="#0C1837"/>
<path d="M8.93505 18.9605C8.85669 19.0183 8.87059 19.1049 8.86175 19.184C8.83773 19.3973 8.81498 19.6107 8.7897 19.8492C8.74547 19.7877 8.71766 19.7501 8.69238 19.7162C8.79223 19.3333 8.84658 18.9467 8.86554 18.5551C8.87312 18.3869 8.90219 18.2187 8.92115 18.0505C8.9262 17.999 8.92873 17.9476 8.93631 17.8559C8.8984 17.9149 8.8807 17.9425 8.85669 17.9815C8.80487 17.9149 8.83015 17.8572 8.84279 17.8057C8.87565 17.6739 8.89587 17.5472 8.8668 17.4091C8.8352 17.261 8.87186 17.1191 8.9755 16.9986C9.07787 16.8794 9.17519 16.7564 9.27757 16.6359C9.29021 16.6208 9.31296 16.6158 9.36983 16.5869C9.2624 16.8267 9.10441 16.9873 8.99825 17.1894C9.01847 17.2158 9.03995 17.2421 9.06523 17.276C9.03743 17.3011 9.00583 17.33 8.96159 17.3702C8.99572 17.4141 9.02605 17.4518 9.07282 17.5095C9.11326 17.448 9.1398 17.4078 9.16634 17.3677C9.16887 17.3702 9.18151 17.3777 9.18151 17.3815C9.16761 17.4555 9.17014 17.5396 9.13475 17.6011C9.04501 17.7543 9.02984 17.9225 9.01215 18.0907C8.98182 18.3819 8.9578 18.6731 8.93126 18.9643L8.93379 18.9605H8.93505Z" fill="#0C1837"/>
<path d="M13.689 17.0876C13.8445 16.9797 13.8622 16.8115 13.909 16.6508C13.8976 16.6219 13.8837 16.5906 13.8723 16.5567C13.8648 16.5328 13.8622 16.5065 13.8546 16.4625C13.9583 16.4876 13.9773 16.5516 13.9824 16.6219C13.9912 16.7374 13.9545 16.8454 13.8938 16.9383C13.8205 17.0512 13.7408 17.1617 13.646 17.2558C13.5271 17.3713 13.4626 17.4968 13.4942 17.6826C13.5132 17.7165 13.5423 17.7667 13.5739 17.8232C13.7218 17.7918 13.8407 17.7127 13.9406 17.6186C14.0393 17.5257 14.1088 17.4027 14.1923 17.2922C14.2606 17.3173 14.3137 17.3374 14.3731 17.3587C14.3542 17.5157 14.2644 17.601 14.124 17.6487C14.105 17.6362 14.0861 17.6249 14.0734 17.6161C13.9166 17.7855 13.6687 17.8408 13.5334 18.0566C13.4993 18.0127 13.4727 17.9788 13.4398 17.9374C13.4651 17.9161 13.4828 17.901 13.5043 17.8847C13.3374 17.7441 13.4272 17.5583 13.4209 17.3776C13.4512 17.36 13.4866 17.3399 13.5246 17.3186C13.5562 17.2659 13.5891 17.2106 13.6321 17.1403C13.5638 17.0525 13.4929 16.9621 13.4272 16.878C13.345 16.568 13.4828 16.3257 13.6523 16.0496C13.6472 16.1638 13.6257 16.2316 13.5966 16.3031C13.541 16.4437 13.4993 16.583 13.5132 16.7424C13.5258 16.8893 13.5891 16.9935 13.6902 17.0876H13.689Z" fill="#0C1837"/>
<path d="M12.0376 22.0366H12.23C12.2262 22.1132 12.2237 22.1811 12.2186 22.2489C12.1996 22.5529 12.1832 22.8568 12.2388 23.1596C12.254 23.245 12.2566 23.3342 12.2566 23.4221C12.2566 23.451 12.23 23.4811 12.2085 23.5276C12.1794 23.4937 12.1502 23.4761 12.1452 23.4535C12.0882 23.2098 12.0338 22.9649 11.9832 22.7187C11.9718 22.6634 11.9718 22.6044 11.9769 22.5479C11.9933 22.3808 12.0161 22.215 12.0376 22.0366Z" fill="#0C1837"/>
<path d="M22.0126 17.9341C22.0354 17.8977 22.0544 17.8688 22.0721 17.8425C22.1328 17.8349 22.1897 17.8286 22.258 17.8211C22.2327 17.8625 22.215 17.8914 22.1935 17.9266C22.2554 17.9617 22.301 17.9429 22.349 17.9002C22.4135 17.8425 22.4856 17.791 22.5514 17.7345C22.6121 17.6805 22.669 17.6215 22.7284 17.5663C22.7702 17.5274 22.8005 17.4659 22.8827 17.4973C22.9168 17.5726 22.9017 17.6529 22.8802 17.7307C22.7297 18.2604 22.5842 18.7914 22.3908 19.3085C22.3301 19.473 22.2858 19.6437 22.2403 19.8131C22.1669 20.0905 22.0784 20.3617 21.9557 20.624C21.8065 20.9428 21.6927 21.2767 21.5409 21.5943C21.3778 21.9395 21.1906 22.2734 21.011 22.6098C20.9782 22.67 20.9263 22.719 20.8896 22.7641C20.5811 22.7692 19.2165 22.3725 18.8877 22.1855C18.9117 22.07 18.9307 21.9495 18.9623 21.8328C19.0837 21.3897 19.1166 20.9328 19.2051 20.4847C19.2658 20.1809 19.3695 19.8872 19.4568 19.5897C19.4909 19.4742 19.5314 19.3613 19.5643 19.2621C19.5048 19.1893 19.4606 19.1353 19.4226 19.0889C19.4467 18.8604 19.4694 18.647 19.4947 18.401C19.515 18.46 19.5263 18.4927 19.539 18.5316C19.5655 18.5215 19.5858 18.5152 19.6187 18.5027C19.5668 18.3734 19.5175 18.2504 19.4593 18.106C19.4935 18.0295 19.5365 17.9341 19.5605 17.8826C19.5605 17.5588 19.563 17.2789 19.5592 16.9989C19.5592 16.9123 19.5352 16.8257 19.5301 16.7391C19.5238 16.6287 19.5213 16.5169 19.5289 16.4065C19.5352 16.3073 19.5542 16.2094 19.5757 16.1115C19.6047 15.981 19.6047 15.858 19.5402 15.7349C19.5188 15.6948 19.5289 15.6333 19.5377 15.5843C19.5453 15.5416 19.5744 15.5027 19.5984 15.4513C19.6376 15.445 19.6844 15.4299 19.7299 15.4337C19.8488 15.4462 19.9475 15.3985 20.0499 15.3483C20.1599 15.2944 20.2725 15.2467 20.3876 15.2015C20.4559 15.1751 20.5279 15.1726 20.5861 15.2542C20.5722 15.2831 20.5558 15.317 20.5355 15.3571C20.5355 15.3571 20.5381 15.3684 20.5444 15.376C20.6013 15.4437 20.6595 15.5103 20.7063 15.5642C20.8251 15.5467 20.9212 15.5329 21.0186 15.5178C21.0262 15.5291 21.0338 15.5404 21.0414 15.5517C21.0806 15.5128 21.1198 15.4739 21.159 15.4349L21.1324 15.3998C21.1059 15.4061 21.0793 15.4111 21.0528 15.4186C21.03 15.4249 21.0085 15.4337 20.9857 15.4412C20.9073 15.4149 20.8315 15.3898 20.729 15.3571C20.7138 15.327 20.6873 15.2693 20.6569 15.2078C20.6923 15.1801 20.7265 15.1525 20.7771 15.1124C20.7138 15.0935 20.6721 15.081 20.6228 15.0672C20.638 15.0471 20.6493 15.022 20.6569 15.0232C20.7176 15.0358 20.7771 15.0521 20.8365 15.0709C20.9933 15.1111 21.1843 15.0207 21.2981 15.1965C21.4246 15.1726 21.5498 15.1488 21.6585 15.1274C21.7433 15.1475 21.8128 15.1651 21.8963 15.1852C21.9228 15.273 22.0164 15.3509 21.9671 15.4801C22.0303 15.4864 22.0683 15.4902 22.1125 15.4952C22.2289 15.6295 22.3971 15.7337 22.4413 15.9546C22.3996 15.9709 22.3591 15.9998 22.3199 15.9985C22.2086 15.9973 22.0999 15.986 21.9886 15.9609C21.7913 15.9157 21.5928 15.8554 21.3841 15.8768C21.3044 15.8843 21.2222 15.8642 21.1388 15.8567C21.0136 16.0349 20.8201 15.9885 20.6367 16.0337C20.5191 16.1241 20.5659 16.2923 20.4875 16.4165C20.6291 16.4692 20.7568 16.5157 20.8972 16.5684C20.8694 16.6211 20.8466 16.6663 20.8163 16.7228C20.6519 16.7542 20.4849 16.7856 20.3319 16.8144C20.1296 16.9437 20.079 17.1295 20.079 17.3466C20.0031 17.4621 19.8792 17.5538 19.8374 17.7069C19.8994 17.8161 19.9626 17.9278 20.036 18.0558C19.9298 18.16 19.7641 18.2517 19.8248 18.4688C19.8058 18.4826 19.7818 18.5002 19.7565 18.5178C19.7679 18.524 19.7767 18.5341 19.7856 18.5328C19.9601 18.5178 20.0537 18.3998 20.1207 18.2592C20.1979 18.096 20.2611 17.9253 20.3382 17.7621C20.3749 17.683 20.4293 17.6127 20.4824 17.5286C20.5153 17.5437 20.5444 17.5563 20.576 17.5701C20.6203 17.5425 20.6645 17.5136 20.7037 17.4885C20.8365 17.2625 20.9845 17.063 21.2298 16.9525C21.2867 16.9274 21.3285 16.8684 21.3841 16.837C21.4309 16.8094 21.4878 16.7981 21.5472 16.7981C21.5763 16.7718 21.6054 16.7454 21.6497 16.7065C21.6864 16.7592 21.7192 16.8044 21.7395 16.8333C21.7041 16.9261 21.6762 16.9989 21.6497 17.0717C21.6573 17.0793 21.6636 17.0868 21.6712 17.0943C21.5434 17.1634 21.4157 17.2337 21.2779 17.309C21.2589 17.3441 21.2349 17.3906 21.2134 17.432C21.2298 17.555 21.288 17.6692 21.2323 17.7885C21.2159 17.8249 21.2007 17.8663 21.1742 17.8952C21.0426 18.037 20.9655 18.1977 20.9579 18.3935C20.9567 18.4362 20.925 18.4788 20.9099 18.5127C20.8112 18.5002 20.7227 18.4901 20.6392 18.4788C20.318 18.9119 20.2649 19.0186 20.2902 19.1956C20.1068 19.3424 20.1106 19.5834 20.0233 19.783C19.9361 19.9838 19.8729 20.1947 19.8248 20.4194C19.8501 20.3943 19.8817 20.3742 19.9007 20.3441C19.9247 20.3039 19.9411 20.2587 19.9563 20.2148C20.0018 20.0742 20.0625 19.9399 20.17 19.8357C20.2725 19.7353 20.3155 19.6085 20.3382 19.4767C20.3559 19.3713 20.4053 19.2922 20.4976 19.2219C20.5229 19.2759 20.5482 19.3249 20.5785 19.3914C20.7568 19.3675 20.9086 19.2972 21.0085 19.1403C21.0389 19.0914 21.0616 19.0337 21.0743 18.9772C21.1438 18.6809 21.3221 18.4512 21.5283 18.2378C21.589 18.1751 21.6661 18.1274 21.7243 18.0634C21.8052 17.9755 21.8975 17.9266 22.0139 17.9328L22.0126 17.9341Z" fill="#FAFAFB"/>
<path d="M29.9427 5.11509C30.0539 5.06237 30.1538 5.01342 30.255 4.96697C30.451 4.88036 30.6534 4.8176 30.8696 4.82388C31.0581 4.8289 31.2465 4.8402 31.4337 4.86154C31.6095 4.88036 31.7549 4.972 31.8877 5.08371C31.9964 5.17534 32.0458 5.28454 32.0078 5.42764C31.9977 5.4653 32.0002 5.50672 31.9964 5.55944C32.0521 5.55944 32.0976 5.56697 32.1406 5.55818C32.2152 5.54186 32.2873 5.5155 32.3607 5.49291C32.6186 5.41258 32.8501 5.48538 33.0689 5.61592C33.2864 5.74646 33.4495 5.93224 33.5772 6.14688C33.6278 6.23098 33.6556 6.32888 33.6885 6.40671C33.6683 6.47574 33.6531 6.52721 33.6354 6.58369C33.6797 6.72553 33.7897 6.82469 33.8833 6.93766C33.992 7.0682 34.1008 7.2 34.1944 7.34184C34.2842 7.47741 34.2943 7.63054 34.2854 7.79623C34.2677 8.1502 34.0565 8.37865 33.8049 8.58074C33.5975 8.74768 33.361 8.87069 33.0954 8.92467C33.0271 8.93848 32.9512 8.94852 32.8855 8.93471C32.6793 8.88952 32.4669 8.85689 32.2822 8.74141C32.2633 8.73011 32.2367 8.73136 32.219 8.7276C32.0748 8.83053 31.9408 8.93471 31.7979 9.0276C31.4779 9.23596 31.1327 9.31881 30.7508 9.24224C30.618 9.21588 30.4814 9.21211 30.3473 9.19077C30.2651 9.17697 30.188 9.14433 30.1463 9.064C30.2196 8.78785 30.4182 8.65982 30.6951 8.6799C31.0631 8.70626 31.4286 8.69245 31.7511 8.4753C32.0786 8.25313 32.2848 7.95188 32.3543 7.56025C32.3771 7.43096 32.372 7.30544 32.3569 7.17615C32.3126 6.79457 31.9737 6.46821 31.5715 6.48453C31.531 6.48579 31.4906 6.48453 31.4387 6.48453C31.4134 6.43432 31.3919 6.38788 31.3666 6.34269C31.2895 6.20462 31.2212 6.06027 31.1327 5.93098C30.9771 5.70379 30.7444 5.57701 30.489 5.48538C30.2778 5.41007 30.0653 5.34982 29.8339 5.34605C29.6303 5.34228 29.4494 5.39249 29.2724 5.48036C29.2142 5.50923 29.1522 5.53433 29.1017 5.57324C28.8601 5.76153 28.5743 5.82303 28.2822 5.88328C28.0229 5.93726 27.7599 5.99625 27.5499 6.17449C27.4614 6.2498 27.3817 6.33767 27.3097 6.4293C27.2275 6.53474 27.1592 6.65147 27.0795 6.77072C26.862 6.55859 26.6584 6.35775 26.4522 6.15943C26.2512 5.96613 26.0096 5.81676 25.8174 5.59082C25.9666 5.47534 26.1045 5.37492 26.2802 5.36111C26.451 5.3473 26.623 5.3473 26.7874 5.41509C26.8569 5.44396 26.9328 5.45651 27.0137 5.4791C27.1111 5.38622 27.2072 5.29961 27.297 5.20672C27.5601 4.93434 27.8876 4.76112 28.2531 4.70589C28.764 4.62807 29.2686 4.672 29.7138 4.98455C29.7846 5.03476 29.8642 5.07492 29.9389 5.11886L29.9427 5.11509Z" fill="#FAFAFB"/>
<path d="M4.32137 9.21462C4.35425 9.17822 4.38587 9.14307 4.41748 9.10793C4.47566 9.09412 4.53383 9.08031 4.59959 9.06525C4.63753 9.07655 4.68179 9.09035 4.72732 9.10291C4.90184 9.15311 4.96508 9.09412 4.93093 8.90207C4.75135 8.80667 4.5528 8.79161 4.35172 8.82048C4.23158 8.83806 4.15317 8.9209 4.11144 9.03261C3.97107 9.40918 4.07097 9.79704 4.42001 10.0456C4.48704 10.0933 4.56165 10.1297 4.635 10.1673C4.83988 10.2703 5.04854 10.3029 5.26353 10.1912C5.39379 10.1234 5.52531 10.0569 5.65936 9.99787C5.73271 9.96524 5.81618 9.93009 5.89332 9.93386C6.21707 9.94641 6.45988 9.80206 6.66476 9.57361C6.70775 9.52591 6.74949 9.47445 6.80007 9.43428C6.9063 9.34767 7.03024 9.34767 7.14406 9.42675C7.16809 9.44307 7.19085 9.46315 7.21108 9.48324C7.37296 9.6439 7.53357 9.80583 7.71315 9.98532C7.6398 10.2175 7.54621 10.4673 7.41975 10.7046C7.10232 10.8527 6.77099 10.9305 6.43206 10.992C6.12602 11.0472 5.81871 11.0334 5.5114 11.0259C5.40138 11.0234 5.30653 10.982 5.22812 10.8991C5.17248 10.8401 5.10671 10.7912 5.0359 10.7297C4.96508 10.7799 4.90184 10.8213 4.84114 10.8665C4.67294 10.9933 4.48577 11.051 4.27584 11.0271C4.00521 10.997 3.72952 10.9707 3.50947 10.7887C3.39692 10.6958 3.28563 10.5941 3.2009 10.4774C3.10858 10.3506 2.99729 10.2916 2.84427 10.2878C2.47752 10.279 2.1563 10.1397 1.86164 9.93386C1.80852 9.89746 1.76047 9.85227 1.71367 9.80708C1.52524 9.62382 1.47719 9.41796 1.60365 9.18324C1.87176 8.68617 2.19298 8.46777 2.79874 8.53304C2.85438 8.53931 2.91129 8.54433 2.98464 8.55187C2.9897 8.46777 2.99349 8.40626 2.99602 8.3435C3.00867 8.05229 3.1971 7.84141 3.48924 7.78493C3.79149 7.72593 4.09121 7.74727 4.38334 7.82635C4.57809 7.87907 4.74376 7.99455 4.88161 8.14643C4.98025 8.25438 5.07131 8.37865 5.25847 8.36986C5.29768 8.34978 5.35206 8.32593 5.40391 8.29706C5.53037 8.22928 5.66948 8.21798 5.801 8.25564C6.03496 8.32342 6.25754 8.41756 6.4308 8.59956C6.44344 8.61212 6.45609 8.62467 6.46747 8.63848C6.71028 8.93847 6.69637 9.15813 6.47632 9.41043C6.33848 9.56859 6.16902 9.68533 5.95023 9.70792C5.92747 9.71043 5.90091 9.72047 5.88068 9.71419C5.6796 9.65143 5.52911 9.76817 5.37103 9.85352C5.29894 9.89244 5.23444 9.94515 5.16615 9.9916C5.04601 10.0744 4.91702 10.0694 4.79688 10.0016C4.62489 9.90499 4.4883 9.76691 4.37575 9.60625C4.29608 9.49202 4.29987 9.36273 4.31758 9.21587L4.32137 9.21462Z" fill="#FAFAFB"/>
<path d="M9.73154 6.76698C9.6974 6.81342 9.67084 6.85107 9.64302 6.88622C9.44194 7.13852 9.24086 7.39207 9.03726 7.64312C8.96011 7.73851 8.87665 7.82763 8.80835 7.90546C8.59969 7.95315 8.43402 7.88035 8.26582 7.8314C8.17603 7.80629 8.09257 7.75609 8.00531 7.72094C7.95346 7.6996 7.89781 7.68454 7.86999 7.6745C7.7157 7.75106 7.5905 7.81382 7.46277 7.87533C7.25537 7.97449 7.04291 7.977 6.82413 7.91299C6.53326 7.82763 6.2601 7.70211 5.99705 7.55651C5.863 7.48245 5.73148 7.40086 5.6126 7.30672C5.43934 7.16864 5.31035 6.99291 5.26862 6.76823C5.26229 6.73434 5.24965 6.69668 5.25724 6.6653C5.3407 6.32514 5.45958 6.02138 5.85668 5.91343C6.1311 5.83812 6.39668 5.7992 6.6749 5.8695C6.7179 5.88079 6.76469 5.87828 6.81907 5.8833C6.82539 5.83686 6.83804 5.80297 6.83425 5.77033C6.80137 5.51427 6.9253 5.32473 7.1112 5.17536C7.32999 4.99838 7.58292 4.91177 7.86872 4.96825C8.03566 5.00089 8.14821 5.11386 8.25065 5.23812C8.3025 5.30214 8.34929 5.36992 8.40114 5.43394C8.42137 5.45904 8.45299 5.47536 8.48461 5.50172C8.54404 5.40005 8.54404 5.29963 8.53899 5.20172C8.5276 4.94189 8.65786 4.7762 8.89182 4.69085C9.23327 4.56658 9.5722 4.58039 9.9048 4.73729C10.2121 4.88164 10.3841 5.14649 10.5422 5.4239C10.589 5.50548 10.6219 5.59335 10.6674 5.69628C10.6345 5.75653 10.6105 5.83059 10.5624 5.88456C10.3575 6.11175 10.1451 6.33267 9.93389 6.55359C9.91871 6.56991 9.89468 6.57744 9.86686 6.59376C9.71763 6.40171 9.53047 6.25987 9.30536 6.17702C9.16246 6.12431 9.01323 6.08288 8.86273 6.05903C8.49978 6.00255 8.22535 6.17577 7.98254 6.41803C7.84723 6.55359 7.80676 6.72053 7.82446 6.90379C7.83584 7.03057 7.88896 7.07952 8.03186 7.10839C8.04704 7.02932 8.07613 6.95024 8.07739 6.87116C8.07992 6.61886 8.24685 6.48204 8.43402 6.36405C8.62372 6.24481 8.82859 6.25108 9.0322 6.32263C9.29145 6.413 9.52541 6.54606 9.73028 6.76949L9.73154 6.76698Z" fill="#FAFAFB"/>
<path d="M27.2845 7.0785C27.3199 6.97933 27.3464 6.91406 27.3667 6.84628C27.4565 6.55005 27.6563 6.358 27.9408 6.24001C28.1874 6.13708 28.4467 6.08813 28.7047 6.02537C28.8337 5.99399 28.9576 5.93249 29.0777 5.87349C29.189 5.81952 29.2927 5.74922 29.4002 5.68897C29.5886 5.58354 29.7872 5.56596 29.9997 5.59985C30.4562 5.67266 30.8255 5.87349 31.0556 6.2852C31.0948 6.35549 31.1151 6.43708 31.1391 6.5149C31.1593 6.58143 31.1745 6.64921 31.1947 6.72704C31.2529 6.72704 31.306 6.72704 31.3579 6.72704C31.4464 6.72704 31.5362 6.72327 31.6235 6.73206C31.908 6.75842 32.0926 6.95172 32.1281 7.23289C32.1925 7.73623 31.8663 8.1379 31.5337 8.3312C31.3781 8.42158 31.1985 8.44794 31.0215 8.45296C30.7736 8.45798 30.527 8.44668 30.2463 8.44166C30.2172 8.47932 30.1679 8.54459 30.1185 8.6086C30.0401 8.71028 29.9655 8.81697 29.8795 8.91362C29.748 9.06299 29.5697 9.13705 29.3787 9.15211C29.1207 9.17219 28.8615 9.16592 28.5908 9.17219C28.2064 8.43287 27.7284 7.76384 27.2832 7.07975L27.2845 7.0785Z" fill="#FAFAFB"/>
<path d="M17.5391 23.8555C17.381 23.8555 17.2444 23.8605 17.1091 23.8555C16.6247 23.8366 16.1581 23.9408 15.6965 24.0676C15.1514 24.2182 14.6102 24.3826 14.0676 24.5395C13.9892 24.5621 13.907 24.576 13.8198 24.5948C13.5087 24.419 13.1925 24.2396 12.8447 24.0425C12.9105 24.0224 12.9396 24.0098 12.9712 24.0036C13.5959 23.8555 14.2067 23.6571 14.8201 23.4689C15.3323 23.3107 15.8457 23.155 16.363 23.017C16.688 22.9304 17.0231 22.8965 17.362 22.9417C17.5201 22.963 17.6782 22.9718 17.8375 22.9868C17.859 22.9894 17.8793 23.0032 17.9134 23.017C17.8059 23.3057 17.7174 23.5956 17.5391 23.8567V23.8555Z" fill="#FAFAFB"/>
<path d="M21.6119 14.4264C21.5917 14.4088 21.5576 14.3799 21.5234 14.3511C21.5411 14.3071 21.555 14.2732 21.5727 14.2293C21.4754 14.213 21.445 14.2531 21.445 14.3285C21.3982 14.2983 21.3514 14.2682 21.3148 14.2456C21.1908 14.3172 21.0821 14.3799 20.9619 14.449C20.9088 14.4439 20.8443 14.4364 20.7634 14.4289C20.6736 14.3347 20.5737 14.2306 20.4662 14.1176C20.408 14.1653 20.365 14.2029 20.322 14.2381C20.3094 14.2958 20.2992 14.3473 20.2853 14.4138C20.217 14.449 20.1424 14.4891 20.0615 14.5305C20.0539 14.4603 20.0476 14.3925 20.0387 14.3096C19.9527 14.3598 20.0046 14.4352 19.9679 14.5042C19.8971 14.5883 19.7871 14.636 19.6568 14.6485C19.5303 14.5557 19.524 14.5218 19.6113 14.3536C19.6517 14.3473 19.6973 14.336 19.7441 14.3322C19.7883 14.3285 19.8339 14.3322 19.8933 14.3322C19.9199 14.3159 19.9591 14.2908 20.0008 14.2644C20.0147 14.2042 20.0299 14.1427 20.0476 14.0686C20.0147 14.0523 19.9831 14.0372 19.9414 14.0159C19.9161 14.0824 19.8958 14.1352 19.8756 14.1904C19.7592 14.2054 19.6492 14.2155 19.5417 14.1339C19.4317 13.8841 19.4823 13.628 19.5569 13.377C19.4987 13.1536 19.3546 12.9465 19.4431 12.6992H20.1247C20.1298 12.6841 20.1589 12.6427 20.15 12.6138C20.0716 12.3841 20.0615 12.1494 20.0805 11.9134C20.1298 11.8595 20.1728 11.8707 20.217 11.9172C20.3372 12.0415 20.3852 12.1971 20.4067 12.3615C20.4459 12.6741 20.475 12.9866 20.518 13.2992C20.5294 13.3783 20.5737 13.4523 20.6015 13.5214C20.7368 13.6193 20.8658 13.7109 20.9948 13.8038V13.9055C21.0112 13.9105 21.0239 13.9205 21.0327 13.918C21.096 13.9004 21.1529 13.9017 21.2212 13.9142C21.3325 13.9368 21.4539 13.9506 21.5715 13.8891C21.5626 13.7197 21.4867 13.5728 21.4336 13.4209C21.3818 13.2716 21.2831 13.1335 21.2604 12.9816C21.2363 12.8172 21.1111 12.6979 21.0808 12.5285C21.2541 12.5134 21.273 12.7168 21.4045 12.7055C21.4652 12.8373 21.5209 12.9565 21.5867 13.0996C21.6284 13.136 21.6904 13.1912 21.7435 13.2377C21.7877 13.5063 21.8244 13.7598 21.9458 13.987C21.9597 13.9845 21.9736 13.9833 21.9875 13.9808C22.0154 13.9055 22.0432 13.8301 22.0748 13.7473C22.1823 13.7975 22.1785 13.908 22.2076 13.9908C22.2582 14.0285 22.3037 14.0624 22.3669 14.1088C22.3113 14.1276 22.2759 14.1402 22.2316 14.1552C22.1912 14.2331 22.1494 14.3159 22.1052 14.4038C22.0862 14.3623 22.066 14.3172 22.0457 14.2732C22.0647 14.2431 22.0799 14.2193 22.1001 14.1879C22.0369 14.1716 21.9787 14.1577 21.9117 14.1402C21.8876 14.1841 21.8649 14.2243 21.8421 14.2657C21.8042 14.2745 21.765 14.2833 21.7207 14.2933C21.7005 14.346 21.7384 14.4377 21.6119 14.4276V14.4264Z" fill="#FAFAFB"/>
<path d="M20.3753 24.4845C20.4537 24.2335 20.7218 23.7979 20.8483 23.7026C21.0278 23.7465 21.2112 23.7879 21.3921 23.8356C21.6399 23.9021 21.8941 23.9021 22.1471 23.9084C22.5644 23.9184 22.9703 23.8645 23.3687 23.7402C23.8189 23.6009 24.2704 23.4641 24.7219 23.3272C24.7649 23.3147 24.8091 23.3059 24.8787 23.2883C24.8407 23.3724 24.7889 23.4051 24.7383 23.439C24.3121 23.7251 23.8695 23.9837 23.4066 24.2071C23.0298 24.3892 22.6479 24.5599 22.2685 24.7356C22.0219 24.8498 21.7715 24.8599 21.5109 24.7871C21.1366 24.6829 20.761 24.5862 20.374 24.4833L20.3753 24.4845Z" fill="#FAFAFB"/>
<path d="M8.25656 8.8657C8.22874 8.93975 8.19839 9.02009 8.16298 9.11549C7.91258 9.07155 7.733 8.8431 7.4611 8.8795C7.4004 8.94352 7.31567 8.99122 7.2967 9.10544C7.42063 9.11423 7.53951 9.10544 7.64574 9.13557C7.75576 9.16695 7.8544 9.2385 7.95431 9.28996C8.00996 9.48577 7.93661 9.62259 7.80508 9.76443C7.73806 9.69665 7.66597 9.64268 7.61918 9.57238C7.50916 9.4067 7.3574 9.28619 7.20058 9.17323C7.12723 9.12051 7.02859 9.10419 6.93121 9.06653C6.91351 9.02134 6.88189 8.97365 6.8781 8.92344C6.85154 8.63223 6.67196 8.43641 6.44939 8.28704C6.1484 8.08495 5.812 7.98956 5.44399 8.05734C5.3972 8.06613 5.35041 8.06613 5.30235 8.06864C5.26694 8.06989 5.2328 8.06864 5.19106 8.06864C5.16324 8.02972 5.13668 7.99332 5.10254 7.94563C5.13795 7.8904 5.16198 7.82638 5.20877 7.78747C5.27074 7.73475 5.34535 7.68956 5.42123 7.66446C5.47687 7.64563 5.55149 7.64563 5.60713 7.66697C5.7943 7.73475 5.97894 7.81257 6.16105 7.89291C6.40765 8.00336 6.6492 8.12763 6.9173 8.18788C6.97168 8.20043 7.02606 8.23684 7.06527 8.277C7.23093 8.43892 7.4396 8.51675 7.65712 8.57574C7.78232 8.60963 7.91005 8.63599 8.03398 8.67365C8.12251 8.70126 8.21989 8.72511 8.25656 8.86319V8.8657Z" fill="#FAFAFB"/>
<path d="M20.3364 23.5845C20.1985 23.8256 20.0695 24.0515 19.9431 24.2712C19.723 24.2573 18.4774 23.9461 18.3281 23.8707C18.4306 23.5381 18.5646 23.2582 18.6885 23.1289C19.2399 23.2431 19.7825 23.4051 20.3364 23.5833V23.5845Z" fill="#FAFAFB"/>
<path d="M15.0449 25.042C15.3623 24.7985 16.6068 24.5324 17.1822 24.5788C17.2264 24.7432 17.1189 25.0683 16.933 25.3257C16.7471 25.4047 16.5461 25.3784 16.3475 25.3646C16.1237 25.3483 15.9087 25.283 15.6962 25.2127C15.5116 25.1524 15.3206 25.1148 15.1322 25.0671C15.1056 25.0608 15.0803 25.052 15.0475 25.042H15.0449Z" fill="#FAFAFB"/>
<path d="M18.1357 24.6404C18.5407 24.6831 18.9178 24.8125 19.3228 24.9494C19.1595 25.1265 19.0102 25.2885 18.8596 25.4506C18.4939 25.4192 18.1446 25.389 17.7637 25.3564C17.894 25.1014 17.9813 24.8615 18.1357 24.6416V24.6404Z" fill="#FAFAFB"/>
<path d="M23.1425 13.5182C23.1527 13.679 23.1653 13.8561 23.1767 14.0332C23.1387 14.076 23.1046 14.1149 23.0603 14.1651C23.021 14.096 22.9881 14.037 22.954 13.9742C22.8097 13.9566 22.7274 14.0734 22.6186 14.1312C22.4617 14.1111 22.4566 14.1061 22.4174 13.9051C22.5098 13.8448 22.5971 13.9189 22.7085 13.9189C22.687 13.8524 22.668 13.7946 22.6503 13.7418C22.4338 13.6275 22.2238 13.5157 22.0327 13.414C21.9631 13.2884 21.9049 13.1816 21.834 13.0535C21.834 13.0485 21.8416 13.0158 21.8466 12.9919C21.9479 12.9995 22.039 13.007 22.1554 13.0158C22.3174 13.1088 22.5022 13.2155 22.6958 13.3261H22.8831C22.9692 13.3901 23.0426 13.4441 23.1438 13.5195L23.1425 13.5182Z" fill="#FAFAFB"/>
<path d="M11.4708 16.2739C11.6999 16.3907 11.8492 16.5452 11.8872 16.7625C11.8619 16.9522 11.6645 16.9836 11.6354 17.1431C11.6113 17.2775 11.5594 17.4069 11.5164 17.5463C11.3696 17.5388 11.2494 17.471 11.138 17.4019C11.0773 17.2976 11.0558 17.1972 11.0659 17.0891C11.076 16.9786 11.0811 16.8681 11.0861 16.7575C11.0988 16.5138 11.2684 16.3945 11.4696 16.2739H11.4708Z" fill="#FAFAFB"/>
<path d="M8.40093 8.63141C8.23135 8.52213 8.05418 8.44425 7.86055 8.41034C7.79095 8.39778 7.72008 8.3915 7.65048 8.38145C7.54037 8.36512 7.42901 8.35382 7.33789 8.26212C7.48216 8.11767 7.64668 8.02095 7.83651 7.96945C7.87447 7.9594 7.9213 7.9594 7.95926 7.96945C8.17947 8.03602 8.39714 8.10762 8.61481 8.17796C8.62493 8.18173 8.63126 8.19429 8.65024 8.21564C8.59203 8.36135 8.50977 8.49827 8.39967 8.63141H8.40093Z" fill="#FAFAFB"/>
<path d="M19.4082 25.5015C19.5107 25.3608 19.6031 25.2339 19.6866 25.1184C19.9802 25.102 20.413 25.1925 20.5333 25.2905C20.3472 25.45 19.6638 25.5869 19.4082 25.5027V25.5015Z" fill="#FAFAFB"/>
<path d="M8.05054 20.6891C8.18208 20.9152 8.31994 21.1263 8.40721 21.3812C8.2314 21.3888 8.10239 21.3184 7.95947 21.2594C7.95062 21.2104 7.94177 21.1602 7.93291 21.1099C8.01512 21.022 8.13148 20.9529 8.05054 20.7896C8.0088 20.87 7.97339 20.9366 7.93418 21.0132C7.84058 20.8499 7.87473 20.5447 8.00121 20.3538C8.01892 20.4731 8.03536 20.5874 8.0518 20.6904L8.05054 20.6891Z" fill="#FAFAFB"/>
<path d="M9.98907 21.6008C9.91697 21.4953 9.83603 21.4049 9.86259 21.2541C9.91318 21.1775 9.97389 21.0858 10.0346 20.9929C10.0536 20.9627 10.0713 20.9313 10.0902 20.8999C10.1548 20.9589 10.1927 20.9929 10.2344 21.0305C10.304 21.2541 10.2091 21.4865 9.99033 21.6008H9.98907Z" fill="#FAFAFB"/>
<path d="M23.9854 18.4886C23.9398 18.5451 23.8917 18.6029 23.8424 18.6607C23.8386 18.6644 23.8323 18.6657 23.8082 18.6745C23.7728 18.6443 23.7298 18.6079 23.6981 18.5803C23.6513 18.3956 23.6437 18.2298 23.7234 18.0703C23.7374 18.0414 23.7816 18.0263 23.8183 18.0012C23.9196 18.1595 24.0132 18.3002 23.9854 18.4886Z" fill="#FAFAFB"/>
<path d="M20.2194 10.1109C20.1207 10.077 20.0422 10.0494 19.946 10.0167C19.9321 9.98408 19.9119 9.93761 19.8916 9.89239C19.9081 9.87983 19.9182 9.86601 19.9258 9.86727C20.1966 9.89365 20.4687 9.89616 20.7395 9.86727C20.78 9.94138 20.7661 9.99036 20.7079 10.0406C20.5408 10.0243 20.3725 10.0356 20.2181 10.1122L20.2194 10.1109Z" fill="#FAFAFB"/>
<path d="M29.2067 6.83893C29.1751 6.99206 29.1498 7.11633 29.1194 7.26068C29.0385 7.24562 28.9727 7.23432 28.9209 7.22428C28.8172 6.99081 28.9285 6.67952 29.1485 6.55274C29.3268 6.45107 29.5203 6.40086 29.7264 6.44228C30.0477 6.50755 30.312 6.65818 30.4751 6.9519C30.5561 7.09876 30.5624 7.2544 30.5131 7.41256C30.4473 7.6272 30.3234 7.79917 30.1413 7.93473C29.9743 8.059 29.8074 8.17197 29.5987 8.22092C29.3003 8.28996 29.0246 8.25105 28.7666 8.09163C28.7059 8.05398 28.6502 8.0113 28.5946 7.97364C28.4112 7.90963 28.2114 8.01758 28.0293 7.90586C28.047 7.87197 28.0647 7.83682 28.0799 7.80795C28.2481 7.7477 28.4352 7.78034 28.5744 7.64101C28.6161 7.66863 28.6654 7.6862 28.6907 7.72134C28.8096 7.88452 28.9942 7.9385 29.1662 8.01381C29.3079 8.07532 29.4482 8.06276 29.5937 8.00251C29.8428 7.90084 30.0312 7.72888 30.2045 7.53306C30.3246 7.3975 30.3107 7.12135 30.2159 7.00336C30.0464 6.79374 29.8428 6.64939 29.5519 6.65943C29.3888 6.66445 29.2661 6.71717 29.2067 6.84018V6.83893Z" fill="#0C1837"/>
</svg>
