<?xml version="1.0" encoding="UTF-8"?><svg id="Layer_1" xmlns="http://www.w3.org/2000/svg" viewBox="0 0 367.53 306.31"><defs><style>.cls-1{fill:#fff;}.cls-2{fill:#1e2b64;}</style></defs><path class="cls-1" d="M367.16,306c-.71,.03-1.22,.08-1.71,.08-8.15,.01-16.31,.03-24.46,.04-42.83,.05-85.68,.12-128.51,.18-2.71,0-5.43-.17-8.14-.15-56.49,.05-112.99,.14-169.48,.16-10.93,0-21.87-.18-32.8-.29-.51,0-1.02-.04-1.67-.07-.06-.54-.17-1.01-.17-1.49,.04-48.04,.11-96.07,.12-144.11,0-22.54-.08-45.08-.14-67.63,0-1.96-.19-3.92-.21-5.89,0-1.66,.21-3.33,.21-4.99V0C17.87,.29,35.31,.07,52.76,.11c17.47,.03,34.94,.01,52.42,.01h52.42c17.42,0,34.82-.01,52.23-.03h104.85c17.46,0,34.9,.03,52.55,.04,.03,1.08,.07,1.96,.07,2.84,.08,29.22,.21,58.43,.22,87.65,.03,63.97,0,127.92-.01,191.89,0,7.38-.12,14.76-.19,22.14,0,.37-.07,.75-.12,1.32l-.03,.03Z"/><path class="cls-2" d="M84.52,194.3c.82-.32,.75-1.14,1.01-1.77,1.2-2.9,2.38-5.8,3.57-8.7,.06-.14,.26-.23,.65-.54-.22,1.51-.72,2.63-1.23,3.74-1.31,2.87-2.38,5.82-2.92,8.93-.33,1.95-.5,3.94-.68,5.91-.14,1.47-.19,2.94-.28,4.4,0,.19-.07,.38-.04,.58,.4,2.81-.17,5.61-.03,8.41,.19,3.7,.3,7.42,.44,11.15,.94,.48,1.73,.26,2.27-.48,.59-.82,1.19-1.7,1.51-2.65,1.34-4.01,2.63-8.04,3.83-12.1,1.01-3.38,2-6.75,2.75-10.18,.59-2.74,.83-5.57,1.17-8.35,.3-2.41,.41-4.83,1.06-7.2,.64-2.28,1.67-4.31,3.26-6.04,1.29-1.4,2.2-2.99,3.05-4.83-.86-1.14-1.73-2.3-2.61-3.46-.32-.43-.64-.82-.18-1.44,1.26,0,2.17,.88,3.3,1.45,.57-.55,.62-1.25,.64-1.93,.06-2.29,1.05-4.05,2.99-5.31,.97-.63,1.84-1.41,2.79-2.06,.46-.32,1.01-.51,1.56-.78,.43,.34,.79,.59,1.11,.89,1.22,1.15,2.39,2.35,3.62,3.48,1.15,1.07,2.11,2.32,2.6,3.77,.69,2.11,1.89,4.01,2.31,6.28,.39,2.09,1.56,4.02,2.42,6.11-.3,.44-.64,.9-1,1.41-.48,.08-.97,.16-1.53,.25-.76,2.99-.47,5.98-.47,8.94,2.53,0,7.34-3.07,9.26-5.8,1.11,0,2.18,.01,3.26-.01,.15,0,.29-.23,.24-.18,.69,.12,1.23,.3,1.77,.32,1.42,.04,2.85-.04,4.27,.03,2.13,.08,4.26,.22,6.37,.41,.52,.04,1.04,.34,1.85,.63-.53,.43-.79,.81-1.08,.84-2.25,.2-4.51,.48-6.76,.48-2.12,0-4.24-.28-6.36-.43-.64-.04-1.31-.19-1.71,.44-.37-.18-.73-.36-1-.48-3,1.66-5.86,3.25-8.78,4.87-.42-.15-.89-.3-1.44-.49-.25,.91-.47,1.69-.65,2.33,.1,1.14,.19,2.13,.28,3.07,3.26-2.18,6.59-4.42,10.09-6.75,0-.26,.04-.75,.08-1.67,.46,.74,.69,1.14,1.04,1.7,4.15-.6,8.38-1.22,12.6-1.84-1.65,1.11-3.54,1.14-5.35,1.5-2.89,.59-5.89,.73-8.65,1.92-3.47,1.49-6.48,3.66-9.26,6.21-.06,.33-.15,.64-.14,.96,.17,4.49,.37,8.97,.5,13.47,.14,4.55,.31,9.11,.28,13.66-.03,4.29-.28,8.59-.44,12.88-.01,.49-.17,.97-.55,1.45-.04-.43-.1-.86-.12-1.29-.03-.45-.06-.89-.07-1.34-.08-1.66-.25-3.32-.24-4.98,0-1.28,.19-2.55,.36-3.81,.47-3.58,.33-7.16,.1-10.75-.03-.32-.07-.63-.08-.96-.18-4.42-.21-8.86-.57-13.26-.51-6.48-.18-12.96-.3-19.44-.03-1.61-.32-3.04-1.77-4.58-1.27-.59-2.94-1.39-4.71-2.21-1.33,.92-2.74,.56-4.15-.08-.53-.25-1.06-.47-1.6-.67-1.15-.44-2.28-.34-3.37,.21-2.54,1.26-4.29,3.21-5.31,5.86-.88,2.31-1.31,4.71-1.48,7.12-.4,5.91-1.69,11.65-3.37,17.3-.64,2.14-1.15,4.33-1.87,6.45-1.11,3.27-2.36,6.5-3.54,9.74-.07,.18-.1,.36-.17,.58,.98,.73,1.94,1.46,2.93,2.19,1.66-1.04,2.6-2.59,3.83-3.98-.72-1.56-2.39-2.59-2.53-4.44,.43-.4,1.02-.73,1.29-1.23,3.34-6.1,6.12-12.41,7.2-19.37,.29-1.88,.48-3.8,1.52-5.78,.19,.49,.43,.8,.43,1.1-.03,1.61-.11,3.2-.19,4.8-.01,.32-.08,.63-.1,.96-.18,4.61-.36,9.23-.52,13.84-.07,1.92-.24,3.84-.21,5.76,.04,3.59,.07,7.19,.35,10.77,.25,3.05,.65,6.1,1.58,9.07,.46,1.47,.72,2.98,1.11,4.47,.21,.8,.5,1.58,.75,2.32,3.21,1.84,6.52,3.03,10.08,3.53,.95,.14,1.98-.19,3-.3-.07,1.02-1.01,1.11-1.7,1.7-.84,5.4-1.52,10.97-2.83,16.37-3.97,.41-8.07-.18-12.19-1.7-.11-.66-.24-1.33-.35-1.97-.36-.33-.68-.62-1.04-.96-.21-2.62-.33-5.25-.65-7.86-.3-2.51,.03-5.1-1.04-7.65-.25,.38-.41,.63-.5,.77-3.52-.7-6.99-1.4-10.48-2.07-.36-.07-.75,.04-1.31,.08,.06,1.25,.11,2.4,.17,3.55-.83-.33-.93-.89-.97-1.51-.4-4.72-.83-9.45-1.23-14.17-.15-1.85-.22-3.72-.44-5.56-.19-1.65-.51-3.28-.86-4.9-.07-.33-.44-.59-.69-.88,.04-.52,.11-1.08,.11-1.65-.01-3.28-.06-6.54-.07-9.82,0-.9,.04-1.81-.79-2.66-1.47-.52-3.1-1.1-5.02-1.77-.5,.32-1.23,.78-1.85,1.18-.32,1.55,.41,2.7,.72,3.92,.32,1.24,.69,2.47,1.19,3.63,.5,1.18,1.2,2.26,1.8,3.4,.58,1.08,1.13,2.18,1.88,3.59-3.39-.44-6.36-.85-9.34-1.22-1.98-.25-3.97-.45-5.96-.66-1.29-.12-2.57-.27-3.86-.3-5.92-.12-11.69,.84-17.37,2.4-4.34,1.19-8.62,2.62-12.98,3.83-4.52,1.26-9.07,2.48-13.64,3.51-3.25,.73-6.59,1.11-10.1,1.69-.03-.84-.07-1.52-.07-2.21,.04-36.93,.1-73.86,.14-110.79,0-5.53-.03-11.04-.08-16.57,0-.95-.23-1.88-.35-2.69-2.29-1.73-4.28-3.42-5.68-5.73-1.33-2.21-1.41-4.35-.18-6.56,1.44-2.58,2.92-5.14,5.36-6.97,.84-.63,1.15-1.55,1.13-2.55-.03-2.25-.12-4.49-.15-6.74-.04-3.02-.08-6.04-.08-9.05,0-17.34,.03-34.68,.06-52.02,0-.62,.1-1.23,.15-1.89,74.61,0,149.02-.15,223.42,.05,42.49,.12,84.97,0,127.61,.15,.05,.51,.17,1,.17,1.48-.01,15.09-.05,30.18-.08,45.27v5.89c1.3,2.03,2.6,3.73,3.57,5.6,2.1,4.09,2.07,8.12-.82,11.92-.86,1.12-1.74,2.22-2.65,3.37V227.49c-.22,.14-.32,.27-.43,.26-4.06-.08-8.14-.05-12.2-.27-9.15-.48-17.83-3.18-26.58-5.61-5.71-1.58-11.43-3.09-17.22-4.34-2.94-.63-6.03-.64-9.04-.89-1.67-.14-3.35-.19-5.18-.3-2.9,2.92-5.28,6.31-7.82,9.88,1.85-.18,3.46-.29,5.05-.49,3.75-.48,7.48-.38,11.21,0,8.6,.86,16.82,3.25,24.99,5.84,6.7,2.11,13.46,4.01,20.37,5.32,5.06,.97,10.12,1.26,15.2,.18,.32-.07,.64-.08,.97-.1,.25,0,.51,.03,.84,.04,.55,1.3,.15,2.65,.21,3.96,.05,1.27,0,2.57,0,3.96-.58,.19-1.11,.47-1.66,.52-4.77,.52-9.49,.6-14.28-.16-6.77-1.1-13.34-2.92-19.86-4.95-6.46-2.02-12.83-4.35-19.49-5.65-2.52-.49-5.09-.77-7.64-1.1-1.15-.15-2.32-.29-3.47-.27-6.91,.12-13.79,.48-20.4,2.87-3.5,1.26-6.57,3.26-9.59,5.36-4.81,3.35-9.56,6.79-14.54,9.89-3.59,2.25-7.5,3.99-11.26,5.98-.71,.37-1.63,.49-1.98,1.69,.52,.11,1.01,.33,1.45,.26,2.6-.43,5.24-.74,7.78-1.41,3.29-.88,6.52-2.04,9.76-3.14,4.34-1.47,8.69-2.89,12.98-4.49,4.69-1.73,9.52-2.77,14.4-3.69,5.25-.99,10.55-1.04,15.85-.7,2.63,.17,5.22,.81,7.82,1.25,6.38,1.1,12.52,3.04,18.67,4.99,6.59,2.07,13.27,3.74,20.11,4.83,4.2,.67,8.36,.4,12.51-.47,.82-.17,1.63-.34,2.45-.52,.47,1.19,.57,5.67,.21,8.34-.1,.08-.19,.21-.3,.22-3.87,.66-7.74,1.62-11.69,1.3-2.82-.22-5.61-.82-8.42-1.26-5.69-.91-11.11-2.77-16.57-4.54-5.09-1.65-10.19-3.28-15.34-4.69-3.98-1.08-8.04-1.88-12.22-1.82-.7,0-1.41-.22-2.11-.19-3.48,.11-6.99,.08-10.45,.47-6.79,.73-13.14,3.13-19.53,5.38-6.99,2.46-13.96,5.02-21.2,6.72-5.65,1.33-11.35,1.62-17.07,.25-2-.48-4.02-.91-6.04-1.35-.73,.28-1.48,.52-2.17,.84-2.6,1.17-5.42,1.06-8.15,1.47-.82,.12-1.65,.26-2.71,.42,3.33,2.11,6.73,3.24,10.26,4.03,4.41,.99,8.83,1.96,13.34,2.33,5.29,.44,10.56,.47,15.81-.59,6.08-1.22,12.12-2.54,17.95-4.64,2.97-1.07,5.91-2.21,8.9-3.25,4.7-1.65,9.54-2.67,14.53-3.09,3.18-.26,6.33-.15,9.48,.14,2.89,.26,5.75,.77,8.61,1.28,7.9,1.4,15.45,4.09,23.1,6.43,5.67,1.73,11.4,3.21,17.33,3.91,4.48,.54,8.89,.54,13.25-.74,.42-.12,.87-.07,1.29-.11,.4,1.61,.37,6.8-.06,8.35-.64,.11-1.33,.27-2.02,.32-3.93,.25-7.81,.67-11.79,.41-7.26-.49-14.02-2.73-20.79-5.03-5.56-1.88-11.11-3.76-16.68-5.58-3.82-1.25-7.75-1.81-11.78-2.04-3.25-.19-6.48-.1-9.68,.21-3,.29-6.01,.86-8.9,1.73-4.93,1.47-9.77,3.28-14.66,4.92-3.91,1.32-7.78,2.77-11.89,3.43-3.05,.49-6.1,1.06-9.22,1.04-3.3-.01-6.61,.1-9.9-.07-6.58-.34-13.1-1.17-19.45-3.05-6.48-1.92-13.05-3.58-19.7-4.88-1.2-.23-2.43-.36-3.65-.42-6.4-.36-12.8-.7-19.2-.4-4.45,.21-8.8,1.19-13.07,2.47-5.5,1.63-10.97,3.31-16.49,4.87-4.52,1.29-9.12,2.25-13.78,2.95-1.91,.29-3.86,.37-5.79,.43-3.11,.08-6.21,.01-9.32,.07-4.23,.07-8.33-.71-12.4-1.8-6.25-1.66-12.26-3.98-18.26-6.31-3.37-1.32-6.77-2.51-10.38-2.99-.9-.12-1.81-.1-2.71-.15-6.61-.41-12.96,.82-19.25,2.76-5.6,1.73-11.15,3.62-16.92,4.75-1.77,.34-3.55,.62-5.35,.81-2.11,.23-4.24,.4-6.36,.51-3.29,.18-6.58,.29-9.87,.41-.64,.03-1.29,0-2.02,0-1-2.61-.33-5.24-.64-7.89,.53-.08,.88-.19,1.26-.21,6.45-.19,12.92-.54,19.29-1.65,4.17-.73,8.28-1.89,12.41-2.92,4.31-1.07,8.58-2.37,12.94-3.29,5.65-1.18,11.4-1.41,17.17-.81,7.15,.76,13.77,3.32,20.39,5.87,4.02,1.55,8.02,3.2,12.27,4.07,5.09,1.04,10.17,1.55,15.38,1.14,4.64-.37,9.26-.88,13.83-1.69,6.8-1.21,13.49-2.89,19.99-5.3,1.63-.6,3.3-1.11,4.93-1.69,.77-.28,1.52-.63,2.75-1.15-.94-.29-1.44-.45-1.93-.59-2.81-.73-5.61-1.43-8.4-2.2-.68-.18-1.29-.56-1.96-.86-9.36,3.29-19,5.34-29.15,5.73-.28-2.78,.08-5.36,.39-8.02,4.86-.78,9.87-.51,14.84-2.24-4.3-2.39-8.82-3.88-11.62-7.75,.51-2.37,1.46-4.54,.66-6.97,.3-.16,.59-.45,.94-.52,7.48-1.65,14.93-3.39,22.28-5.51,4.08-1.18,8.13-2.48,12.2-3.65,5.34-1.54,10.73-2.8,16.28-3.12,2.57-.15,5.15,.12,7.73,.19,.83,.03,1.66,0,2.61,0,1.11-2.58,2.39-5.05,2.79-7.9,.55-3.99,1.34-7.94,2-11.92,.3-1.82,.46-3.69,.77-5.51,.35-2,.83-3.98,1.22-5.98,.11-.56,.25-1.19,.1-1.71-.41-1.48-.25-2.88,.15-4.34,.37-1.34,.4-2.79,.76-4.13,1.38-5.02,1.04-10.15,1.2-15.26,.08-2.35,.19-4.71,.32-7.05,.03-.56,.22-1.12,.29-1.49,0-1.01,.04-1.84,0-2.65-.04-.69-.18-1.37-.3-2.06-.37-2.1-.68-4.16-.36-6.34,.29-1.95,.05-3.97,.05-5.84-.3-.64-.54-1.18-.75-1.63,0-1.85-.22-3.59,.4-5.39,.37-1.08,.21-2.4,.06-3.58-.19-1.63-.61-3.25-.94-4.94,.95-1.6,1.22-3.28,.21-4.98-.82,.11-1.49,.21-2.23,.32-.51-2.08-.98-4.05-1.45-5.99h-.36c-.11,.43-.29,.82-.3,1.24-.07,2.03-.03,4.07-.15,6.1-.05,.95-.3,1.92-.66,2.78-.72,1.76-.8,3.55-.8,5.39,0,.7,.17,1.55-.88,2.06-1.41-4.14-1.65-8.35-1.92-12.72-.43-.15-.87-.3-1.48-.52-.42,.47-.8,.88-1.29,1.41,.17,.78,.35,1.58,.51,2.36,.05,0,.11-.03,.16-.04,.21,2.74,.33,5.5,.65,8.23,.32,2.72,.83,5.42,1.24,8.03-1.04,1.48-1.27,3.06-1.59,4.62-.19,.97-.22,2.02-1.22,2.95-.65-1.58-.91-3.07-.87-4.58,.07-2.2-.47-4.31-.9-6.42-.17-.85-.95-1.59-1.6-2.28-.58-1.81-1.15-3.62-1.74-5.42-.03-.07-.22-.08-.39-.14-1.13,.7-.43,2.04-1.09,2.89,1.15,2.32,1.02,4.79,1.37,7.18,.14,.93,.19,1.88,.33,2.81,.44,2.98,.94,5.94,1.35,8.92,.08,.62-.04,1.26-.08,1.99-.55,.37-1.06,.71-1.76,1.17-.42-.48-.94-.84-1.11-1.32-.4-1.12-.62-2.3-.93-3.46-.18-.67-.37-1.34-.58-2.1,.11-.16,.28-.44,.48-.77-.19-.15-.39-.3-.61-.48-.95,1.32-1.88,2.58-2.81,3.87,.06,.33,.03,.69,.17,.95,.82,1.44,.88,2.99,1.08,4.6,.26,2.09,.57,4.32,2.16,6.06-.08,.51-.16,1-.23,1.47,.37,.49,.72,.95,1.31,1.74-.72-.25-1.09-.37-1.8-.6,.39,.78,.61,1.26,.86,1.77-.33,.86-.65,1.73-1.05,2.78-.5-1.17-.97-2.25-1.46-3.42-.83,.45-.93,1.07-1.01,1.76,.22,.41,.46,.85,.73,1.36-.47,.29-.88,.53-1.38,.84-.04,.89-.08,1.78-.12,2.73-.37,.04-.73,.1-1.23,.15-.5-1.01-1.01-2.04-1.56-3.17,.04-.73,.08-1.54,.14-2.54,.62,.32,1,.51,1.56,.78,.51-1.08,1-2.1,1.54-3.26-1.24-1.3-.18-3.53-1.98-4.82-1.33,1.43-.97,3.03-.62,4.54,.22,.96,.28,1.74-.72,2.51-.48-.33-1-.66-1.62-1.07h-1.37c-1.2-1.72,.33-3.51-.17-5.21-.62-.25-1.16-.45-1.7-.67-1.02-1.17-2.04-2.32-1.75-4.38,.57,.73,.91,1.17,1.44,1.84,.44-1.84-.83-2.35-1.7-3.11,.04-.38,.07-.75,.11-1.14,.44-.12,.8-.22,1.23-.34-.17-.19-.3-.37-.59-.73,.44-.3,.87-.59,1.31-.88,.59,.36,1.05,.64,1.49,.9,.62-.75,.17-1.25-.26-1.84,.19-.23,.4-.47,.65-.77,.26,.45,.41,.71,.61,1.04,1.11-.19,1.24-1.11,1.66-1.99-1.2-.44-2.53-.55-2.9-1.99-.47-.15-.95-.29-1.56-.48,.22-.58,.43-1.06,.68-1.69-.72-.18-1.31-.33-1.91-.47-.03-.25-.06-.42-.1-.73,.79-.15,1.55-.3,2.39-.48,.17,.43,.33,.81,.51,1.26,.21-.11,.43-.15,.5-.27,.24-.45,.41-.93,.64-1.46,.43,.08,.79,.17,1.24,.26,.28-.34,.58-.74,.88-1.11-.37-.63-.69-1.18-1.04-1.76,.3-.29,.58-.55,.91-.86-.35-.43-.69-.85-1.04-1.26-.12,.07-.25,.15-.37,.22-.07,.45-.12,.91-.21,1.47-.9-.04-1.77-.08-2.29-.11-1.2,.25-1.35,1.8-2.97,1.14,.57-.26,.86-.4,1.23-.58,.22-.58,.47-1.19,.73-1.85-.12-.26-.28-.54-.51-1-.37,.52-.66,.93-.97,1.36-.11-.11-.28-.22-.26-.27,.15-.74,.4-1.47-.04-2.22-.08-.15,.22-.52,.4-.93,.35,.26,.6,.44,.82,.62,.25-.27,.5-.55,.8-.89,.43,.19,.82,.36,1.26,.55,.57-1.58,1.12-3.15,1.8-5.06-.07-.12-.32-.63-.54-1.06,.08-1.88,.87-3.43,1.95-4.79,1.1-1.41,1.55-3.03,1.95-4.55-.31-1.45-1.74-.07-2.17-1.03-.84,1.8-2.31,2.85-4.17,3.42-.95-.07-1.91-.14-3.01-.22-.24-.38-.53-.85-.75-1.21-1.18-.1-2.23-.19-3.57-.3-.83,.95-2.1-.11-3.34,.08,3.4-3.36,6.3-7.05,9.4-11.03-.76,.1-1.22,.17-1.99,.28-1.87,1.97-3.88,4.1-5.89,6.24-.35,.37-.72,.75-.95,1.21-.84,1.56-2.09,2.76-3.55,3.89-.73,.1-1.55,.21-2.42,.33-.97-.33-1.99-.67-3.16-1.07-1.08,.99-2.2,2-3.37,3.07-.41-.67-.76-1.25-1.19-1.96,1.67-2.07,3.43-4.24,5.1-6.31h1.45c.5-1.33,2.1-1.87,2.79-3.49-.66,0-1.15-.12-1.49,.03-.76,.33-1.51,.75-2.17,1.25-1.44,1.07-2.82,2.21-4.1,3.21-1.88,2.24-3.57,4.49-5.51,6.5-.88,.91-2.2,1.56-3.83,1.14,2.03-2.81,4.92-4.93,6.18-8.44-.98-.97-2-1.99-3.05-2.99-.06-.06-.33,.1-.61,.19,.3,.54,.58,1.01,.97,1.67-.76,1.07-1.53,2.15-2.31,3.24-1.56,2.19-3.03,4.47-4.73,6.57-1.63,2.02-3.8,3.4-6.33,4.17-1.93,.59-3.87,.93-5.87,.28-.6-.19-1.12-.33-1.08-1.24,.32-.18,.69-.38,1-.55,.58,.26,1.08,.49,1.67,.77,.58-.53,1.09-1,1.6-1.47-.14-.54-.25-.96-.37-1.43-.54-.36-1.06-.7-1.7-1.12,.15-.55,.3-1.08,.44-1.58,1.02-.48,1.95-.91,2.88-1.33,.54-.25,.8-.62,.58-1.37-.42-.17-.91-.36-1.42-.56,.04-.27,0-.55,.12-.62,.51-.37,1.02-.85,1.6-.99,1.8-.44,3.63-.71,5.46-1.1,1.31-.27,2.63-.6,3.54-.81,1.55-1.29,2.76-2.31,4.01-3.33-.53-1.11-1.01-2.13-1.54-3.22h-1.34c-.07,.36-.12,.7-.22,1.19-.37-.04-.75-.1-1.3-.17,.75-1,1.33-1.81,1.99-2.7-.12-.52-.26-1.14-.39-1.67,.93-2.09,2.82-3,5.24-2.77,1.96,.19,3.8,.85,5.51,1.66,1.81,.85,3.34,.45,4.99-.17,.58-.22,1.2-.34,1.65-.47,2.28,1.3,4.4,2.37,7.04,1.74-.26-1.11-1.36-1.32-2-1.92-.65-.6-1.47-1.06-2.24-1.48-.5-.27-1.06-.45-1.62-.58-2.34-.52-4.6-1.21-6.68-2.55,.14-.16,.25-.4,.39-.41,1.91-.22,3.52-1.17,5.07-2.17,1.16-.75,2.42-.92,3.7-.82,2.11,.16,4.22,.45,6.32,.74,.99,.14,1.96,.44,2.92,1,.93-.16,1.84-.32,3.11-.54-.68-.73-1.08-1.15-1.53-1.65,.08-.26,.17-.56,.29-.96,1.62,.36,3.14,.81,4.7,.99,1.52,.16,3.08,.04,4.84,.04,.22-.27,.58-.7,.97-1.15-.44-1.04-.86-2.04-1.22-2.91-1.11-.62-2.05-1.15-3-1.67-.06-1.63-1.8-1.84-2.42-2.98h-2.1c-2.56-.53-4.4-2.19-6.5-3.73-.28-.49-.64-1.17-.99-1.81,.3-1.06,1.46-.73,2.1-1.39,.11-.63-.17-1.14-.77-1.54-1.51-.05-1.77,1.55-2.85,2.09-1.01,.51-1.89,1.23-2.85,1.87-.7-.51-1.27-.92-1.92-1.37-.39,.21-.77,.4-1.15,.63-1.46,.93-2.92,1.89-4.4,2.81-.37,.23-.86,.47-1.26,.43-1.55-.12-2.71,.8-3.94,1.45-.68,.37-1.15,1.15-1.65,1.81-.65,.85-1.38,1.3-2.47,.92-.07-1.61,.6-2.92,1.52-4.06,.87-1.07,1.92-2.02,3.01-3.16-.29-.58-.59-1.19-.88-1.81-.37-.81-.77-1.62-1.05-2.46-.29-.88-.07-1.65,.82-2.07,1.58-.3,2.23,1.14,3.39,1.71,.73-.69,1.02-1.5,1.06-2.41,.04-1.15,.51-2.11,1.4-2.85,1.17-.99,1.77-2.55,3.26-3.22,.24-.11,.46-.22,.84-.41,1.96,.89,3.99,1.81,6.03,2.73,.69-.19,1.3-.36,2.07-.56,.07-.77,.12-1.51,.18-2.17-.58-1.06-1.42-1.88-1.12-3.4,.54-.36,1.26-.84,1.88-1.25,2.31,.93,3.51,2.62,4.24,4.68,.36,1.02,.93,1.84,1.77,2.14,.75,1.18,1.38,2.18,2.18,3.44,.62-2.17-.18-3.54-1.41-4.79,.68-1,1.48-1.88,1.89-2.89,.42-1.02,.44-2.19,.66-3.42-1.11-.32-2.03-.58-2.9-.82-.62-.78-1.22-1.52-1.81-2.28-.08,.1-.17,.19-.26,.29-.28-.71-.55-1.41-.76-1.96-.88-.78-1.8-.81-2.71-.8h-2.69c-.54-.77-1.01-1.43-1.46-2.07,.59-.74,1.12-1.41,1.62-2.03-.57-.95-1.17-.8-1.75-.43-2.1,1.37-4.48,1.84-6.9,2.24-.48,.08-.97,.29-1.42,.49-.57,.25-1.11,.58-2.03,.16,.7-.6,1.27-1.07,1.95-1.63-.03-.38-.05-.86-.08-1.55-.86-.18-1.66-.44-2.46-.48-.75-.04-1.52,.15-2.32,.26-.53-.56-.98-1.07-1.4-1.54,.44-.92,1.15-1.06,1.84-1.18,2.92-.51,5.83-1.08,8.76-1.51,1.51-.22,3.06-.16,4.37-.22,2.54-.81,4.93-1.54,7.32-2.32,.87-.29,1.67-.22,2.42,.26,1.58,.99,3.21,1.92,4.66,3.09,.93,.74,1.58,1.82,2.31,2.8,.54,.73,1,1.51,2.09,1.74,.03,0,.16,.03,.28,0,2.43-.7,3.11-.36,3.84,2.02,.15,.48,.22,1,.32,1.5,.21,1.07,.33,1.26,1.45,2.07,.62-.47,.43-1.19,.44-1.78,.07-2.95,.01-5.9,.12-8.83,.08-2.17,.32-4.32,1.37-6.32,.62-1.18,1.42-2.11,2.46-2.91,.44-.34,.86-.77,1.19-1.22,.73-.96,1.6-1.71,2.81-1.91,2.32-.37,4.59-1.11,6.97,.11,1.15,.59,2.63,.59,3.97,.71,1.91,.18,3.83,.25,5.74,.36,.25,.01,.5,.08,.84,.15,.08,.36,.17,.7,.26,1.07-1.08,.97-2.27,1.23-3.62,1.19-1.35-.05-2.72-.04-3.77,1.07-.19,.21-.58,.33-.88,.36-1.7,.15-3.41,.25-5.34,.38,.12,1.21,.29,2.47,.37,3.74,.04,.63,.08,1.32-.87,1.63-.18-.44-.36-.86-.55-1.32h-.77c.35-1.03,.69-2.02,1.02-2.99-.61-.66-1.15-.78-1.78-.16-.26,1.45-.68,2.94-.77,4.43-.1,1.5,.11,3,.19,4.46-.36,.53-.58,1.14-1.01,1.48-1.76,1.43-1.81,3.4-2.03,5.39-.22,1.96-.66,3.9-1.04,5.91,.48,.74,1,1.54,1.45,2.24-.22,1.15-.41,2.15-.64,3.31-.46,.62-1.74,.78-1.63,2.14,.47,1.14,2.24,1.44,2.42,2.99v2.39c.11,.03,.24,.05,.35,.08,.19-.48,.47-.95,.57-1.44,.5-2.78,2.72-4.73,3.5-7.72,.48,.69,.75,1.07,1.09,1.55,.35-1.21-.46-1.92-.69-2.4,.22-1.34,.39-2.39,.62-3.87,.17-.25,.59-.88,1.1-1.62,.89,.95,.84,1.98,.43,2.87-.79,1.74-.65,3.42,0,5.16,.4,.22,.79,.44,1.27,.71,.91-.7,2.35-.32,3.12-1.39-.07-.16-.08-.25-.11-.27-.69-.62-2.09-.71-2.05-1.84,.04-1.23,.25-2.66,.91-3.64,.89-1.29,1.47-2.68,2.18-4.02,.21-.4,.44-.78,.62-1.1,.29-.86-.26-1.88,.86-2.69,.19,.74,.35,1.32,.57,2.13,.33,.43,.8,1.03,1.34,1.71,.35-.14,.82-.16,.99-.41,.62-.86,1.13-1.81,1.55-2.81,1.63-1.04,1.44-3.46,3.14-4.38,1.46,.08,1.88,1.33,2.61,2.06,1.3,.08,1.2-1.33,2.18-1.7,.25,.12,.58,.29,.9,.47,.28,.16,.54,.34,.84,.53,.22,.58,.44,1.18,.69,1.85,.36,.26,.77,.56,1.11,.8,.99,1.14,.8,2.98,2.43,3.58,.84-.44,1.66-.82,2.42-1.28,1.69-1,3.55-1.06,5.43-1.1,1.01-.01,2.03-.01,3.04-.11,.43-.04,.84-.3,1.15-.43,1.2,.1,2.28,.19,3.47,.29v1.36c.77,.6,1.6,1.28,2.4,1.91,3.55,.09,5.68,.56,6.41,1.4-.55,.22-1.06,.41-1.52,.59-.57-.23-1.05-.43-1.55-.62-.35,.1-.7,.19-1.08,.29-.55-.23-1.08-.47-1.67-.71-.77,.66-1.52,1.3-2.27,1.95-1.42-.51-2.68-.97-4.01-1.45-.58,.21-1.24,.43-1.85,.63-.93-.3-1.77-.59-2.49-.82-1.22,.7-2.27,1.29-3.26,1.87-.57-.11-1.07-.19-1.38-.26-1.24,.63-2.32,1.17-3.26,1.66-.84-.25-1.45-.43-2.27-.67-1.13,.58-2.36,1.25-3.65,1.84-.5,.23-1.09,.26-1.75,.41-.11,.21-.26,.47-.44,.75,.29,.15,.51,.27,.69,.37-.84,.3-1.74,.54-2.54,.95-1.37,.7-1.42,.95-.94,2.24,.51-.08,1.05-.15,1.82-.26-.32,.75-.17,1.52-1.09,1.93-.22-.36-.44-.71-.66-1.06-.62-.15-1.26-.29-1.96-.45-.76,.32-1.59,.64-2.47,1.02-.22,.33-.47,.69-.76,1.11-1.89-.66-3.11,1.25-4.95,1.08,.05,.38,.08,.62,.12,.93,.4-.07,.71-.11,1.13-.19,.17,.41,.33,.86,.52,1.34h1.05c.18-.66,.35-1.3,.55-2.1,.61,1.73,.61,1.76-.53,3.98,.33,.75,.64,1.43,.99,2.25-.59,.1-1.01,.15-1.24,.19-.94-.7-1.74-1.28-2.31-1.7h-3c-.11,.34-.25,.78-.48,1.5,.61-.12,.94-.19,1.33-.27,.46,.26,.99,.56,1.6,.91,.28,.56,.58,1.19,.87,1.78-.12,.55-.24,1.03-.36,1.59,.51,.41,.99,.81,1.51,1.23,.39-.03,.76-.04,1.19-.07,.37-.63,.72-1.22,1.13-1.92,.51-.34,1.09-.73,1.73-1.17,.48,.15,.95,.3,1.44,.44,1.09-.41,2.17-.82,3.25-1.22,.99-1.11,1.12-3,3.22-3.31,.5,.47,1.09,1.02,1.76,1.63-.25,.49-.47,.93-.77,1.52,.46,.07,.83,.12,1.29,.19,.35-1.91,1.45-2.8,3.26-3.1,1.12-.18,2.18-.74,3.29-1.08,1.09-.34,2.13-.8,3.36-.67,.79,.08,1.63-.32,2.61-.55,.82,.33,1.75,.71,2.67,1.08,.14,.75,.25,1.37,.37,2.07,1.66,.49,3.26,1.45,4.78-.01,.25,.01,.41-.03,.5,.04,1.75,1.26,3.87,1.15,5.85,1.54,1.53,.3,2.85,1.04,4.12,1.89,.03,.6,.05,1.1,.08,1.74-.53,.41-1,.99-1.62,1.25-1.84,.77-3.7,1.48-5.6,2.09-1.09,.34-2.27,.63-3.39,.59-1.89-.07-3.48,.91-5.24,1.23-.72,.14-1.46,.19-2.36,.32-1.13,.82-2.45,1.77-3.72,2.7,.18,.41,.26,.6,.39,.89-.43,.21-.8,.48-1.22,.59-1.6,.45-3.22,.89-4.85,1.25-.84,.18-1.56,.45-2.25,.99-.58,.45-1.4,.6-2.17,.91-.11,.49-.21,.97-.29,1.36-1.48,.33-2.92,.6-4.16,1.59,.4,1.44,1.59,2.11,2.58,2.79,1,.67,1.91,1.29,2.24,2.39,.66,.29,1.19,.52,1.52,.66,1.7-.33,3.21-.62,4.77-.92,.8,.49,1.59,.99,2.39,1.48-1.88,.14-3.75-.75-5.42,.84,.26,.52,.51,1,.82,1.62-.68,.14-1.27,.26-1.91,.38-.86,1.29-.26,2.35,.58,3.28,1.6,1.77,3.47,3.17,5.81,3.95,1.69,.56,3.32,1.3,5.04,1.99,.95,3.16,2.78,5.5,5.89,6.8,.69-.32,1.38-.63,2.06-.93-.23-.58-.73-.99-1.51-1.23-.46-.59-.94-1.19-1.44-1.82-.04-.43-.08-.86-.14-1.41,.25-.37,.54-.77,.86-1.23-.3-.62-.61-1.22-1.08-2.17,1.77,.66,1.95,2.59,3.55,2.98,.26-.18,.58-.38,.99-.66,.51,.48,.95,1.47,2.1,.7,.1-.49,.21-1.1,.33-1.81,1.04,.1,1.63,.91,2.56,1.35-.4,.59-.76,1.1-1.16,1.7,.48,.41,.9,.77,.98,.85,1.34,3.1,2.51,5.83,3.73,8.56,.11,.23,.46,.37,.94,.74,.9-4.14,2.02-7.94,4.31-11.29,1.7,.19,2.96-1.65,4.59-.36,1.8-1.4,3.5-2.81,5.29-4.08,1.69-1.17,3.57-2.03,5.31-2.41,1.99,.7,3.75,1.29,5.49,1.93,.83,.3,1.77,.51,2.14,1.5-.15,.74-.86,.74-1.37,.84-1.06,.22-2.18,.49-3.25,.4-1-.1-1.81,.14-2.57,.59-3.32,1.96-6.59,3.98-9.87,6.01-.64,.4-1.16,.99-1.73,1.47v2.18c.48,.41,.9,.79,1.31,1.14-.83,1.91-1.73,3.72-1.71,5.86-.3,.56-.7,1.19-.99,1.87-.1,.23,.04,.56,.07,.84,.25,.01,.41,.08,.48,.03,1.42-1.18,2.83-2.4,4.26-3.57,.9-.74,2.05-.69,3.12-.82,.62-.08,1.24-.23,1.87-.26,.69-.03,1.4,0,2.09,.11,.62,.11,1.22,.38,1.99,.63,1.34-.59,2.75-1.19,4.26-1.87,.61,.12,1.35,.28,2.31,.45-.26,.67-.48,1.22-.77,1.93,.5,.4,1.02,.84,1.58,1.29,.23,.48,.48,.97,.79,1.58,.47-.3,.82-.52,1.37-.86,.87,.62,1.81,1.26,2.72,1.95,1.08,.8,2.11,1.67,3.23,2.43,.83,.56,1.48,1.24,1.8,2.17-.68,.97-1.02,1.14-1.8,.75-.51-.26-1.01-.59-1.42-1-1.44-1.43-3.08-1.4-4.84-.8-.18,.07-.36,.12-.68,.23-.91-.41-1.89-.85-3.19-1.43-1.19-.08-2.45,.23-3.25,1.73-.25,.47-.83,.77-1.31,1.19-.04,.3-.1,.67-.15,1,.79,1.37,2.25,1.22,3.54,1.74,.21,.26,.5,.59,.75,.96,.51,.74,1.12,1.32,1.92,1.8,1.24,.77,2.39,1.74,3.48,2.72,1.74,1.56,3.72,2.7,5.87,3.59,1.7,.7,2.42,1.44,2.92,3.07-.44-.32-.7-.52-.98-.69-.72-.41-1.42-.86-2.17-1.19-.75-.32-1.37-.04-1.78,.74,.46,1.11,1.2,1.98,2.07,2.74,.97,.85,1.74,1.85,2.14,3.09,.07,.23,.05,.48,.11,1.04-.53-.41-.91-.6-1.15-.9-.86-1.04-1.58-2.21-2.52-3.14-.8-.79-1.82-1.39-2.79-2-.48-.3-1.05-.48-1.6-.73-1.23,.17-2.5,.33-3.47,.45-1.81-.14-3.35-.25-4.86-.38-2.02-.19-4.05-.34-6.07-.64-.8-.12-1.55-.65-2.34-.89-.44-.15-.94-.12-1.59-.21,.5,.99,.87,1.76,1.38,2.81,.5,.16,1.24,.41,1.99,.66,.06-.11,.11-.22,.18-.33,.86,.77,1.78,1.47,2.56,2.31,2.21,2.41,4.62,4.6,7.45,6.3,.83,.49,1.53,1.17,2.35,1.69,1.15,.71,1.67,1.8,1.84,3.03,.51,3.73,1.29,7.42,2.3,11.06,.32,1.17,.11,2.28-.46,3.31-1.07,.34-2.09,.67-2.92,.93-1.23,1.78-.26,3.35-.1,4.88,.14,1.26,.57,2.5,.87,3.77-.3,.65-.61,1.26-.93,1.92h-1.19c-.35-.66-.72-1.39-1.11-2.1-.57-1.06-.89-2.22-1.46-3.31-.58-1.07-.59-2.46-.73-3.72-.3-2.68-.47-5.36-.77-8.03-.18-1.62-.32-1.74-1.52-2.83-.39,.08-.82,.19-1.45,.33-.35-.47-.73-1.02-1.18-1.61,.65-.75,1.18-1.39,1.91-2.24-.12-1-.3-2.19-.41-3.39-.07-.7-.06-1.41-.1-2.11-.05-1.08-.08-1.11-1.12-2.02-.43,.59-.86,1.19-1.29,1.8-.39-.1-.62-.15-.98-.23,.19-.45,.36-.81,.55-1.25-.68,.11-1.27,.21-1.85,.29-.32-.82-.58-1.51-.84-2.22,.33-.34,.66-.69,1.08-1.12-.91-.86-1.58-1.91-3.26-1.48,.19,.69,.36,1.27,.54,1.91-.24,.26-.53,.58-.71,.77,.24,1.39,.44,2.62,.64,3.75-.39,.59-.68,1.07-1.02,1.6-1.08-.08-1.24,.93-1.55,1.73-1.75-.89-2.53-2.37-3.26-3.95-.47-1.01-1.2-1.92-2.02-3.18-.35,.66-.71,1.01-.69,1.34,.12,2.17-.21,4.51,2.02,6.09,.36-.16,.75-.34,1.22-.56,.57,1.49,1.12,2.92,1.66,4.35,.66,1.76,1.7,3.29,2.9,4.73,.47,.56,.86,1.12,.44,1.93-.95,.15-1.38-.47-1.84-1.11-.37-.52-.8-1-1.26-1.45-1.12-1.12-2.28-2.24-3.43-3.36-1.05,.67-.68,1.56-.58,2.33,.23,1.72,.55,3.4,.86,5.19,.24,.27,.53,.62,.86,1-.3,.82-.62,1.66-1.02,2.74,.66,1.69,1.4,3.51,2.2,5.53-.46-.16-.83-.3-1.29-.48-.37,1.5,.15,2.98,.26,4.45,.11,1.59,.42,3.17,.69,4.73,.26,1.45,1.51,2.69,1.05,4.44-1.31-.34-1.82-1.4-2.09-2.32-.82-2.96-1.74-5.9-1.66-9.04,.03-1.14-.21-2.29-.36-3.43-.1-.74-.39-1.36-1.29-1.59-1.96,1.12-3.35,2.68-3.47,4.69,.68,3.5,1.3,6.64,1.91,9.77-.14,.1-.29,.19-.43,.29,.46,.34,.91,.69,1.4,1.06,.8-.21,1.58-.41,2.35-.62,.04,.08,.07,.16,.11,.25-.58,.47-1.16,.93-1.73,1.38,.22,1.85,.41,3.49,.65,5.43-.24,1.12-.74,2.02-1.51,2.68-.19-.22-.43-.43-.58-.67-.16-.26-.25-.58-.36-.84-.61-.25-1.13-.47-1.82-.76-.08-.38-.17-.84-.28-1.4h1.98c.65-1.26,.28-2.35-.07-3.39-.51-.47-.98-.88-1.48-1.33,.28-.48,.5-.86,.69-1.19-.57-2.65-1.13-5.27-1.69-7.89-.93-.33-1.81-.64-2.64-.95,.43-3.02,1.69-5.5,3.44-7.9-.71-.71-1.24-1.28-1.98-2.03-.51,.82-.87,1.4-1.3,2.1-.24,.07-.58,.18-1.05,.31-.33-.52-.62-1-.98-1.58,.62-.65,1.19-1.25,1.8-1.88,.18-.51,.36-1.04,.58-1.66-.3-.97-.39-2.1-1.35-2.83-1.84,.01-2.99,.77-3.57,2.59-.48,1.51-1.52,2.83-2.03,4.33-1.19,3.51-2.2,7.09-3.32,10.63-.91,2.87-1.84,5.73-2.85,8.57-1.82,5.06-3.57,10.16-5.64,15.13-1.41,3.36-3.35,6.5-5.03,9.74-.35,.67-.68,1.36-1.04,2.11,1.06,.88,2.29,1.11,3.44,1.35,3.66,.75,7.34,1.43,11.13,1.29,3.3-.12,6.54-.64,9.74-1.41,5.47-1.32,10.7-3.38,15.95-5.29,3.76-1.37,7.51-2.76,11.29-4.03,3.62-1.22,6.55-3.38,8.86-6.3,4.71-5.95,9.43-11.91,13.25-18.48,4.41-7.56,8.44-15.31,11.15-23.64,1.29-3.95,2.2-8.02,3.22-12.06,1.23-4.86,1.87-9.79,2.45-14.76,.66-5.56,.93-11.14,.62-16.71-.24-4.34-.9-8.66-1.4-12.98-.6-5.16-1.8-10.21-3.17-15.2-1.78-6.56-4.06-12.96-7.16-19.05-1.66-3.25-3.25-6.57-5.21-9.66-4.44-7-8.9-13.98-14.62-20.06-6.33-6.74-13.13-12.95-20.81-18.08-11.15-7.45-23.12-13.28-36.09-17-5.85-1.67-11.79-2.77-17.77-3.79-3.59-.62-7.2-.64-10.81-.82-4.4-.22-8.79,.04-13.17,.18-5.8,.18-11.57,.93-17.21,2.39-4.44,1.15-8.9,2.13-13.3,3.4-2.72,.78-5.36,1.88-7.96,3-5.39,2.33-10.73,4.77-15.8,7.74-6.76,3.94-13.14,8.38-18.96,13.64-6.43,5.8-12.29,12.11-17.48,19.03-4.22,5.61-7.84,11.61-10.97,17.87-2.82,5.64-5.16,11.48-7.1,17.45-1.76,5.35-3.12,10.82-3.93,16.42-.47,3.29-.97,6.58-1.42,9.88-.08,.63-.08,1.28-.1,1.92-.01,4.62-.01,9.25-.06,13.87-.03,4.38,.72,8.67,1.4,12.96,.73,4.61,1.62,9.19,2.9,13.68,2.72,9.52,6.39,18.67,11.35,27.27,.57,.99,1.02,2.04,1.56,3.06,.25,.47,.59,.89,1.12,1.65,.15-.69,.29-.97,.28-1.26-.12-3.53,.1-7.02,.77-10.5,.06-.31,.03-.63,.04-.95l-.03,.04,.03-.16Z"/><path class="cls-2" d="M7.81,296.74v-3.98c.79-.11,1.47-.29,2.16-.29,4.64-.03,9.29-.03,13.93,0,4.31,.03,8.64,.12,12.95,.12s8.65-.11,12.98-.11c2.71,0,5.43,.12,8.14,.12,5.04,0,10.08-.08,15.12-.1,9.9-.01,19.79,0,29.69,0,82.04,.01,164.1,.03,246.14,.04,2.97,0,5.96-.05,8.93-.08h1.52c.76,1.4,.4,2.7,.24,4.2-.66,.04-1.29,.12-1.91,.12-23.88,.01-47.75,.03-71.63,.03-67.42,0-134.84,.01-202.27,.01-24.78,0-49.56-.01-74.34-.03-.51,0-1.01-.04-1.63-.07Z"/><path class="cls-2" d="M99.17,262.98c-1.15-.26-2.13-.44-3.08-.73-5.79-1.76-11.57-3.55-17.36-5.34-3.58-1.1-7.2-2.06-10.93-2.36-2.7-.22-5.43-.1-8.13,.08-6.76,.47-13.09,2.7-19.52,4.64-6.23,1.88-12.54,3.5-18.87,4.99-2.68,.63-5.5,.66-8.25,.95-.97,.11-1.92,.23-2.89,.29-.76,.04-1.52,0-2.42,0v-8.34c1.45-.15,2.85-.34,4.24-.43,4.13-.27,8.22-.86,12.22-1.86,6.76-1.69,13.46-3.51,20.19-5.3,7.08-1.87,14.24-3.03,21.59-2.99,4.56,.03,9.01,.77,13.38,1.85,4.63,1.14,9.18,2.58,13.74,3.98,2.07,.65,4.08,1.52,6.08,2.28v8.29Z"/><path class="cls-2" d="M83.95,233.43c.11,2.76,.21,5.21,.32,7.94-1.33-.22-2.4-.32-3.43-.59-7.75-2.1-15.67-2.58-23.63-2.04-3.79,.25-7.55,.96-11.21,2.04-5.13,1.52-10.26,3.03-15.37,4.61-4.56,1.41-9.14,2.74-13.86,3.46-2.92,.44-5.87,.58-8.94,.86-.36-1.55-.17-2.95-.21-4.34-.04-1.4,0-2.81,0-4.34,.79-.16,1.52-.41,2.27-.45,6.15-.34,12.09-1.84,18.01-3.37,4.98-1.3,9.91-2.8,14.86-4.24,4.7-1.37,9.37-2.83,14.25-3.51,.51-.07,1.04-.11,1.55-.12,3.17-.01,6.34-.1,9.51,0,5.09,.15,9.94,1.48,14.65,3.35,.47,.18,.87,.51,1.27,.75h-.03Z"/><path class="cls-2" d="M92.31,165.39c.14,.41,.3,.77,.37,1.14,.06,.37,0,.75,0,1.22-.73,.27-1.45,.54-2.16,.78-.97-.22-1.62-.8-2-1.67-.03-.06-.06-.12-.1-.17-2.5-2.7-1.53-5.5-.04-8.13,1.31-2.32,3.29-4.06,5.83-5.07,.82,.63,1.56,1.21,2.27,1.74,1.01-.22,1.89-.4,2.87-.62,.36,.21,.8,.45,1.26,.7,.22,1.5,.44,2.94,.66,4.45,.55,.3,1.11,.62,1.63,.9,1.05,2.25,.94,3.5-.47,4.69-.48-.19-1.01-.41-1.55-.62-1.88,1.1-1.12,2.77-.93,4.38-1.7,.22-1.62-1.51-2.54-1.88-.18-1.1-.04-1.99,.4-2.89,1.16-2.42,1.31-4.91,.33-7.65-1.31-.11-2.7-.22-4.3-.34-1.23,.38-2.28,1.11-3.17,2.21v5.87c.5,.3,.98,.6,1.59,.97h.03Z"/><path class="cls-2" d="M84.56,194.26c-.86,.63-.7,1.58-.8,2.44-.26,2.33-.51,4.66-.79,7.27-.48-.67-.79-1.08-1.06-1.45,1.09-4.18,1.69-8.41,1.89-12.69,.08-1.84,.4-3.68,.61-5.51,.06-.56,.08-1.12,.17-2.13-.41,.65-.61,.95-.87,1.37-.57-.73-.29-1.36-.15-1.92,.36-1.44,.58-2.83,.26-4.34-.35-1.62,.06-3.17,1.19-4.49,1.12-1.3,2.18-2.65,3.3-3.96,.14-.16,.39-.22,1.01-.53-1.17,2.62-2.9,4.38-4.06,6.58,.22,.29,.46,.58,.73,.95-.3,.28-.65,.59-1.13,1.03,.37,.48,.7,.89,1.22,1.52,.44-.67,.73-1.11,1.02-1.55,.03,.03,.17,.11,.17,.15-.15,.81-.12,1.73-.51,2.4-.98,1.67-1.15,3.51-1.34,5.35-.33,3.18-.59,6.37-.88,9.55l.03-.04h.01Z"/><path class="cls-2" d="M136.48,173.8c1.7-1.18,1.89-3.02,2.4-4.77-.12-.32-.28-.66-.4-1.03-.08-.26-.11-.55-.19-1.03,1.13,.27,1.34,.97,1.4,1.74,.1,1.26-.3,2.44-.97,3.46-.8,1.24-1.67,2.44-2.71,3.47-1.3,1.26-2,2.63-1.66,4.66,.21,.37,.53,.92,.87,1.54,1.62-.34,2.92-1.21,4.01-2.24,1.08-1.01,1.84-2.36,2.75-3.57,.75,.27,1.33,.49,1.98,.73-.21,1.71-1.19,2.65-2.72,3.17-.21-.14-.41-.26-.55-.36-1.71,1.85-4.42,2.46-5.9,4.82-.37-.48-.66-.85-1.02-1.3,.28-.23,.47-.4,.71-.58-1.82-1.54-.84-3.57-.91-5.54,.33-.19,.72-.41,1.13-.64,.35-.58,.71-1.18,1.18-1.95-.75-.96-1.52-1.95-2.24-2.87-.9-3.39,.61-6.04,2.46-9.05-.05,1.25-.29,1.99-.61,2.77-.61,1.54-1.06,3.06-.91,4.8,.14,1.61,.83,2.74,1.93,3.77h-.01Z"/><path class="cls-2" d="M118.46,227.89h2.1c-.04,.84-.07,1.58-.12,2.32-.21,3.32-.39,6.64,.22,9.95,.17,.93,.19,1.91,.19,2.87,0,.32-.29,.65-.53,1.15-.32-.37-.64-.56-.69-.81-.62-2.66-1.22-5.34-1.77-8.03-.12-.6-.12-1.25-.07-1.87,.18-1.82,.43-3.63,.66-5.58Z"/><path class="cls-1" d="M227.48,183.04c.25-.4,.46-.71,.65-1,.66-.08,1.29-.15,2.03-.23-.28,.45-.47,.77-.71,1.15,.68,.38,1.18,.18,1.7-.29,.71-.63,1.49-1.19,2.21-1.81,.66-.59,1.29-1.24,1.93-1.84,.46-.43,.79-1.1,1.69-.76,.37,.82,.21,1.7-.03,2.55-1.64,5.79-3.23,11.59-5.35,17.24-.66,1.8-1.15,3.66-1.65,5.51-.8,3.03-1.77,6-3.11,8.86-1.63,3.49-2.88,7.13-4.53,10.6-1.78,3.77-3.83,7.42-5.79,11.1-.36,.66-.93,1.19-1.33,1.69-3.37,.06-18.29-4.28-21.88-6.32,.26-1.26,.47-2.58,.82-3.86,1.33-4.84,1.69-9.84,2.65-14.73,.66-3.32,1.8-6.53,2.75-9.78,.37-1.26,.82-2.5,1.18-3.58-.65-.8-1.13-1.38-1.55-1.89,.26-2.5,.51-4.83,.79-7.52,.22,.65,.35,1,.48,1.43,.29-.11,.51-.18,.87-.32-.57-1.41-1.1-2.76-1.74-4.33,.37-.84,.84-1.88,1.11-2.44,0-3.54,.03-6.6-.01-9.66,0-.95-.26-1.89-.32-2.84-.07-1.21-.1-2.43-.01-3.64,.07-1.08,.28-2.15,.51-3.22,.32-1.43,.32-2.77-.39-4.11-.23-.44-.12-1.11-.03-1.65,.08-.47,.4-.89,.66-1.45,.43-.07,.94-.23,1.44-.19,1.3,.14,2.38-.38,3.5-.93,1.2-.59,2.43-1.11,3.69-1.6,.75-.29,1.53-.32,2.17,.58-.15,.31-.33,.69-.55,1.12,0,0,.03,.12,.1,.21,.62,.74,1.26,1.47,1.77,2.06,1.3-.19,2.35-.34,3.41-.51,.08,.12,.17,.25,.25,.37,.43-.43,.86-.85,1.29-1.28l-.29-.38c-.29,.07-.58,.12-.87,.21-.25,.07-.48,.16-.73,.25-.86-.29-1.69-.56-2.81-.92-.17-.33-.46-.96-.79-1.63,.39-.3,.76-.6,1.31-1.04-.69-.21-1.15-.34-1.69-.49,.17-.22,.29-.49,.37-.48,.66,.14,1.31,.32,1.96,.52,1.71,.44,3.8-.55,5.04,1.37,1.38-.26,2.75-.52,3.94-.75,.93,.22,1.69,.41,2.6,.63,.29,.96,1.31,1.81,.77,3.22,.69,.07,1.11,.11,1.59,.16,1.27,1.47,3.11,2.61,3.59,5.02-.46,.18-.9,.49-1.33,.48-1.22-.01-2.4-.14-3.62-.41-2.16-.49-4.33-1.15-6.61-.92-.87,.08-1.77-.14-2.68-.22-1.37,1.95-3.48,1.44-5.49,1.93-1.29,.99-.77,2.83-1.63,4.18,1.55,.58,2.94,1.08,4.48,1.66-.3,.58-.55,1.07-.89,1.69-1.8,.34-3.62,.69-5.29,1-2.21,1.41-2.76,3.44-2.76,5.82-.83,1.26-2.18,2.26-2.64,3.94,.68,1.19,1.37,2.41,2.17,3.81-1.16,1.14-2.97,2.14-2.31,4.51-.21,.15-.47,.34-.75,.54,.12,.07,.22,.18,.32,.16,1.91-.16,2.93-1.45,3.66-2.99,.84-1.78,1.54-3.65,2.38-5.43,.4-.86,.99-1.63,1.57-2.55,.36,.16,.68,.3,1.02,.45,.48-.3,.97-.62,1.4-.89,1.45-2.47,3.07-4.65,5.75-5.86,.62-.27,1.08-.92,1.69-1.26,.51-.3,1.13-.43,1.78-.43,.32-.29,.64-.58,1.12-1,.4,.58,.76,1.07,.98,1.38-.39,1.02-.69,1.81-.98,2.61,.08,.08,.15,.16,.24,.25-1.4,.75-2.79,1.52-4.3,2.35-.21,.38-.47,.89-.71,1.34,.18,1.34,.82,2.59,.21,3.9-.18,.4-.35,.85-.63,1.17-1.44,1.55-2.28,3.31-2.36,5.45-.01,.47-.36,.93-.53,1.3-1.08-.14-2.05-.25-2.96-.37-3.51,4.73-4.09,5.9-3.82,7.83-2,1.6-1.96,4.24-2.92,6.42-.95,2.19-1.65,4.5-2.17,6.96,.28-.27,.62-.49,.83-.82,.26-.44,.44-.93,.61-1.41,.5-1.54,1.16-3,2.33-4.14,1.12-1.1,1.59-2.48,1.84-3.92,.19-1.15,.73-2.02,1.74-2.79,.28,.59,.55,1.12,.89,1.85,1.95-.26,3.61-1.03,4.7-2.74,.33-.54,.58-1.17,.72-1.78,.76-3.24,2.71-5.75,4.96-8.08,.66-.69,1.51-1.21,2.14-1.91,.88-.96,1.89-1.49,3.17-1.43h-.01Z"/><path class="cls-1" d="M314.14,42.95c1.22-.58,2.31-1.11,3.41-1.62,2.14-.95,4.35-1.63,6.72-1.56,2.06,.05,4.12,.18,6.16,.41,1.92,.21,3.51,1.21,4.96,2.43,1.19,1,1.73,2.19,1.31,3.76-.11,.41-.08,.86-.12,1.44,.61,0,1.11,.08,1.58-.01,.82-.18,1.6-.47,2.4-.71,2.82-.88,5.35-.08,7.74,1.34,2.38,1.43,4.16,3.46,5.56,5.8,.55,.92,.86,1.99,1.22,2.84-.22,.75-.39,1.32-.58,1.93,.48,1.55,1.69,2.63,2.71,3.87,1.19,1.43,2.38,2.87,3.4,4.42,.98,1.48,1.09,3.16,.99,4.97-.19,3.87-2.5,6.37-5.25,8.57-2.27,1.82-4.85,3.17-7.75,3.76-.75,.15-1.58,.26-2.29,.11-2.25-.49-4.58-.85-6.59-2.11-.21-.12-.5-.11-.69-.15-1.58,1.12-3.04,2.26-4.6,3.28-3.5,2.28-7.27,3.18-11.44,2.35-1.45-.29-2.94-.33-4.41-.56-.9-.15-1.74-.51-2.2-1.39,.8-3.02,2.97-4.42,6-4.2,4.02,.29,8.02,.14,11.54-2.24,3.58-2.43,5.83-5.72,6.59-10,.25-1.41,.19-2.78,.03-4.2-.48-4.17-4.19-7.74-8.58-7.56-.44,.01-.88,0-1.45,0-.28-.55-.51-1.06-.79-1.55-.84-1.51-1.59-3.09-2.56-4.5-1.7-2.48-4.24-3.87-7.04-4.87-2.31-.82-4.63-1.48-7.16-1.52-2.23-.04-4.2,.51-6.14,1.47-.64,.32-1.31,.59-1.87,1.02-2.64,2.06-5.76,2.73-8.96,3.39-2.83,.59-5.71,1.23-8,3.18-.97,.82-1.84,1.78-2.63,2.78-.9,1.15-1.64,2.43-2.52,3.73-2.38-2.32-4.6-4.51-6.86-6.68-2.2-2.11-4.84-3.74-6.94-6.21,1.63-1.26,3.14-2.36,5.06-2.51,1.87-.15,3.74-.15,5.54,.59,.76,.32,1.59,.45,2.47,.7,1.06-1.02,2.11-1.96,3.1-2.98,2.88-2.98,6.45-4.87,10.45-5.47,5.58-.85,11.1-.37,15.96,3.05,.77,.55,1.64,.99,2.46,1.47l.04-.04Z"/><path class="cls-1" d="M34.15,87.76c.36-.4,.7-.78,1.05-1.17,.64-.15,1.27-.3,1.99-.47,.41,.12,.9,.27,1.4,.41,1.91,.55,2.6-.1,2.23-2.19-1.96-1.04-4.13-1.21-6.33-.89-1.31,.19-2.17,1.1-2.63,2.32-1.53,4.12-.44,8.35,3.37,11.07,.73,.52,1.55,.92,2.35,1.33,2.24,1.12,4.52,1.48,6.87,.26,1.42-.74,2.86-1.47,4.33-2.11,.8-.36,1.71-.74,2.56-.7,3.54,.14,6.19-1.44,8.43-3.94,.47-.52,.93-1.08,1.48-1.52,1.16-.95,2.52-.95,3.76-.08,.26,.18,.51,.4,.73,.62,1.77,1.76,3.52,3.53,5.49,5.49-.8,2.54-1.82,5.27-3.21,7.86-3.47,1.62-7.09,2.47-10.79,3.14-3.34,.6-6.7,.45-10.06,.37-1.2-.03-2.24-.48-3.1-1.38-.61-.65-1.33-1.18-2.1-1.85-.77,.55-1.47,1-2.13,1.5-1.84,1.39-3.88,2.02-6.18,1.76-2.96-.33-5.97-.62-8.38-2.61-1.23-1.02-2.45-2.13-3.37-3.4-1.01-1.39-2.23-2.03-3.9-2.07-4.01-.1-7.52-1.62-10.74-3.87-.58-.4-1.11-.89-1.62-1.39-2.06-2-2.58-4.25-1.2-6.82,2.93-5.43,6.44-7.82,13.06-7.11,.61,.07,1.23,.12,2.03,.21,.06-.92,.1-1.59,.12-2.28,.14-3.18,2.2-5.49,5.39-6.1,3.3-.64,6.58-.41,9.77,.45,2.13,.58,3.94,1.84,5.45,3.5,1.08,1.18,2.07,2.54,4.12,2.44,.43-.22,1.02-.48,1.59-.8,1.38-.74,2.9-.86,4.34-.45,2.56,.74,4.99,1.77,6.88,3.76,.14,.14,.28,.27,.4,.43,2.65,3.28,2.5,5.68,.1,8.44-1.51,1.73-3.36,3-5.75,3.25-.25,.03-.54,.14-.76,.07-2.2-.69-3.84,.59-5.57,1.52-.79,.43-1.49,1-2.24,1.51-1.31,.91-2.72,.85-4.04,.11-1.88-1.06-3.37-2.57-4.6-4.32-.87-1.25-.83-2.66-.64-4.27h.04Z"/><path class="cls-1" d="M93.25,61c-.37,.51-.66,.92-.97,1.3-2.2,2.76-4.4,5.53-6.62,8.27-.84,1.04-1.76,2.02-2.5,2.87-2.28,.52-4.09-.27-5.93-.81-.98-.27-1.89-.82-2.85-1.21-.57-.23-1.17-.4-1.48-.51-1.69,.84-3.05,1.52-4.45,2.19-2.27,1.08-4.59,1.11-6.98,.41-3.18-.93-6.16-2.3-9.04-3.9-1.47-.81-2.9-1.7-4.2-2.73-1.89-1.51-3.3-3.43-3.76-5.89-.07-.37-.21-.78-.12-1.12,.91-3.72,2.21-7.04,6.55-8.22,3-.82,5.9-1.25,8.94-.48,.47,.12,.98,.1,1.58,.15,.07-.51,.21-.88,.17-1.23-.36-2.8,1-4.87,3.03-6.5,2.39-1.93,5.16-2.88,8.28-2.26,1.82,.36,3.05,1.59,4.17,2.95,.57,.7,1.08,1.44,1.64,2.14,.22,.27,.57,.45,.91,.74,.65-1.11,.65-2.21,.59-3.28-.12-2.84,1.3-4.65,3.86-5.58,3.73-1.36,7.44-1.21,11.07,.51,3.36,1.58,5.24,4.47,6.97,7.5,.51,.89,.87,1.85,1.37,2.98-.36,.66-.62,1.47-1.15,2.06-2.24,2.48-4.56,4.9-6.87,7.31-.17,.18-.43,.26-.73,.44-1.63-2.1-3.68-3.65-6.14-4.55-1.56-.58-3.19-1.03-4.84-1.29-3.97-.62-6.97,1.28-9.62,3.92-1.48,1.48-1.92,3.31-1.73,5.31,.12,1.39,.7,1.92,2.27,2.24,.17-.86,.48-1.73,.5-2.59,.03-2.76,1.85-4.25,3.9-5.54,2.07-1.3,4.31-1.23,6.54-.45,2.83,.99,5.39,2.44,7.63,4.88v-.03Z"/><path class="cls-1" d="M285.1,64.41c.39-1.08,.68-1.8,.9-2.54,.98-3.24,3.16-5.34,6.27-6.63,2.69-1.12,5.53-1.66,8.35-2.35,1.41-.34,2.76-1.02,4.08-1.66,1.22-.59,2.35-1.36,3.52-2.02,2.06-1.15,4.23-1.34,6.55-.97,4.99,.8,9.03,2.99,11.54,7.49,.43,.77,.65,1.66,.91,2.51,.22,.73,.39,1.47,.61,2.32h1.78c.97,0,1.95-.04,2.9,.05,3.11,.29,5.13,2.4,5.52,5.47,.7,5.5-2.86,9.89-6.5,12-1.7,.99-3.66,1.28-5.6,1.33-2.71,.05-5.4-.07-8.47-.12-.32,.41-.86,1.12-1.4,1.82-.86,1.11-1.67,2.28-2.61,3.33-1.44,1.63-3.39,2.44-5.47,2.61-2.82,.22-5.65,.15-8.61,.22-4.2-8.08-9.43-15.39-14.29-22.87h.01Z"/><path class="cls-1" d="M178.6,247.76c-1.73,0-3.22,.06-4.7,0-5.29-.21-10.39,.93-15.44,2.32-5.96,1.65-11.87,3.44-17.8,5.16-.86,.25-1.76,.4-2.71,.6-3.4-1.92-6.86-3.88-10.66-6.04,.72-.22,1.04-.36,1.38-.43,6.83-1.62,13.5-3.79,20.21-5.84,5.6-1.73,11.21-3.43,16.86-4.94,3.55-.95,7.21-1.32,10.92-.82,1.73,.23,3.46,.33,5.2,.49,.24,.03,.46,.18,.83,.33-1.17,3.15-2.14,6.32-4.09,9.18h0Z"/><path class="cls-1" d="M223.09,144.71c-.22-.19-.59-.51-.97-.82,.19-.48,.35-.85,.54-1.33-1.06-.18-1.4,.26-1.4,1.08-.51-.33-1.02-.66-1.42-.91-1.35,.78-2.54,1.47-3.86,2.22-.58-.05-1.29-.14-2.17-.22-.98-1.03-2.07-2.17-3.25-3.4-.64,.52-1.11,.93-1.57,1.32-.14,.63-.25,1.19-.4,1.92-.75,.38-1.56,.82-2.45,1.28-.08-.77-.15-1.51-.25-2.41-.94,.55-.37,1.37-.77,2.13-.77,.92-1.98,1.44-3.4,1.58-1.38-1.02-1.45-1.39-.5-3.22,.44-.07,.94-.19,1.45-.23,.48-.04,.98,0,1.63,0,.29-.18,.72-.45,1.18-.74,.15-.66,.32-1.33,.51-2.14-.36-.18-.7-.34-1.16-.58-.28,.73-.5,1.3-.72,1.91-1.27,.16-2.47,.27-3.65-.62-1.2-2.73-.65-5.53,.17-8.27-.64-2.44-2.21-4.71-1.24-7.41h7.45c.06-.16,.37-.62,.28-.93-.86-2.51-.97-5.08-.76-7.65,.54-.59,1.01-.47,1.49,.04,1.31,1.36,1.84,3.06,2.07,4.86,.43,3.42,.75,6.83,1.22,10.25,.12,.86,.61,1.67,.91,2.43,1.48,1.07,2.89,2.07,4.3,3.09v1.11c.18,.05,.32,.16,.42,.14,.69-.19,1.31-.18,2.06-.04,1.22,.25,2.54,.4,3.83-.27-.1-1.85-.93-3.46-1.51-5.12-.57-1.63-1.64-3.14-1.89-4.8-.26-1.8-1.63-3.1-1.96-4.95,1.89-.17,2.1,2.06,3.54,1.93,.66,1.44,1.27,2.74,1.99,4.31,.46,.4,1.13,1,1.71,1.51,.48,2.94,.88,5.71,2.21,8.19,.15-.03,.3-.04,.46-.07,.3-.82,.61-1.65,.95-2.55,1.18,.55,1.13,1.76,1.45,2.66,.55,.41,1.05,.78,1.74,1.29-.61,.21-1,.34-1.48,.51-.44,.85-.9,1.76-1.38,2.72-.21-.45-.43-.95-.65-1.43,.21-.33,.37-.59,.59-.93-.69-.18-1.33-.33-2.06-.52-.26,.48-.51,.92-.76,1.37-.41,.1-.84,.19-1.33,.3-.22,.58,.19,1.58-1.19,1.47h0Z"/><path class="cls-1" d="M209.59,254.64c.86-2.74,3.79-7.5,5.17-8.55,1.96,.48,3.97,.93,5.94,1.45,2.71,.73,5.49,.73,8.25,.8,4.56,.11,9-.48,13.35-1.84,4.92-1.52,9.85-3.02,14.79-4.51,.47-.14,.95-.23,1.71-.43-.41,.92-.98,1.28-1.53,1.65-4.66,3.13-9.5,5.95-14.55,8.4-4.12,1.99-8.29,3.85-12.44,5.78-2.69,1.25-5.43,1.36-8.28,.56-4.09-1.14-8.2-2.2-12.43-3.32h.01Z"/><path class="cls-1" d="M77.15,83.94c-.3,.81-.64,1.69-1.02,2.73-2.74-.48-4.7-2.98-7.67-2.58-.66,.7-1.59,1.22-1.8,2.47,1.35,.1,2.65,0,3.81,.33,1.2,.34,2.28,1.12,3.37,1.69,.61,2.14-.19,3.64-1.63,5.19-.73-.74-1.52-1.33-2.03-2.1-1.2-1.81-2.86-3.13-4.57-4.36-.8-.58-1.88-.75-2.94-1.17-.19-.49-.54-1.02-.58-1.56-.29-3.18-2.25-5.32-4.69-6.96-3.29-2.21-6.97-3.25-10.99-2.51-.51,.1-1.02,.1-1.55,.12-.39,.01-.76,0-1.22,0-.3-.43-.59-.82-.97-1.34,.39-.6,.65-1.3,1.16-1.73,.68-.58,1.49-1.07,2.32-1.34,.61-.21,1.42-.21,2.03,.03,2.05,.74,4.06,1.59,6.05,2.47,2.7,1.21,5.33,2.57,8.26,3.22,.59,.14,1.19,.54,1.62,.97,1.81,1.77,4.09,2.62,6.47,3.26,1.37,.37,2.76,.66,4.12,1.07,.97,.3,2.03,.56,2.43,2.07v.03Z"/><path class="cls-1" d="M209.16,244.8c-1.51,2.63-2.92,5.1-4.3,7.5-2.4-.15-16.02-3.55-17.65-4.38,1.12-3.63,2.59-6.69,3.94-8.11,6.03,1.25,11.96,3.02,18.01,4.97h0Z"/><path class="cls-1" d="M151.34,260.73c3.47-2.66,17.07-5.57,23.36-5.06,.48,1.8-.69,5.35-2.72,8.16-2.03,.86-4.23,.58-6.4,.42-2.45-.18-4.8-.89-7.12-1.66-2.02-.66-4.1-1.07-6.16-1.59-.29-.07-.57-.17-.93-.27h-.03Z"/><path class="cls-1" d="M185.12,256.34c4.42,.47,8.54,1.88,12.96,3.38-1.78,1.93-3.41,3.7-5.06,5.47-3.99-.34-7.81-.67-11.97-1.03,1.42-2.79,2.38-5.4,4.06-7.81h0Z"/><path class="cls-1" d="M239.83,134.78c.11,1.76,.25,3.69,.37,5.62-.41,.47-.79,.89-1.27,1.44-.43-.75-.79-1.4-1.16-2.08-1.58-.19-2.47,1.08-3.66,1.71-1.71-.22-1.77-.27-2.2-2.47,1.01-.66,1.96,.15,3.18,.15-.24-.73-.44-1.36-.63-1.93-2.36-1.25-4.66-2.47-6.75-3.58-.76-1.37-1.4-2.54-2.17-3.94,0-.06,.08-.41,.14-.67,1.11,.08,2.1,.16,3.37,.26,1.77,1.01,3.79,2.18,5.9,3.39h2.05c.94,.7,1.74,1.29,2.85,2.11h-.01Z"/><path class="cls-1" d="M112.29,164.91c2.5,1.28,4.13,2.96,4.55,5.34-.28,2.07-2.43,2.41-2.75,4.16-.26,1.47-.83,2.88-1.3,4.4-1.6-.08-2.92-.82-4.13-1.58-.66-1.14-.9-2.24-.79-3.42,.11-1.21,.17-2.41,.22-3.62,.14-2.66,1.99-3.97,4.19-5.28h.01Z"/><path class="cls-1" d="M78.71,81.38c-1.85-1.19-3.79-2.04-5.9-2.41-.76-.14-1.53-.21-2.29-.32-1.2-.18-2.42-.3-3.41-1.3,1.58-1.58,3.37-2.63,5.45-3.2,.41-.11,.93-.11,1.34,0,2.4,.73,4.78,1.51,7.16,2.28,.11,.04,.18,.18,.39,.41-.64,1.59-1.53,3.09-2.74,4.54h.01Z"/><path class="cls-1" d="M199.04,265.75c1.12-1.54,2.13-2.92,3.04-4.18,3.21-.18,7.93,.81,9.25,1.88-2.03,1.74-9.5,3.24-12.29,2.32h0Z"/><path class="cls-1" d="M74.88,213.15c1.44,2.47,2.94,4.77,3.9,7.56-1.92,.08-3.33-.69-4.89-1.33-.1-.54-.19-1.08-.29-1.63,.9-.96,2.17-1.71,1.28-3.5-.46,.88-.84,1.6-1.27,2.44-1.02-1.78-.65-5.12,.73-7.2,.19,1.3,.37,2.55,.55,3.68h-.01Z"/><path class="cls-1" d="M96.09,223.11c-.79-1.15-1.67-2.14-1.38-3.79,.55-.84,1.22-1.84,1.88-2.85,.21-.33,.4-.67,.61-1.01,.7,.65,1.12,1.01,1.57,1.43,.76,2.44-.28,4.98-2.67,6.23h-.01Z"/><path class="cls-1" d="M249.06,189.11c-.5,.62-1.02,1.25-1.56,1.88-.04,.04-.11,.06-.37,.15-.39-.33-.86-.73-1.2-1.03-.51-2.02-.59-3.83,.28-5.57,.15-.32,.64-.48,1.04-.76,1.11,1.73,2.13,3.26,1.82,5.32Z"/><path class="cls-1" d="M207.86,97.55c-1.08-.37-1.93-.67-2.99-1.03-.15-.36-.37-.86-.6-1.36,.18-.14,.29-.29,.37-.27,2.96,.29,5.93,.32,8.89,0,.44,.81,.29,1.34-.35,1.89-1.82-.18-3.66-.05-5.35,.78h.01Z"/><path class="cls-2" d="M306.1,61.79c-.35,1.67-.62,3.03-.95,4.61-.89-.16-1.6-.29-2.17-.4-1.13-2.55,.08-5.95,2.49-7.34,1.95-1.11,4.06-1.66,6.32-1.21,3.51,.71,6.4,2.36,8.18,5.57,.88,1.6,.95,3.31,.42,5.03-.72,2.35-2.07,4.23-4.06,5.71-1.82,1.36-3.65,2.59-5.93,3.13-3.26,.75-6.27,.33-9.09-1.41-.66-.41-1.27-.88-1.88-1.29-2-.7-4.19,.48-6.18-.74,.19-.37,.39-.75,.55-1.07,1.84-.66,3.88-.3,5.4-1.82,.46,.3,.99,.49,1.27,.88,1.3,1.78,3.32,2.37,5.2,3.2,1.55,.67,3.08,.53,4.67-.12,2.72-1.11,4.78-2.99,6.67-5.13,1.31-1.48,1.16-4.5,.12-5.79-1.85-2.29-4.08-3.87-7.26-3.76-1.78,.05-3.12,.63-3.77,1.98h0Z"/></svg>