<svg width="368" height="308" viewBox="0 0 368 308" fill="none" xmlns="http://www.w3.org/2000/svg">
<path d="M367.395 306.898C366.69 306.926 366.179 306.981 365.681 306.981C357.527 306.994 349.372 307.008 341.218 307.022C298.386 307.077 255.54 307.145 212.708 307.2C209.999 307.2 207.276 307.035 204.567 307.049C148.08 307.104 91.5789 307.186 35.0915 307.214C24.1589 307.214 13.2263 307.035 2.29374 306.926C1.78235 306.926 1.27097 306.885 0.62137 306.857C0.566085 306.322 0.455516 305.842 0.455516 305.362C0.496979 257.321 0.566084 209.293 0.579906 161.252C0.579906 138.713 0.496979 116.174 0.441694 93.6218C0.441694 91.6601 0.248196 89.6984 0.234375 87.7367C0.234375 86.0768 0.441694 84.4032 0.441694 82.7433C0.441694 56.665 0.441694 30.6005 0.441694 4.52223C0.441694 3.31503 0.441694 2.12155 0.441694 0.900635C18.1052 1.18872 35.5476 0.969226 52.99 1.01038C70.46 1.03782 87.93 1.0241 105.414 1.0241C122.884 1.0241 140.354 1.0241 157.838 1.0241C175.253 1.0241 192.653 1.01038 210.068 0.996662C227.538 0.996662 245.008 0.996662 262.492 0.996662C279.976 0.996662 297.432 0.996662 314.916 0.996662C332.372 0.996662 349.815 1.0241 367.464 1.03782C367.492 2.12155 367.533 2.99952 367.533 3.87748C367.616 33.0972 367.741 62.3032 367.755 91.5229C367.782 155.491 367.755 219.445 367.741 283.413C367.741 290.793 367.616 298.174 367.547 305.554C367.547 305.924 367.478 306.308 367.423 306.871L367.395 306.898Z" fill="white"/>
<path d="M84.7516 195.205C85.567 194.89 85.4979 194.067 85.7605 193.436C86.963 190.541 88.1378 187.633 89.3264 184.738C89.3817 184.601 89.589 184.505 89.976 184.203C89.7548 185.712 89.2573 186.837 88.7459 187.948C87.4329 190.815 86.3687 193.765 85.8296 196.879C85.4979 198.827 85.3321 200.816 85.1524 202.791C85.0142 204.259 84.9589 205.727 84.876 207.195C84.876 207.387 84.8069 207.579 84.8345 207.771C85.2353 210.583 84.6686 213.382 84.8068 216.18C85.0003 219.884 85.1109 223.602 85.2491 227.333C86.189 227.813 86.9768 227.594 87.5158 226.853C88.1101 226.03 88.7044 225.152 89.0223 224.205C90.363 220.2 91.6483 216.167 92.8508 212.106C93.8597 208.731 94.8549 205.357 95.6012 201.927C96.1955 199.183 96.4305 196.357 96.776 193.573C97.0801 191.158 97.1907 188.744 97.8403 186.371C98.476 184.093 99.5126 182.063 101.102 180.335C102.387 178.935 103.3 177.344 104.157 175.506C103.3 174.367 102.429 173.201 101.544 172.049C101.226 171.624 100.909 171.226 101.365 170.608C102.622 170.608 103.535 171.486 104.668 172.063C105.235 171.514 105.29 170.814 105.304 170.128C105.359 167.837 106.354 166.081 108.289 164.819C109.257 164.188 110.127 163.406 111.081 162.762C111.537 162.446 112.09 162.254 112.643 161.98C113.071 162.323 113.431 162.57 113.748 162.871C114.965 164.024 116.14 165.217 117.37 166.356C118.517 167.426 119.484 168.674 119.968 170.128C120.659 172.241 121.862 174.134 122.276 176.411C122.663 178.496 123.838 180.431 124.695 182.516C124.391 182.955 124.059 183.421 123.7 183.929C123.216 184.011 122.732 184.093 122.166 184.176C121.405 187.166 121.696 190.157 121.696 193.12C124.225 193.12 129.035 190.047 130.956 187.317C132.062 187.317 133.14 187.331 134.218 187.304C134.37 187.304 134.508 187.07 134.453 187.125C135.144 187.249 135.683 187.427 136.222 187.441C137.645 187.482 139.069 187.4 140.493 187.468C142.621 187.55 144.749 187.688 146.864 187.88C147.389 187.921 147.901 188.223 148.716 188.511C148.191 188.936 147.928 189.32 147.638 189.348C145.385 189.553 143.132 189.828 140.88 189.828C138.765 189.828 136.636 189.553 134.522 189.402C133.886 189.361 133.209 189.21 132.808 189.841C132.435 189.663 132.075 189.485 131.813 189.361C128.814 191.021 125.953 192.612 123.036 194.231C122.622 194.08 122.152 193.929 121.599 193.737C121.35 194.643 121.129 195.425 120.949 196.069C121.046 197.208 121.143 198.196 121.226 199.142C124.488 196.961 127.818 194.725 131.315 192.393C131.315 192.132 131.357 191.638 131.398 190.719C131.854 191.46 132.089 191.858 132.435 192.42C136.581 191.817 140.81 191.199 145.04 190.582C143.395 191.693 141.502 191.721 139.691 192.077C136.802 192.667 133.803 192.804 131.039 193.998C127.57 195.493 124.557 197.661 121.779 200.212C121.723 200.542 121.627 200.857 121.64 201.173C121.806 205.658 122.014 210.144 122.138 214.644C122.276 219.198 122.442 223.753 122.414 228.307C122.387 232.601 122.138 236.895 121.972 241.189C121.958 241.682 121.806 242.163 121.419 242.643C121.378 242.217 121.323 241.778 121.295 241.353C121.267 240.9 121.24 240.461 121.226 240.009C121.143 238.349 120.977 236.689 120.991 235.029C120.991 233.753 121.184 232.477 121.35 231.215C121.82 227.635 121.682 224.055 121.447 220.46C121.419 220.145 121.378 219.829 121.364 219.5C121.184 215.083 121.157 210.638 120.797 206.235C120.286 199.76 120.618 193.271 120.493 186.796C120.466 185.191 120.175 183.75 118.724 182.214C117.453 181.624 115.78 180.829 114.011 180.005C112.684 180.925 111.274 180.568 109.865 179.923C109.34 179.676 108.8 179.457 108.261 179.251C107.114 178.812 105.981 178.908 104.889 179.457C102.346 180.719 100.605 182.667 99.5817 185.314C98.6972 187.619 98.2687 190.02 98.1029 192.434C97.7021 198.347 96.4167 204.081 94.7305 209.733C94.0947 211.873 93.5833 214.068 92.8646 216.18C91.7589 219.445 90.5012 222.683 89.3264 225.92C89.2573 226.099 89.2296 226.277 89.1605 226.496C90.1418 227.223 91.0955 227.95 92.0906 228.691C93.7492 227.649 94.689 226.098 95.9191 224.713C95.2004 223.149 93.528 222.12 93.3898 220.268C93.8183 219.87 94.4126 219.541 94.6752 219.034C98.0199 212.929 100.798 206.619 101.876 199.664C102.166 197.784 102.36 195.864 103.396 193.888C103.59 194.382 103.825 194.684 103.825 194.986C103.797 196.591 103.714 198.182 103.631 199.787C103.618 200.103 103.548 200.418 103.535 200.747C103.355 205.357 103.175 209.98 103.009 214.589C102.94 216.51 102.774 218.43 102.802 220.351C102.844 223.945 102.871 227.539 103.148 231.119C103.396 234.165 103.797 237.224 104.723 240.187C105.179 241.655 105.442 243.164 105.829 244.659C106.036 245.455 106.326 246.237 106.575 246.978C109.782 248.816 113.099 250.009 116.651 250.503C117.605 250.64 118.627 250.311 119.65 250.201C119.581 251.216 118.641 251.313 117.95 251.902C117.107 257.307 116.43 262.877 115.117 268.268C111.15 268.68 107.045 268.09 102.926 266.567C102.816 265.909 102.692 265.236 102.581 264.592C102.222 264.262 101.904 263.974 101.544 263.631C101.337 261.011 101.213 258.377 100.895 255.771C100.591 253.26 100.922 250.668 99.8582 248.116C99.6094 248.5 99.4435 248.747 99.3606 248.884C95.8362 248.185 92.3671 247.485 88.8841 246.813C88.5248 246.744 88.1378 246.854 87.5711 246.895C87.6264 248.144 87.6817 249.296 87.7369 250.448C86.9077 250.119 86.8109 249.557 86.7695 248.939C86.3687 244.22 85.9402 239.487 85.5394 234.768C85.3873 232.916 85.3182 231.051 85.0971 229.213C84.9036 227.566 84.5857 225.934 84.2402 224.315C84.1711 223.986 83.7979 223.725 83.5491 223.437C83.5906 222.916 83.6597 222.353 83.6597 221.791C83.6459 218.512 83.6044 215.247 83.5906 211.969C83.5906 211.063 83.632 210.158 82.8028 209.307C81.3377 208.786 79.7068 208.21 77.7857 207.538C77.2881 207.853 76.5556 208.32 75.9336 208.718C75.6157 210.268 76.3483 211.42 76.6523 212.641C76.9702 213.876 77.3434 215.11 77.8409 216.276C78.3385 217.456 79.0434 218.54 79.6377 219.678C80.2182 220.762 80.7711 221.86 81.5174 223.273C78.1312 222.834 75.1596 222.422 72.1742 222.052C70.1978 221.805 68.2076 221.599 66.2173 221.393C64.9319 221.27 63.6466 221.119 62.3612 221.091C56.4457 220.968 50.6684 221.928 44.9879 223.492C40.648 224.686 36.3635 226.112 32.0098 227.319C27.4902 228.582 22.9431 229.802 18.3682 230.831C15.1202 231.558 11.7755 231.942 8.26492 232.519C8.23727 231.682 8.19581 230.996 8.19581 230.31C8.23727 193.381 8.29256 156.451 8.33402 119.522C8.33402 113.994 8.30638 108.479 8.25109 102.95C8.25109 102.004 8.01613 101.071 7.90556 100.262C5.61124 98.5332 3.62098 96.8458 2.22504 94.5275C0.898203 92.3188 0.815276 90.1788 2.04537 87.9702C3.48277 85.3912 4.96164 82.8259 7.408 81.0013C8.25109 80.3703 8.55516 79.4512 8.54134 78.4498C8.5137 76.2 8.41695 73.9639 8.38931 71.7141C8.34784 68.6961 8.30638 65.6781 8.30638 62.6601C8.30638 45.3203 8.33402 27.9806 8.36166 10.6408C8.36166 10.0235 8.45841 9.40616 8.5137 8.74768C83.1207 8.74768 157.534 8.59679 231.934 8.80256C274.42 8.92602 316.907 8.80256 359.545 8.95346C359.6 9.46103 359.711 9.95489 359.711 10.435C359.697 25.525 359.656 40.615 359.628 55.705C359.628 57.749 359.628 59.793 359.628 61.5901C360.927 63.6204 362.226 65.3215 363.194 67.1871C365.295 71.2751 365.267 75.3083 362.378 79.1082C361.522 80.2331 360.637 81.3306 359.725 82.4829V228.389C359.504 228.527 359.407 228.664 359.296 228.65C355.233 228.568 351.156 228.595 347.092 228.376C337.943 227.896 329.263 225.193 320.514 222.765C314.806 221.187 309.084 219.678 303.293 218.43C300.349 217.799 297.267 217.785 294.254 217.538C292.581 217.401 290.909 217.346 289.071 217.237C286.168 220.159 283.791 223.547 281.248 227.114C283.1 226.935 284.703 226.826 286.293 226.62C290.038 226.14 293.77 226.236 297.502 226.62C306.098 227.484 314.322 229.871 322.49 232.464C329.194 234.576 335.952 236.469 342.863 237.786C347.921 238.76 352.98 239.048 358.066 237.965C358.384 237.896 358.702 237.882 359.034 237.869C359.283 237.869 359.545 237.896 359.877 237.91C360.43 239.213 360.029 240.557 360.084 241.874C360.139 243.15 360.084 244.44 360.084 245.839C359.504 246.031 358.978 246.305 358.426 246.36C353.657 246.882 348.93 246.964 344.148 246.196C337.376 245.098 330.811 243.274 324.287 241.243C317.833 239.227 311.461 236.895 304.799 235.591C302.284 235.098 299.713 234.823 297.156 234.494C296.009 234.343 294.834 234.206 293.687 234.22C286.776 234.343 279.893 234.7 273.287 237.087C269.79 238.349 266.722 240.352 263.695 242.451C258.885 245.798 254.131 249.241 249.155 252.341C245.561 254.591 241.65 256.333 237.891 258.322C237.186 258.693 236.26 258.816 235.914 260.01C236.44 260.12 236.923 260.339 237.366 260.27C239.964 259.845 242.604 259.53 245.147 258.858C248.436 257.98 251.67 256.814 254.905 255.716C259.245 254.248 263.598 252.822 267.883 251.23C272.568 249.502 277.406 248.459 282.284 247.54C287.537 246.552 292.83 246.497 298.137 246.84C300.763 247.005 303.362 247.65 305.96 248.089C312.346 249.186 318.482 251.134 324.633 253.082C331.225 255.154 337.901 256.827 344.743 257.911C348.944 258.583 353.104 258.309 357.251 257.445C358.066 257.28 358.882 257.102 359.697 256.923C360.167 258.117 360.264 262.589 359.905 265.264C359.808 265.346 359.711 265.47 359.6 265.483C355.73 266.142 351.861 267.102 347.908 266.787C345.088 266.567 342.296 265.964 339.491 265.525C333.796 264.619 328.378 262.753 322.919 260.984C317.833 259.338 312.733 257.705 307.577 256.292C303.597 255.208 299.533 254.413 295.359 254.468C294.654 254.468 293.95 254.248 293.245 254.276C289.762 254.385 286.251 254.358 282.796 254.742C276.01 255.469 269.652 257.87 263.266 260.12C256.273 262.575 249.307 265.14 242.065 266.842C236.412 268.172 230.718 268.46 224.996 267.088C222.991 266.608 220.974 266.183 218.956 265.744C218.223 266.018 217.477 266.265 216.786 266.581C214.187 267.747 211.368 267.637 208.631 268.049C207.816 268.172 206.986 268.309 205.922 268.474C209.253 270.587 212.653 271.711 216.178 272.507C220.587 273.495 225.009 274.469 229.515 274.839C234.809 275.278 240.074 275.306 245.327 274.249C251.408 273.028 257.448 271.711 263.28 269.613C266.252 268.543 269.196 267.404 272.181 266.361C276.88 264.715 281.718 263.686 286.707 263.275C289.886 263.014 293.037 263.124 296.189 263.412C299.077 263.673 301.938 264.18 304.799 264.688C312.705 266.087 320.251 268.776 327.895 271.122C333.561 272.85 339.297 274.332 345.226 275.031C349.704 275.566 354.113 275.566 358.481 274.29C358.896 274.167 359.352 274.222 359.766 274.181C360.167 275.786 360.139 280.985 359.711 282.535C359.075 282.645 358.384 282.809 357.693 282.851C353.768 283.098 349.884 283.523 345.904 283.262C338.647 282.768 331.889 280.532 325.116 278.228C319.56 276.348 314.004 274.469 308.434 272.644C304.62 271.396 300.681 270.833 296.659 270.6C293.411 270.408 290.176 270.504 286.984 270.806C283.985 271.094 280.971 271.67 278.083 272.535C273.149 274.002 268.311 275.813 263.419 277.459C259.507 278.776 255.637 280.23 251.532 280.889C248.478 281.383 245.437 281.945 242.314 281.931C239.01 281.918 235.707 282.028 232.418 281.863C225.839 281.52 219.315 280.697 212.971 278.817C206.489 276.897 199.924 275.237 193.276 273.934C192.073 273.701 190.843 273.577 189.627 273.509C183.228 273.152 176.829 272.809 170.429 273.111C165.979 273.316 161.625 274.304 157.354 275.58C151.854 277.212 146.38 278.886 140.866 280.45C136.346 281.739 131.744 282.7 127.086 283.399C125.179 283.687 123.23 283.77 121.295 283.825C118.185 283.907 115.089 283.838 111.979 283.893C107.75 283.962 103.645 283.18 99.5817 282.096C93.3345 280.436 87.3223 278.118 81.3239 275.786C77.9515 274.469 74.5515 273.275 70.9442 272.795C70.0458 272.672 69.1336 272.699 68.2352 272.644C61.6287 272.233 55.2709 273.467 48.9822 275.402C43.3846 277.13 37.8285 279.023 32.0651 280.148C30.2959 280.491 28.513 280.765 26.7162 280.958C24.6016 281.191 22.4731 281.355 20.3585 281.465C17.069 281.643 13.7796 281.753 10.4901 281.877C9.85436 281.904 9.20476 281.877 8.47223 281.877C7.47711 279.27 8.14053 276.636 7.83646 273.989C8.36167 273.906 8.72102 273.797 9.09419 273.783C15.5487 273.591 22.017 273.248 28.3886 272.137C32.5626 271.41 36.6675 270.244 40.8001 269.215C45.1123 268.145 49.3831 266.842 53.7367 265.922C59.3896 264.743 65.1392 264.509 70.9027 265.113C78.0483 265.867 84.6686 268.433 91.289 270.984C95.311 272.535 99.3053 274.181 103.562 275.059C108.648 276.101 113.735 276.609 118.945 276.197C123.589 275.827 128.205 275.319 132.78 274.51C139.58 273.303 146.27 271.615 152.766 269.215C154.397 268.611 156.069 268.104 157.7 267.527C158.474 267.253 159.22 266.896 160.45 266.375C159.511 266.087 159.013 265.922 158.515 265.785C155.71 265.058 152.904 264.359 150.112 263.59C149.435 263.412 148.827 263.028 148.15 262.726C138.793 266.018 129.145 268.062 119.001 268.46C118.724 265.675 119.083 263.096 119.388 260.435C124.253 259.653 129.256 259.928 134.232 258.199C129.933 255.812 125.414 254.317 122.608 250.448C123.119 248.075 124.073 245.908 123.271 243.479C123.575 243.315 123.866 243.027 124.211 242.958C131.688 241.312 139.138 239.57 146.491 237.443C150.568 236.264 154.618 234.96 158.695 233.794C164.03 232.258 169.42 230.996 174.976 230.68C177.547 230.529 180.132 230.804 182.703 230.872C183.532 230.9 184.361 230.872 185.315 230.872C186.42 228.293 187.706 225.824 188.107 222.971C188.66 218.979 189.447 215.028 190.111 211.05C190.415 209.225 190.567 207.359 190.885 205.535C191.23 203.532 191.714 201.557 192.101 199.554C192.212 198.991 192.35 198.36 192.198 197.839C191.783 196.357 191.949 194.958 192.35 193.504C192.723 192.16 192.751 190.719 193.11 189.375C194.492 184.354 194.147 179.224 194.312 174.12C194.395 171.775 194.506 169.415 194.63 167.069C194.658 166.507 194.851 165.944 194.921 165.574C194.921 164.559 194.962 163.736 194.921 162.926C194.879 162.24 194.741 161.554 194.616 160.869C194.243 158.77 193.939 156.712 194.257 154.531C194.547 152.583 194.312 150.566 194.312 148.687C194.008 148.042 193.773 147.507 193.566 147.054C193.566 145.202 193.345 143.46 193.967 141.663C194.34 140.579 194.174 139.262 194.022 138.083C193.829 136.45 193.414 134.831 193.082 133.144C194.036 131.539 194.299 129.865 193.29 128.164C192.474 128.274 191.797 128.37 191.064 128.48C190.553 126.395 190.083 124.433 189.613 122.485H189.254C189.143 122.91 188.964 123.308 188.95 123.72C188.881 125.75 188.922 127.794 188.798 129.824C188.742 130.771 188.494 131.745 188.134 132.609C187.416 134.365 187.333 136.162 187.333 138C187.333 138.7 187.499 139.551 186.448 140.058C185.038 135.915 184.803 131.704 184.527 127.341C184.099 127.19 183.656 127.04 183.048 126.82C182.633 127.286 182.246 127.698 181.763 128.233C181.929 129.015 182.108 129.811 182.274 130.593C182.329 130.593 182.385 130.565 182.44 130.551C182.647 133.295 182.772 136.052 183.09 138.782C183.407 141.499 183.919 144.201 184.333 146.807C183.297 148.289 183.062 149.867 182.744 151.43C182.551 152.404 182.523 153.447 181.528 154.38C180.878 152.802 180.616 151.307 180.657 149.798C180.726 147.603 180.187 145.49 179.759 143.378C179.593 142.527 178.805 141.787 178.155 141.101C177.575 139.29 177.008 137.479 176.414 135.682C176.386 135.613 176.193 135.6 176.027 135.545C174.894 136.244 175.598 137.589 174.935 138.439C176.082 140.758 175.958 143.227 176.303 145.614C176.442 146.547 176.497 147.493 176.635 148.426C177.077 151.403 177.575 154.366 177.99 157.343C178.072 157.96 177.948 158.605 177.907 159.332C177.354 159.703 176.842 160.045 176.151 160.498C175.737 160.018 175.211 159.661 175.046 159.181C174.645 158.056 174.424 156.877 174.12 155.724C173.94 155.052 173.746 154.38 173.539 153.625C173.65 153.461 173.816 153.186 174.023 152.857C173.829 152.706 173.636 152.555 173.415 152.377C172.461 153.694 171.535 154.956 170.609 156.246C170.664 156.575 170.637 156.931 170.775 157.192C171.59 158.633 171.659 160.183 171.853 161.788C172.116 163.873 172.42 166.109 174.009 167.851C173.926 168.359 173.843 168.853 173.774 169.319C174.147 169.813 174.493 170.266 175.087 171.061C174.368 170.814 173.995 170.691 173.29 170.458C173.677 171.24 173.898 171.72 174.147 172.227C173.816 173.091 173.498 173.956 173.097 175.012C172.599 173.846 172.129 172.762 171.632 171.596C170.802 172.049 170.706 172.666 170.623 173.352C170.844 173.764 171.079 174.203 171.355 174.71C170.885 174.998 170.471 175.245 169.973 175.547C169.932 176.439 169.89 177.33 169.849 178.277C169.476 178.318 169.116 178.373 168.619 178.428C168.121 177.413 167.61 176.384 167.057 175.259C167.098 174.532 167.14 173.723 167.195 172.721C167.817 173.037 168.19 173.229 168.757 173.503C169.268 172.419 169.752 171.404 170.291 170.238C169.047 168.935 170.111 166.713 168.315 165.423C166.988 166.85 167.347 168.455 167.693 169.964C167.914 170.924 167.969 171.706 166.974 172.474C166.49 172.145 165.979 171.816 165.357 171.404H163.989C162.786 169.689 164.32 167.892 163.823 166.191C163.201 165.944 162.662 165.739 162.123 165.519C161.1 164.353 160.077 163.201 160.367 161.143C160.934 161.87 161.28 162.309 161.805 162.981C162.247 161.143 160.976 160.635 160.105 159.867C160.146 159.483 160.174 159.113 160.215 158.729C160.658 158.605 161.017 158.509 161.446 158.386C161.28 158.194 161.141 158.015 160.851 157.659C161.293 157.357 161.722 157.069 162.164 156.781C162.759 157.137 163.215 157.425 163.657 157.686C164.279 156.931 163.823 156.438 163.394 155.848C163.588 155.615 163.795 155.381 164.044 155.08C164.307 155.532 164.459 155.793 164.652 156.122C165.758 155.93 165.896 155.011 166.311 154.133C165.108 153.694 163.781 153.584 163.408 152.144C162.938 151.993 162.454 151.856 161.846 151.664C162.067 151.088 162.275 150.607 162.524 149.976C161.805 149.798 161.211 149.647 160.616 149.51C160.589 149.263 160.561 149.085 160.52 148.783C161.307 148.632 162.067 148.481 162.911 148.303C163.076 148.728 163.242 149.112 163.422 149.565C163.629 149.455 163.85 149.414 163.92 149.29C164.154 148.838 164.334 148.358 164.555 147.836C164.984 147.919 165.343 148.001 165.799 148.097C166.076 147.754 166.38 147.356 166.684 146.986C166.311 146.355 165.993 145.806 165.647 145.23C165.951 144.942 166.228 144.681 166.559 144.366C166.214 143.94 165.868 143.515 165.523 143.104C165.398 143.172 165.274 143.254 165.15 143.323C165.081 143.776 165.025 144.228 164.942 144.791C164.044 144.75 163.173 144.709 162.648 144.681C161.446 144.928 161.294 146.478 159.676 145.82C160.243 145.559 160.533 145.422 160.907 145.244C161.128 144.667 161.376 144.05 161.639 143.392C161.515 143.131 161.363 142.857 161.128 142.39C160.754 142.911 160.464 143.323 160.16 143.748C160.05 143.639 159.884 143.529 159.898 143.474C160.05 142.733 160.298 142.006 159.856 141.252C159.773 141.101 160.077 140.73 160.257 140.319C160.602 140.579 160.851 140.758 161.072 140.936C161.321 140.662 161.57 140.387 161.874 140.044C162.302 140.236 162.689 140.401 163.132 140.593C163.698 139.016 164.251 137.438 164.928 135.531C164.859 135.408 164.611 134.9 164.389 134.475C164.472 132.595 165.26 131.045 166.338 129.687C167.444 128.274 167.886 126.655 168.287 125.133C167.983 123.679 166.546 125.064 166.117 124.104C165.274 125.901 163.809 126.957 161.943 127.52C160.989 127.451 160.036 127.382 158.93 127.3C158.695 126.916 158.405 126.45 158.184 126.093C157.009 125.997 155.959 125.901 154.618 125.791C153.789 126.738 152.517 125.681 151.273 125.873C154.673 122.513 157.576 118.822 160.672 114.844C159.911 114.94 159.455 115.009 158.681 115.118C156.815 117.094 154.798 119.22 152.793 121.36C152.448 121.731 152.075 122.115 151.84 122.567C150.997 124.131 149.753 125.325 148.288 126.463C147.555 126.559 146.74 126.669 145.869 126.793C144.902 126.463 143.879 126.12 142.704 125.723C141.626 126.71 140.506 127.725 139.332 128.795C138.917 128.123 138.571 127.547 138.143 126.834C139.815 124.762 141.571 122.595 143.243 120.523H144.694C145.192 119.193 146.795 118.658 147.486 117.039C146.823 117.039 146.339 116.916 145.993 117.066C145.233 117.396 144.487 117.821 143.823 118.315C142.386 119.385 141.004 120.523 139.719 121.525C137.839 123.761 136.153 126.011 134.204 128.027C133.319 128.933 132.006 129.591 130.375 129.166C132.407 126.354 135.296 124.241 136.554 120.729C135.572 119.755 134.549 118.74 133.499 117.739C133.444 117.684 133.167 117.835 132.891 117.931C133.195 118.466 133.471 118.946 133.858 119.604C133.098 120.674 132.324 121.758 131.55 122.842C129.988 125.037 128.523 127.314 126.823 129.413C125.192 131.429 123.023 132.815 120.493 133.583C118.558 134.173 116.623 134.516 114.619 133.857C114.025 133.665 113.5 133.528 113.541 132.623C113.859 132.445 114.232 132.239 114.536 132.074C115.117 132.335 115.614 132.568 116.209 132.842C116.789 132.307 117.301 131.841 117.812 131.374C117.674 130.839 117.563 130.414 117.439 129.948C116.9 129.591 116.375 129.248 115.739 128.823C115.891 128.274 116.043 127.739 116.181 127.245C117.204 126.765 118.13 126.34 119.056 125.915C119.595 125.668 119.857 125.297 119.636 124.543C119.222 124.378 118.724 124.186 118.213 123.98C118.254 123.706 118.213 123.432 118.337 123.363C118.849 122.993 119.36 122.513 119.94 122.375C121.737 121.936 123.575 121.662 125.4 121.278C126.713 121.004 128.026 120.674 128.938 120.469C130.486 119.179 131.702 118.164 132.946 117.135C132.421 116.024 131.937 115.009 131.412 113.911H130.071C130.002 114.268 129.947 114.611 129.85 115.105C129.477 115.064 129.104 115.009 128.551 114.94C129.297 113.939 129.878 113.129 130.541 112.238C130.417 111.716 130.279 111.099 130.154 110.564C131.08 108.479 132.974 107.56 135.393 107.793C137.355 107.985 139.193 108.643 140.907 109.453C142.718 110.303 144.252 109.906 145.897 109.288C146.477 109.069 147.099 108.945 147.541 108.822C149.822 110.125 151.937 111.195 154.576 110.564C154.314 109.453 153.222 109.247 152.572 108.643C151.923 108.04 151.107 107.587 150.333 107.162C149.836 106.888 149.269 106.709 148.716 106.586C146.38 106.064 144.114 105.379 142.041 104.034C142.179 103.87 142.289 103.636 142.428 103.623C144.335 103.403 145.952 102.457 147.5 101.455C148.661 100.701 149.919 100.536 151.204 100.632C153.319 100.797 155.419 101.085 157.52 101.373C158.515 101.51 159.483 101.812 160.437 102.374C161.363 102.21 162.275 102.059 163.546 101.839C162.869 101.112 162.468 100.687 162.012 100.193C162.095 99.9324 162.178 99.6306 162.302 99.2328C163.92 99.5895 165.44 100.042 167.002 100.221C168.522 100.385 170.084 100.262 171.839 100.262C172.06 99.9873 172.42 99.562 172.807 99.1093C172.364 98.0667 171.95 97.0653 171.59 96.2011C170.485 95.5838 169.545 95.0488 168.591 94.5275C168.536 92.895 166.794 92.6892 166.172 91.5506H164.072C161.515 91.0156 159.676 89.3557 157.576 87.8193C157.299 87.3254 156.94 86.6532 156.58 86.0085C156.885 84.9522 158.046 85.2814 158.681 84.6229C158.792 83.9919 158.515 83.4843 157.907 83.0865C156.401 83.0316 156.138 84.6367 155.06 85.1717C154.051 85.6792 153.167 86.4063 152.213 87.0373C151.508 86.5298 150.941 86.1182 150.292 85.6655C149.905 85.8713 149.518 86.0633 149.145 86.2966C147.68 87.2294 146.228 88.1897 144.749 89.1088C144.376 89.342 143.893 89.5752 143.492 89.534C141.944 89.4106 140.783 90.3297 139.553 90.9882C138.875 91.3586 138.406 92.1405 137.908 92.799C137.258 93.6495 136.526 94.1022 135.434 93.7181C135.365 92.1131 136.028 90.7961 136.954 89.6575C137.825 88.5875 138.875 87.6409 139.967 86.5023C139.677 85.9262 139.373 85.3088 139.083 84.6915C138.71 83.8822 138.309 83.0728 138.032 82.236C137.742 81.358 137.963 80.5898 138.848 80.1645C140.423 79.8627 141.073 81.3031 142.234 81.8793C142.967 81.1934 143.257 80.384 143.298 79.4649C143.34 78.3126 143.81 77.3523 144.694 76.6115C145.869 75.6238 146.463 74.0599 147.956 73.3877C148.191 73.278 148.412 73.1683 148.799 72.9762C150.762 73.8679 152.793 74.787 154.825 75.7061C155.516 75.5141 156.124 75.3494 156.898 75.1437C156.967 74.3755 157.023 73.6347 157.078 72.9762C156.498 71.9199 155.654 71.0968 155.959 69.5741C156.498 69.2174 157.216 68.7373 157.838 68.3257C160.146 69.2586 161.349 70.9459 162.081 73.0036C162.441 74.0188 163.007 74.8419 163.85 75.1437C164.597 76.3234 165.233 77.3249 166.034 78.5869C166.656 76.4195 165.855 75.0476 164.624 73.7993C165.302 72.7979 166.103 71.9199 166.518 70.9048C166.933 69.8896 166.96 68.7098 167.181 67.4889C166.076 67.1734 165.15 66.9128 164.279 66.6658C163.657 65.8839 163.063 65.1431 162.468 64.3886C162.385 64.4846 162.302 64.5807 162.206 64.6767C161.929 63.9634 161.653 63.2637 161.446 62.715C160.561 61.9331 159.649 61.9056 158.737 61.9194C157.838 61.9194 156.94 61.9194 156.041 61.9194C155.502 61.1511 155.032 60.4927 154.576 59.8479C155.171 59.1071 155.696 58.4349 156.193 57.8176C155.627 56.8711 155.019 57.022 154.438 57.3923C152.337 58.7642 149.96 59.2306 147.541 59.6284C147.058 59.7107 146.574 59.9165 146.118 60.1223C145.551 60.3692 145.012 60.6984 144.086 60.2869C144.791 59.6833 145.358 59.2169 146.035 58.6544C146.007 58.2703 145.98 57.7902 145.952 57.1043C145.095 56.9259 144.293 56.6653 143.492 56.6241C142.745 56.583 141.971 56.775 141.17 56.8848C140.645 56.3223 140.188 55.8148 139.774 55.3483C140.216 54.4292 140.921 54.292 141.612 54.1686C144.528 53.661 147.445 53.0848 150.375 52.6596C151.881 52.4401 153.429 52.495 154.742 52.4401C157.285 51.6307 159.676 50.9036 162.067 50.1217C162.938 49.8336 163.74 49.9022 164.486 50.3824C166.062 51.3701 167.693 52.3029 169.144 53.469C170.07 54.2097 170.72 55.2935 171.452 56.2675C171.991 56.9945 172.447 57.7765 173.539 58.0097C173.567 58.0097 173.705 58.0371 173.816 58.0097C176.248 57.31 176.925 57.653 177.658 60.0262C177.81 60.5064 177.879 61.0277 177.976 61.5215C178.183 62.5915 178.307 62.7836 179.427 63.593C180.049 63.1265 179.855 62.3995 179.869 61.8096C179.938 58.8602 179.883 55.9108 179.994 52.9751C180.077 50.8076 180.312 48.6539 181.362 46.651C181.984 45.4712 182.786 44.5384 183.822 43.7428C184.264 43.3998 184.679 42.9745 185.011 42.5218C185.743 41.5616 186.614 40.8071 187.816 40.615C190.138 40.2446 192.405 39.5038 194.782 40.7248C195.929 41.3146 197.408 41.3146 198.749 41.4381C200.656 41.6164 202.578 41.685 204.485 41.7948C204.734 41.8085 204.982 41.8771 205.328 41.9457C205.411 42.3024 205.494 42.6453 205.591 43.0157C204.512 43.9897 203.324 44.2503 201.969 44.2092C200.615 44.1543 199.247 44.168 198.196 45.2792C198.003 45.485 197.616 45.6084 197.312 45.6359C195.612 45.7868 193.898 45.8828 191.977 46.02C192.101 47.2272 192.267 48.4892 192.35 49.765C192.391 50.3961 192.433 51.082 191.479 51.3975C191.299 50.9585 191.12 50.5333 190.926 50.0806H190.152C190.498 49.0517 190.843 48.064 191.175 47.09C190.567 46.4315 190.028 46.3081 189.392 46.9254C189.129 48.3795 188.715 49.8611 188.618 51.3563C188.521 52.8516 188.729 54.3606 188.812 55.8148C188.452 56.3498 188.231 56.9534 187.803 57.2963C186.047 58.723 185.992 60.6984 185.771 62.6876C185.55 64.6493 185.107 66.5835 184.734 68.6001C185.218 69.3409 185.729 70.1365 186.186 70.8362C185.964 71.9885 185.771 72.9899 185.55 74.1422C185.094 74.7596 183.808 74.9242 183.919 76.2823C184.389 77.4209 186.158 77.7227 186.338 79.2728V81.6598C186.448 81.6872 186.573 81.7147 186.683 81.7421C186.877 81.262 187.153 80.7956 187.25 80.3017C187.747 77.5169 189.973 75.5689 190.747 72.5784C191.23 73.2643 191.493 73.6484 191.838 74.1285C192.184 72.9213 191.382 72.208 191.147 71.7278C191.369 70.3835 191.534 69.3409 191.769 67.8593C191.935 67.6124 192.364 66.9814 192.875 66.2406C193.76 67.1871 193.718 68.216 193.303 69.1077C192.516 70.8499 192.654 72.5235 193.303 74.2657C193.704 74.4852 194.091 74.7047 194.575 74.9791C195.487 74.2794 196.925 74.6635 197.699 73.5935C197.63 73.4289 197.616 73.3466 197.588 73.3192C196.897 72.7018 195.501 72.6058 195.542 71.4809C195.584 70.2463 195.791 68.8196 196.455 67.8456C197.339 66.5561 197.92 65.1706 198.638 63.8262C198.846 63.4283 199.081 63.0442 199.26 62.7287C199.551 61.8645 198.998 60.8493 200.117 60.04C200.311 60.7807 200.463 61.3569 200.684 62.1663C201.016 62.5915 201.486 63.1951 202.025 63.881C202.37 63.7439 202.84 63.7164 203.02 63.4695C203.642 62.6053 204.153 61.6587 204.568 60.6573C206.199 59.6147 206.005 57.2003 207.705 56.2812C209.17 56.3635 209.585 57.6118 210.317 58.3389C211.617 58.4212 211.52 57.0082 212.501 56.6379C212.75 56.7613 213.082 56.9259 213.4 57.1043C213.676 57.2689 213.939 57.4472 214.243 57.6393C214.464 58.2154 214.685 58.819 214.934 59.4912C215.293 59.7519 215.708 60.0537 216.039 60.2869C217.035 61.4255 216.841 63.2637 218.472 63.8673C219.315 63.4284 220.13 63.0442 220.891 62.5915C222.577 61.5901 224.443 61.5352 226.322 61.4941C227.331 61.4804 228.354 61.4804 229.363 61.3843C229.791 61.3432 230.206 61.0825 230.51 60.9591C231.713 61.0551 232.791 61.1511 233.979 61.2472V62.6053C234.753 63.2089 235.583 63.8811 236.384 64.5121C239.932 64.6035 242.069 65.07 242.797 65.9113C242.244 66.1308 241.733 66.3229 241.277 66.5012C240.71 66.268 240.227 66.076 239.729 65.8839C239.383 65.9799 239.024 66.076 238.651 66.172C238.098 65.9388 237.573 65.7056 236.979 65.4586C236.205 66.1171 235.458 66.7619 234.712 67.4066C233.288 66.899 232.031 66.4326 230.704 65.9525C230.123 66.1583 229.46 66.3778 228.852 66.5835C227.926 66.2817 227.083 65.9936 226.364 65.7604C225.148 66.4601 224.097 67.0499 223.102 67.6261C222.535 67.5164 222.038 67.4341 221.72 67.3655C220.476 67.9965 219.398 68.5315 218.458 69.0254C217.615 68.7784 217.007 68.6001 216.191 68.3532C215.058 68.9293 213.828 69.6015 212.543 70.1914C212.045 70.4246 211.451 70.4521 210.787 70.603C210.677 70.8087 210.525 71.0694 210.345 71.3575C210.635 71.5084 210.856 71.6318 211.036 71.7278C210.193 72.0296 209.295 72.2629 208.493 72.6744C207.125 73.374 207.069 73.621 207.553 74.9105C208.065 74.8282 208.604 74.7596 209.378 74.6498C209.06 75.4043 209.212 76.1725 208.286 76.5841C208.065 76.2274 207.843 75.8707 207.622 75.5278C207 75.3769 206.365 75.2397 205.66 75.0751C204.899 75.3906 204.07 75.7198 203.186 76.0902C202.964 76.4195 202.716 76.7761 202.425 77.2014C200.532 76.5429 199.316 78.4498 197.477 78.2851C197.533 78.6692 197.56 78.9025 197.602 79.218C198.003 79.1494 198.307 79.1082 198.735 79.0259C198.901 79.4375 199.067 79.8902 199.26 80.3703H200.311C200.49 79.7118 200.656 79.0671 200.864 78.2714C201.472 79.9999 201.472 80.0273 200.338 82.2497C200.67 83.0042 200.974 83.6764 201.334 84.4995C200.739 84.5955 200.325 84.6504 200.09 84.6915C199.15 83.9919 198.348 83.4157 197.782 82.9905H194.782C194.672 83.3334 194.534 83.7724 194.299 84.4858C194.907 84.3623 195.238 84.2937 195.625 84.2114C196.082 84.472 196.621 84.7738 197.229 85.1168C197.505 85.6792 197.809 86.3103 198.099 86.9001C197.975 87.4489 197.864 87.929 197.74 88.4915C198.251 88.903 198.735 89.3008 199.247 89.7261C199.634 89.6987 200.007 89.6849 200.435 89.6575C200.808 89.0265 201.154 88.4366 201.569 87.737C202.08 87.394 202.66 87.0099 203.296 86.5709C203.78 86.7218 204.25 86.8727 204.734 87.0099C205.825 86.5983 206.904 86.1868 207.982 85.789C208.977 84.6778 209.101 82.7847 211.202 82.4829C211.7 82.9493 212.294 83.498 212.957 84.1154C212.708 84.6092 212.487 85.0482 212.183 85.6381C212.639 85.7067 213.013 85.7615 213.469 85.8301C213.814 83.9233 214.92 83.0316 216.73 82.7298C217.85 82.5515 218.914 81.9891 220.02 81.6461C221.112 81.3031 222.148 80.8504 223.378 80.9739C224.166 81.0562 225.009 80.6584 225.991 80.4252C226.806 80.7544 227.746 81.1385 228.658 81.5089C228.796 82.2634 228.907 82.8807 229.031 83.5804C230.69 84.0742 232.293 85.0345 233.813 83.5666C234.062 83.5803 234.228 83.5392 234.311 83.6078C236.066 84.8699 238.181 84.7601 240.157 85.1442C241.692 85.446 243.005 86.1868 244.276 87.0373C244.304 87.6409 244.331 88.1348 244.359 88.7795C243.834 89.1911 243.364 89.7673 242.742 90.0279C240.904 90.7961 239.038 91.5095 237.144 92.1131C236.053 92.456 234.878 92.7441 233.758 92.7029C231.865 92.6344 230.275 93.6083 228.52 93.9376C227.801 94.0748 227.055 94.1296 226.157 94.2531C225.023 95.0762 223.71 96.0227 222.439 96.9556C222.618 97.3671 222.701 97.5592 222.826 97.8473C222.397 98.053 222.024 98.3274 221.609 98.4371C220.006 98.8898 218.389 99.3288 216.758 99.6855C215.915 99.8638 215.196 100.138 214.505 100.673C213.925 101.126 213.109 101.277 212.335 101.579C212.225 102.072 212.128 102.553 212.045 102.937C210.566 103.266 209.129 103.54 207.885 104.528C208.286 105.968 209.474 106.641 210.469 107.313C211.465 107.985 212.377 108.602 212.708 109.7C213.372 109.988 213.897 110.221 214.229 110.358C215.929 110.029 217.435 109.741 218.997 109.439C219.799 109.933 220.587 110.427 221.388 110.921C219.508 111.058 217.643 110.166 215.97 111.757C216.233 112.279 216.482 112.759 216.786 113.376C216.108 113.513 215.514 113.637 214.878 113.76C214.021 115.05 214.616 116.106 215.459 117.039C217.062 118.809 218.928 120.208 221.264 120.99C222.95 121.552 224.581 122.293 226.309 122.979C227.262 126.134 229.087 128.48 232.196 129.783C232.887 129.468 233.578 129.152 234.256 128.85C234.025 128.274 233.523 127.863 232.749 127.616C232.293 127.026 231.809 126.422 231.312 125.791C231.27 125.366 231.229 124.927 231.174 124.378C231.422 124.008 231.713 123.61 232.031 123.144C231.726 122.526 231.422 121.923 230.952 120.976C232.722 121.635 232.901 123.569 234.505 123.953C234.767 123.775 235.085 123.569 235.5 123.294C236.011 123.775 236.453 124.762 237.6 123.994C237.697 123.5 237.808 122.897 237.932 122.183C238.969 122.279 239.563 123.089 240.489 123.528C240.088 124.118 239.729 124.625 239.328 125.229C239.812 125.64 240.227 125.997 240.309 126.079C241.65 129.18 242.825 131.909 244.041 134.639C244.152 134.873 244.497 135.01 244.981 135.38C245.879 131.237 246.999 127.437 249.293 124.09C250.993 124.282 252.251 122.444 253.882 123.733C255.679 122.334 257.379 120.921 259.175 119.659C260.862 118.493 262.741 117.629 264.483 117.245C266.473 117.944 268.228 118.534 269.97 119.179C270.799 119.481 271.739 119.687 272.112 120.674C271.96 121.415 271.255 121.415 270.744 121.511C269.68 121.731 268.56 122.005 267.496 121.909C266.501 121.813 265.685 122.046 264.925 122.499C261.608 124.461 258.332 126.477 255.057 128.507C254.421 128.905 253.896 129.495 253.329 129.975V132.156C253.813 132.568 254.227 132.952 254.642 133.295C253.813 135.202 252.914 137.013 252.928 139.153C252.624 139.715 252.223 140.346 251.933 141.018C251.836 141.252 251.975 141.581 252.002 141.855C252.251 141.869 252.417 141.937 252.486 141.883C253.91 140.703 255.319 139.482 256.743 138.316C257.641 137.575 258.788 137.63 259.866 137.493C260.488 137.41 261.11 137.26 261.732 137.232C262.423 137.205 263.128 137.232 263.819 137.342C264.441 137.452 265.036 137.726 265.81 137.973C267.15 137.383 268.56 136.779 270.067 136.107C270.675 136.231 271.421 136.382 272.375 136.56C272.112 137.232 271.891 137.781 271.601 138.494C272.098 138.892 272.623 139.331 273.176 139.784C273.411 140.264 273.66 140.758 273.964 141.361C274.434 141.06 274.78 140.84 275.332 140.497C276.203 141.114 277.143 141.759 278.055 142.445C279.133 143.241 280.17 144.119 281.289 144.873C282.119 145.436 282.768 146.108 283.086 147.041C282.409 148.015 282.063 148.179 281.289 147.795C280.778 147.535 280.28 147.205 279.866 146.794C278.428 145.367 276.784 145.394 275.028 145.998C274.849 146.067 274.669 146.122 274.351 146.231C273.439 145.82 272.458 145.381 271.158 144.805C269.97 144.722 268.712 145.038 267.91 146.533C267.662 146.999 267.081 147.301 266.597 147.727C266.556 148.028 266.501 148.399 266.445 148.728C267.233 150.1 268.698 149.949 269.984 150.47C270.191 150.731 270.481 151.06 270.73 151.43C271.241 152.171 271.849 152.747 272.651 153.228C273.895 153.996 275.042 154.97 276.134 155.944C277.876 157.508 279.852 158.646 282.008 159.538C283.708 160.238 284.427 160.978 284.924 162.611C284.482 162.295 284.219 162.089 283.943 161.925C283.224 161.513 282.519 161.061 281.773 160.731C281.027 160.416 280.405 160.69 279.99 161.472C280.446 162.583 281.193 163.448 282.063 164.216C283.031 165.066 283.805 166.068 284.206 167.302C284.275 167.536 284.261 167.783 284.316 168.345C283.791 167.933 283.404 167.741 283.169 167.44C282.312 166.397 281.593 165.231 280.654 164.298C279.852 163.502 278.829 162.913 277.862 162.295C277.378 161.993 276.811 161.815 276.258 161.568C275.028 161.733 273.757 161.897 272.789 162.021C270.979 161.884 269.445 161.774 267.924 161.637C265.906 161.445 263.875 161.294 261.857 160.992C261.055 160.869 260.309 160.347 259.521 160.1C259.079 159.949 258.581 159.977 257.931 159.895C258.429 160.882 258.802 161.651 259.314 162.707C259.811 162.871 260.558 163.118 261.304 163.365C261.359 163.256 261.414 163.146 261.484 163.036C262.34 163.804 263.266 164.504 264.04 165.341C266.252 167.755 268.657 169.936 271.49 171.637C272.319 172.131 273.024 172.803 273.84 173.325C274.987 174.038 275.512 175.122 275.678 176.356C276.189 180.088 276.963 183.778 277.972 187.413C278.29 188.579 278.083 189.69 277.516 190.719C276.452 191.062 275.429 191.392 274.6 191.652C273.37 193.436 274.337 194.999 274.503 196.536C274.641 197.798 275.07 199.033 275.374 200.308C275.07 200.953 274.766 201.57 274.448 202.229H273.259C272.914 201.57 272.541 200.843 272.154 200.13C271.587 199.074 271.269 197.908 270.688 196.824C270.108 195.754 270.094 194.368 269.956 193.106C269.652 190.431 269.486 187.742 269.182 185.081C269.002 183.462 268.864 183.339 267.662 182.255C267.275 182.338 266.846 182.447 266.21 182.584C265.865 182.118 265.478 181.569 265.036 180.979C265.685 180.225 266.21 179.594 266.943 178.743C266.819 177.742 266.639 176.548 266.528 175.355C266.459 174.655 266.473 173.942 266.432 173.242C266.376 172.159 266.349 172.131 265.312 171.226C264.884 171.816 264.455 172.419 264.027 173.023C263.64 172.927 263.405 172.872 263.045 172.79C263.239 172.337 263.405 171.98 263.598 171.541C262.921 171.651 262.327 171.747 261.746 171.829C261.428 171.006 261.166 170.32 260.903 169.607C261.235 169.264 261.566 168.921 261.981 168.482C261.069 167.618 260.406 166.575 258.719 167.001C258.913 167.687 259.079 168.276 259.258 168.907C259.023 169.168 258.733 169.484 258.553 169.676C258.788 171.061 258.996 172.296 259.189 173.421C258.802 174.011 258.512 174.491 258.166 175.026C257.088 174.943 256.923 175.959 256.618 176.754C254.863 175.863 254.089 174.381 253.357 172.803C252.887 171.788 252.154 170.883 251.339 169.621C250.993 170.279 250.634 170.636 250.648 170.965C250.772 173.133 250.44 175.478 252.666 177.056C253.025 176.891 253.412 176.713 253.882 176.494C254.449 177.989 255.001 179.416 255.54 180.842C256.204 182.598 257.24 184.135 258.443 185.575C258.913 186.137 259.3 186.7 258.885 187.509C257.932 187.66 257.503 187.043 257.047 186.398C256.674 185.877 256.245 185.397 255.789 184.944C254.67 183.819 253.509 182.708 252.362 181.583C251.311 182.255 251.684 183.147 251.781 183.915C252.016 185.63 252.334 187.317 252.638 189.101C252.873 189.375 253.163 189.718 253.495 190.102C253.191 190.925 252.873 191.762 252.472 192.846C253.136 194.533 253.868 196.358 254.67 198.374C254.214 198.209 253.84 198.072 253.384 197.894C253.011 199.389 253.536 200.871 253.647 202.339C253.757 203.93 254.062 205.508 254.338 207.071C254.601 208.526 255.845 209.76 255.388 211.516C254.075 211.173 253.564 210.117 253.301 209.198C252.486 206.235 251.56 203.299 251.643 200.157C251.67 199.019 251.436 197.867 251.284 196.728C251.187 195.987 250.896 195.37 249.998 195.137C248.036 196.261 246.653 197.812 246.529 199.828C247.206 203.326 247.828 206.468 248.436 209.596C248.298 209.692 248.146 209.788 248.008 209.884C248.464 210.227 248.92 210.57 249.404 210.94C250.205 210.734 250.979 210.528 251.753 210.323C251.795 210.405 251.823 210.487 251.864 210.57C251.283 211.036 250.703 211.502 250.136 211.955C250.357 213.807 250.551 215.439 250.786 217.387C250.546 218.512 250.044 219.404 249.279 220.063C249.086 219.843 248.851 219.637 248.699 219.39C248.533 219.13 248.45 218.814 248.34 218.554C247.731 218.307 247.206 218.087 246.515 217.799C246.432 217.415 246.349 216.962 246.239 216.4H248.215C248.865 215.138 248.492 214.054 248.146 213.011C247.635 212.545 247.165 212.133 246.667 211.681C246.944 211.201 247.165 210.816 247.358 210.487C246.792 207.84 246.225 205.219 245.672 202.599C244.746 202.27 243.861 201.955 243.032 201.653C243.461 198.635 244.718 196.152 246.474 193.751C245.769 193.038 245.23 192.475 244.497 191.721C243.986 192.544 243.627 193.12 243.198 193.82C242.963 193.888 242.618 193.998 242.148 194.135C241.816 193.614 241.526 193.134 241.166 192.558C241.788 191.913 242.355 191.309 242.963 190.678C243.143 190.171 243.322 189.636 243.544 189.018C243.24 188.044 243.157 186.919 242.189 186.192C240.351 186.206 239.204 186.961 238.623 188.785C238.14 190.294 237.103 191.611 236.592 193.12C235.403 196.632 234.394 200.212 233.274 203.752C232.362 206.619 231.436 209.486 230.427 212.325C228.603 217.387 226.861 222.491 224.788 227.457C223.378 230.818 221.443 233.959 219.757 237.197C219.412 237.869 219.08 238.555 218.721 239.309C219.785 240.187 221.015 240.42 222.162 240.653C225.825 241.408 229.501 242.08 233.288 241.943C236.592 241.82 239.826 241.298 243.032 240.53C248.505 239.213 253.73 237.155 258.982 235.235C262.741 233.863 266.487 232.477 270.274 231.202C273.895 229.981 276.825 227.827 279.133 224.905C283.846 218.951 288.559 212.998 292.388 206.427C296.797 198.868 300.833 191.117 303.542 182.79C304.827 178.839 305.739 174.765 306.762 170.732C307.992 165.876 308.628 160.937 309.208 155.971C309.872 150.415 310.134 144.832 309.83 139.262C309.595 134.928 308.932 130.606 308.434 126.285C307.84 121.127 306.637 116.079 305.269 111.085C303.486 104.528 301.206 98.1216 298.11 92.0308C296.451 88.7795 294.862 85.4597 292.899 82.3732C288.463 75.3769 283.998 68.3943 278.276 62.3172C271.946 55.5815 265.146 49.3672 257.462 44.2366C246.308 36.7876 234.339 30.9574 221.374 27.2398C215.528 25.5662 209.585 24.4687 203.6 23.4536C200.007 22.8363 196.399 22.8088 192.792 22.6305C188.397 22.411 184.002 22.6716 179.62 22.8088C173.816 22.9872 168.052 23.7417 162.413 25.1958C157.976 26.3481 153.512 27.3221 149.117 28.5979C146.394 29.3798 143.754 30.4773 141.156 31.6022C135.766 33.9343 130.431 36.3761 125.358 39.3392C118.6 43.2763 112.214 47.721 106.396 52.9751C99.9687 58.7779 94.1085 65.0883 88.9118 72.0022C84.6963 77.613 81.0751 83.6078 77.9377 89.877C75.1182 95.5152 72.7824 101.359 70.8336 107.327C69.0783 112.677 67.71 118.15 66.9084 123.747C66.4384 127.04 65.9409 130.332 65.4848 133.624C65.4019 134.255 65.4019 134.9 65.388 135.545C65.3742 140.168 65.3742 144.791 65.3327 149.414C65.3051 153.79 66.0514 158.084 66.7287 162.378C67.4612 166.987 68.3458 171.569 69.6311 176.055C72.3539 185.575 76.0166 194.725 80.9784 203.326C81.545 204.314 82.0011 205.37 82.5402 206.385C82.7889 206.852 83.1345 207.277 83.6597 208.032C83.8117 207.346 83.9499 207.058 83.9361 206.77C83.8117 203.244 84.0329 199.746 84.7101 196.275C84.7654 195.96 84.7377 195.644 84.7516 195.329L84.7239 195.37L84.7516 195.205Z" fill="#0C1837"/>
<path d="M8.04492 297.638V293.66C8.83273 293.55 9.50997 293.372 10.201 293.372C14.845 293.345 19.4889 293.345 24.1328 293.372C28.4451 293.4 32.7711 293.496 37.0833 293.496C41.4094 293.496 45.7354 293.386 50.0615 293.386C52.7704 293.386 55.4932 293.509 58.2022 293.509C63.2469 293.509 68.2778 293.427 73.3226 293.413C83.2186 293.4 93.1146 293.413 103.011 293.413C185.053 293.427 267.11 293.441 349.153 293.454C352.124 293.454 355.11 293.4 358.081 293.372C358.593 293.372 359.09 293.372 359.602 293.372C360.362 294.771 360.002 296.075 359.837 297.57C359.173 297.611 358.551 297.693 357.929 297.693C334.046 297.707 310.177 297.721 286.294 297.721C218.874 297.721 151.454 297.735 84.0202 297.735C59.2387 297.735 34.4573 297.721 9.67583 297.707C9.16444 297.707 8.66688 297.666 8.04492 297.638Z" fill="#0C1837"/>
<path d="M99.4022 255.606V263.878C98.255 263.617 97.2737 263.439 96.32 263.151C90.5289 261.395 84.7517 259.598 78.9606 257.814C75.3809 256.717 71.7597 255.757 68.028 255.455C65.3328 255.235 62.5962 255.359 59.9011 255.537C53.1425 256.004 46.8124 258.24 40.3855 260.174C34.1522 262.053 27.8497 263.672 21.5196 265.167C18.8382 265.798 16.0187 265.826 13.2683 266.114C12.3008 266.224 11.3471 266.347 10.3797 266.402C9.61948 266.443 8.85932 266.402 7.96094 266.402V258.061C9.41217 257.91 10.8081 257.718 12.2041 257.636C16.3366 257.362 20.4277 256.772 24.422 255.77C31.1806 254.083 37.8839 252.259 44.6148 250.475C51.6913 248.61 58.8507 247.444 66.2036 247.485C70.7646 247.512 75.215 248.253 79.5825 249.337C84.2126 250.475 88.7598 251.916 93.3208 253.315C95.394 253.96 97.3981 254.838 99.4022 255.592V255.606Z" fill="#0C1837"/>
<path d="M84.1851 234.329C84.2956 237.087 84.3924 239.542 84.503 242.272C83.1761 242.053 82.0981 241.957 81.0753 241.682C73.3216 239.584 65.402 239.103 57.441 239.638C53.654 239.885 49.8946 240.599 46.232 241.682C41.1043 243.205 35.9766 244.714 30.8628 246.292C26.3018 247.705 21.727 249.035 17.0001 249.749C14.0838 250.188 11.1261 250.325 8.05778 250.613C7.69843 249.063 7.89192 247.664 7.85046 246.278C7.809 244.879 7.85046 243.466 7.85046 241.943C8.63827 241.778 9.37079 241.532 10.1171 241.49C16.2676 241.147 22.2107 239.652 28.1262 238.116C33.1018 236.812 38.036 235.317 42.984 233.877C47.6832 232.505 52.3548 231.051 57.2337 230.365C57.7451 230.296 58.2703 230.255 58.7817 230.241C61.9467 230.228 65.1256 230.145 68.2907 230.241C73.3769 230.392 78.2281 231.723 82.9412 233.589C83.4111 233.767 83.8119 234.096 84.2127 234.343L84.1851 234.329Z" fill="#0C1837"/>
<path d="M92.547 166.287C92.6852 166.699 92.851 167.055 92.9201 167.426C92.9754 167.796 92.9201 168.18 92.9201 168.647C92.1876 168.921 91.4689 169.182 90.764 169.428C89.7965 169.209 89.1469 168.633 88.7599 167.755C88.7323 167.7 88.7047 167.631 88.6632 167.59C86.1616 164.888 87.129 162.089 88.6217 159.455C89.9347 157.137 91.9112 155.395 94.4543 154.38C95.2697 155.011 96.0161 155.587 96.721 156.122C97.7299 155.902 98.6145 155.724 99.5958 155.505C99.9551 155.71 100.397 155.957 100.854 156.204C101.075 157.699 101.296 159.14 101.517 160.649C102.07 160.951 102.623 161.266 103.148 161.554C104.198 163.804 104.088 165.052 102.678 166.246C102.194 166.054 101.669 165.834 101.13 165.629C99.2503 166.726 100.01 168.4 100.204 170.005C98.5039 170.224 98.5868 168.496 97.6608 168.125C97.4811 167.028 97.6193 166.136 98.0616 165.231C99.2226 162.816 99.3746 160.32 98.3933 157.576C97.0803 157.466 95.6982 157.356 94.0949 157.233C92.8695 157.608 91.8144 158.344 90.9299 159.442V165.313C91.4274 165.615 91.9112 165.917 92.5193 166.287H92.547Z" fill="#0C1837"/>
<path d="M84.7927 195.164C83.9363 195.795 84.0883 196.742 83.9916 197.606C83.7291 199.938 83.4805 202.27 83.2042 204.876C82.7208 204.204 82.4169 203.793 82.1406 203.422C83.2319 199.238 83.8258 195.013 84.033 190.733C84.1159 188.895 84.4336 187.057 84.6408 185.218C84.696 184.656 84.7237 184.093 84.8065 183.092C84.3922 183.737 84.1988 184.039 83.9363 184.464C83.37 183.737 83.6463 183.106 83.7844 182.543C84.1435 181.103 84.3645 179.717 84.0468 178.208C83.7015 176.59 84.1021 175.039 85.2348 173.722C86.3536 172.419 87.4172 171.075 88.5361 169.758C88.6742 169.593 88.9228 169.538 89.5444 169.223C88.3703 171.843 86.6437 173.599 85.4834 175.808C85.7044 176.096 85.9392 176.384 86.2155 176.754C85.9116 177.029 85.5663 177.344 85.0828 177.783C85.4558 178.263 85.7873 178.675 86.2984 179.306C86.7404 178.634 87.0304 178.195 87.3205 177.756C87.3481 177.783 87.4863 177.865 87.4863 177.907C87.3343 178.716 87.362 179.635 86.9752 180.307C85.9945 181.981 85.8287 183.819 85.6353 185.657C85.3038 188.84 85.0414 192.023 84.7513 195.205L84.7789 195.164H84.7927Z" fill="#0C1837"/>
<path d="M136.718 174.696C138.418 173.517 138.612 171.678 139.123 169.923C138.999 169.607 138.847 169.264 138.722 168.894C138.64 168.633 138.612 168.345 138.529 167.865C139.662 168.139 139.87 168.839 139.925 169.607C140.022 170.869 139.621 172.049 138.957 173.064C138.156 174.299 137.285 175.506 136.248 176.535C134.949 177.797 134.244 179.169 134.59 181.199C134.797 181.569 135.115 182.118 135.461 182.735C137.078 182.392 138.377 181.528 139.469 180.499C140.547 179.484 141.307 178.14 142.219 176.933C142.966 177.207 143.546 177.426 144.196 177.66C143.988 179.374 143.007 180.307 141.473 180.829C141.266 180.691 141.058 180.568 140.92 180.472C139.206 182.324 136.497 182.927 135.018 185.287C134.645 184.807 134.355 184.436 133.996 183.984C134.272 183.75 134.466 183.586 134.701 183.408C132.876 181.871 133.857 179.841 133.788 177.865C134.12 177.673 134.507 177.454 134.922 177.221C135.267 176.644 135.627 176.041 136.096 175.273C135.35 174.312 134.576 173.325 133.857 172.406C132.959 169.017 134.466 166.37 136.318 163.352C136.262 164.6 136.027 165.341 135.709 166.123C135.101 167.659 134.645 169.182 134.797 170.924C134.935 172.529 135.627 173.668 136.732 174.696H136.718Z" fill="#0C1837"/>
<path d="M118.697 228.787H120.798C120.756 229.624 120.729 230.364 120.673 231.105C120.466 234.425 120.286 237.745 120.894 241.051C121.06 241.984 121.088 242.958 121.088 243.918C121.088 244.234 120.798 244.563 120.563 245.07C120.245 244.7 119.927 244.508 119.872 244.261C119.25 241.6 118.655 238.925 118.103 236.236C117.978 235.632 117.978 234.987 118.033 234.37C118.213 232.546 118.462 230.735 118.697 228.787Z" fill="#0C1837"/>
<path d="M227.719 183.942C227.967 183.544 228.175 183.229 228.368 182.941C229.032 182.859 229.654 182.79 230.4 182.708C230.124 183.16 229.93 183.476 229.695 183.86C230.372 184.244 230.87 184.038 231.395 183.572C232.1 182.941 232.888 182.378 233.606 181.761C234.27 181.171 234.892 180.527 235.541 179.923C235.998 179.498 236.329 178.825 237.228 179.168C237.601 179.991 237.435 180.869 237.2 181.72C235.555 187.509 233.966 193.312 231.851 198.964C231.188 200.761 230.704 202.626 230.206 204.478C229.405 207.51 228.437 210.473 227.097 213.34C225.466 216.825 224.222 220.474 222.563 223.945C220.78 227.717 218.735 231.366 216.772 235.043C216.413 235.701 215.846 236.236 215.445 236.73C212.073 236.785 197.16 232.45 193.566 230.406C193.829 229.144 194.036 227.827 194.382 226.551C195.709 221.708 196.068 216.715 197.036 211.818C197.699 208.498 198.832 205.288 199.786 202.037C200.159 200.775 200.601 199.54 200.961 198.456C200.311 197.661 199.827 197.071 199.413 196.563C199.675 194.066 199.924 191.734 200.201 189.045C200.422 189.69 200.546 190.047 200.684 190.472C200.975 190.362 201.196 190.294 201.555 190.157C200.988 188.744 200.449 187.399 199.814 185.822C200.187 184.985 200.657 183.942 200.919 183.38C200.919 179.841 200.947 176.781 200.905 173.722C200.905 172.776 200.643 171.829 200.588 170.883C200.518 169.675 200.491 168.455 200.574 167.247C200.643 166.164 200.85 165.094 201.085 164.024C201.403 162.597 201.403 161.252 200.698 159.908C200.463 159.469 200.574 158.797 200.671 158.262C200.753 157.795 201.071 157.37 201.334 156.808C201.762 156.739 202.274 156.575 202.771 156.616C204.071 156.753 205.149 156.232 206.268 155.683C207.471 155.093 208.701 154.572 209.958 154.078C210.705 153.79 211.493 153.762 212.128 154.654C211.976 154.97 211.797 155.34 211.575 155.779C211.575 155.779 211.603 155.902 211.672 155.985C212.294 156.725 212.93 157.453 213.441 158.042C214.741 157.85 215.791 157.699 216.855 157.535C216.938 157.658 217.021 157.782 217.104 157.905C217.532 157.48 217.961 157.055 218.389 156.629L218.099 156.245C217.809 156.314 217.519 156.369 217.228 156.451C216.98 156.52 216.745 156.616 216.496 156.698C215.639 156.41 214.81 156.136 213.69 155.779C213.524 155.45 213.234 154.819 212.902 154.146C213.289 153.845 213.662 153.543 214.215 153.104C213.524 152.898 213.068 152.761 212.529 152.61C212.695 152.391 212.819 152.116 212.902 152.13C213.566 152.267 214.215 152.445 214.865 152.651C216.579 153.09 218.666 152.102 219.91 154.023C221.292 153.762 222.66 153.502 223.849 153.269C224.775 153.488 225.535 153.68 226.447 153.9C226.737 154.86 227.76 155.71 227.221 157.123C227.912 157.192 228.327 157.233 228.811 157.288C230.082 158.756 231.92 159.894 232.404 162.309C231.948 162.487 231.506 162.803 231.077 162.789C229.861 162.775 228.672 162.652 227.456 162.377C225.3 161.884 223.13 161.225 220.849 161.458C219.979 161.541 219.08 161.321 218.168 161.239C216.8 163.187 214.685 162.679 212.681 163.173C211.396 164.161 211.907 165.999 211.05 167.357C212.598 167.933 213.994 168.441 215.528 169.017C215.224 169.593 214.975 170.087 214.644 170.704C212.847 171.047 211.023 171.39 209.35 171.706C207.139 173.119 206.586 175.149 206.586 177.522C205.757 178.784 204.402 179.786 203.946 181.459C204.623 182.653 205.314 183.874 206.116 185.273C204.955 186.412 203.144 187.413 203.808 189.786C203.601 189.937 203.338 190.129 203.062 190.321C203.186 190.39 203.283 190.5 203.379 190.486C205.287 190.321 206.31 189.032 207.042 187.495C207.885 185.712 208.576 183.846 209.419 182.063C209.82 181.199 210.414 180.43 210.995 179.511C211.354 179.676 211.672 179.813 212.018 179.964C212.501 179.662 212.985 179.347 213.414 179.072C214.865 176.603 216.482 174.422 219.163 173.215C219.785 172.94 220.241 172.296 220.849 171.953C221.361 171.651 221.983 171.527 222.632 171.527C222.95 171.239 223.268 170.951 223.752 170.526C224.153 171.102 224.512 171.596 224.733 171.912C224.346 172.927 224.042 173.722 223.752 174.518C223.835 174.6 223.904 174.683 223.987 174.765C222.591 175.519 221.195 176.288 219.689 177.111C219.481 177.495 219.219 178.002 218.984 178.455C219.163 179.799 219.799 181.048 219.191 182.351C219.011 182.749 218.845 183.202 218.555 183.517C217.118 185.067 216.275 186.823 216.192 188.963C216.178 189.43 215.832 189.896 215.667 190.266C214.588 190.129 213.621 190.019 212.709 189.896C209.198 194.629 208.618 195.795 208.894 197.729C206.89 199.334 206.932 201.968 205.978 204.149C205.024 206.344 204.333 208.649 203.808 211.104C204.084 210.83 204.43 210.61 204.637 210.281C204.9 209.842 205.079 209.348 205.245 208.868C205.743 207.332 206.406 205.864 207.581 204.725C208.701 203.628 209.171 202.242 209.419 200.802C209.613 199.65 210.152 198.785 211.161 198.017C211.437 198.607 211.714 199.142 212.045 199.869C213.994 199.608 215.653 198.84 216.745 197.125C217.076 196.59 217.325 195.959 217.463 195.342C218.223 192.105 220.172 189.594 222.425 187.262C223.089 186.576 223.932 186.055 224.567 185.355C225.452 184.395 226.461 183.86 227.732 183.929L227.719 183.942Z" fill="white"/>
<path d="M314.38 43.8527C315.596 43.2765 316.688 42.7415 317.794 42.234C319.936 41.2874 322.147 40.6015 324.511 40.6701C326.57 40.725 328.629 40.8484 330.675 41.0816C332.596 41.2874 334.186 42.2888 335.637 43.5097C336.825 44.5112 337.364 45.7047 336.95 47.2685C336.839 47.6801 336.867 48.1328 336.825 48.7089C337.434 48.7089 337.931 48.7912 338.401 48.6952C339.216 48.5169 340.004 48.2288 340.806 47.9819C343.625 47.1039 346.155 47.8996 348.546 49.3263C350.923 50.7529 352.706 52.7832 354.102 55.129C354.655 56.0482 354.959 57.1182 355.318 57.9687C355.097 58.7232 354.931 59.2856 354.738 59.903C355.221 61.4531 356.424 62.5369 357.447 63.7715C358.635 65.1982 359.824 66.6386 360.847 68.1887C361.828 69.6703 361.939 71.3439 361.842 73.1547C361.648 77.0233 359.34 79.52 356.59 81.7286C354.323 83.5531 351.739 84.8975 348.836 85.4874C348.09 85.6383 347.26 85.748 346.542 85.5971C344.289 85.1033 341.967 84.7466 339.949 83.4845C339.742 83.361 339.451 83.3748 339.258 83.3336C337.682 84.4585 336.217 85.5971 334.655 86.6123C331.159 88.8895 327.386 89.7949 323.212 88.9581C321.76 88.67 320.268 88.6288 318.803 88.3956C317.904 88.2447 317.061 87.888 316.605 87.0101C317.407 83.9921 319.577 82.5928 322.603 82.8123C326.625 83.1004 330.62 82.9495 334.144 80.5763C337.724 78.1481 339.977 74.8558 340.737 70.5757C340.986 69.1627 340.93 67.7909 340.764 66.3779C340.281 62.2076 336.577 58.6409 332.181 58.8192C331.739 58.8329 331.297 58.8192 330.73 58.8192C330.454 58.2705 330.219 57.7629 329.942 57.2691C329.099 55.7601 328.353 54.1825 327.386 52.7695C325.686 50.2865 323.142 48.901 320.351 47.8996C318.042 47.0765 315.72 46.418 313.191 46.3768C310.966 46.3357 308.989 46.8844 307.054 47.8447C306.419 48.1602 305.741 48.4346 305.189 48.8598C302.549 50.9176 299.425 51.5897 296.232 52.2482C293.399 52.8381 290.524 53.4829 288.23 55.4308C287.263 56.2539 286.392 57.2142 285.604 58.2156C284.706 59.368 283.959 60.6437 283.088 61.947C280.711 59.6286 278.486 57.4337 276.233 55.2662C274.036 53.1536 271.396 51.5212 269.295 49.0519C270.926 47.7898 272.432 46.6924 274.353 46.5415C276.219 46.3906 278.099 46.3906 279.896 47.1313C280.656 47.4469 281.485 47.584 282.37 47.831C283.434 46.8158 284.484 45.8693 285.466 44.8541C288.341 41.8773 291.92 39.9842 295.915 39.3806C301.498 38.53 307.013 39.0102 311.878 42.426C312.652 42.9747 313.523 43.4137 314.338 43.8939L314.38 43.8527Z" fill="white"/>
<path d="M34.3877 88.656C34.7471 88.2582 35.0926 87.8741 35.4382 87.4899C36.0739 87.3391 36.7097 87.1882 37.4284 87.0235C37.8431 87.147 38.3268 87.2979 38.8244 87.4351C40.7317 87.9838 41.4228 87.3391 41.0496 85.2402C39.087 84.1976 36.917 84.033 34.7195 84.3485C33.4064 84.5406 32.5495 85.4459 32.0934 86.6669C30.5593 90.7823 31.6511 95.0212 35.4658 97.7374C36.1983 98.2587 37.0138 98.6565 37.8154 99.0681C40.0544 100.193 42.3349 100.55 44.6846 99.3287C46.1081 98.588 47.5456 97.8609 49.0106 97.2161C49.8122 96.8595 50.7244 96.4754 51.5675 96.5165C55.1058 96.6537 57.7594 95.0761 59.9985 92.5794C60.4684 92.0581 60.9245 91.4957 61.4773 91.0567C62.6383 90.1101 63.9928 90.1101 65.2367 90.9744C65.4993 91.1527 65.7481 91.3722 65.9692 91.5917C67.7384 93.3476 69.4937 95.1173 71.4563 97.079C70.6546 99.6168 69.6319 102.347 68.2497 104.939C64.7806 106.558 61.1595 107.409 57.4554 108.081C54.1106 108.685 50.7521 108.534 47.3935 108.451C46.1911 108.424 45.1545 107.971 44.2976 107.066C43.6894 106.421 42.9707 105.886 42.1967 105.214C41.4227 105.763 40.7317 106.215 40.0683 106.709C38.23 108.095 36.1845 108.726 33.8902 108.465C30.9324 108.136 27.9194 107.848 25.5145 105.859C24.2844 104.843 23.0682 103.732 22.1421 102.456C21.1332 101.071 19.9169 100.426 18.2446 100.385C14.2364 100.289 10.7258 98.7663 7.50547 96.5165C6.92497 96.1187 6.39977 95.6248 5.88838 95.131C3.82902 93.1281 3.30381 90.8783 4.68593 88.313C7.61603 82.8807 11.1266 80.4937 17.747 81.207C18.3551 81.2756 18.9771 81.3305 19.7787 81.4128C19.834 80.4937 19.8755 79.8215 19.9031 79.1356C20.0413 75.953 22.1007 73.6483 25.2934 73.031C28.5967 72.3862 31.8723 72.6194 35.065 73.4837C37.1935 74.0599 39.004 75.3219 40.5106 76.9818C41.5886 78.1616 42.5837 79.5197 44.6293 79.4237C45.0577 79.2042 45.652 78.9435 46.2187 78.628C47.6008 77.8872 49.1212 77.7638 50.5586 78.1753C53.1155 78.9161 55.548 79.945 57.4416 81.9341C57.5798 82.0713 57.718 82.2085 57.8424 82.3594C60.496 85.638 60.344 88.0387 57.9391 90.796C56.4326 92.5245 54.5806 93.8003 52.1895 94.0472C51.9407 94.0747 51.6505 94.1844 51.4293 94.1158C49.2317 93.4299 47.587 94.7057 45.8594 95.6385C45.0716 96.0638 44.3667 96.64 43.6203 97.1475C42.3073 98.0529 40.8975 97.9981 39.5845 97.2573C37.7048 96.201 36.2122 94.692 34.9821 92.9361C34.1113 91.6877 34.1528 90.2747 34.3463 88.6697L34.3877 88.656Z" fill="white"/>
<path d="M93.4857 61.9056C93.1126 62.4132 92.8223 62.8247 92.5183 63.2088C90.3207 65.9662 88.1231 68.7373 85.8979 71.4809C85.0548 72.5235 84.1426 73.4975 83.3962 74.348C81.1157 74.8693 79.3052 74.0736 77.4669 73.5386C76.4856 73.2643 75.5734 72.7155 74.6198 72.3314C74.0531 72.0982 73.445 71.9336 73.1409 71.8238C71.4547 72.6607 70.0864 73.3466 68.6905 74.0188C66.4238 75.1025 64.1018 75.1299 61.7108 74.4303C58.5319 73.4975 55.5465 72.1256 52.6717 70.5343C51.2066 69.725 49.7692 68.8333 48.47 67.8044C46.5765 66.2954 45.1668 64.3749 44.7107 61.9193C44.6415 61.5489 44.5033 61.1374 44.5863 60.7944C45.4985 57.0768 46.7977 53.757 51.1375 52.5772C54.1367 51.7541 57.0392 51.3289 60.0799 52.0971C60.5498 52.2206 61.0612 52.1931 61.6555 52.248C61.7246 51.7404 61.8628 51.37 61.8213 51.0134C61.462 48.2149 62.8164 46.1434 64.8482 44.5109C67.2392 42.5767 70.0035 41.6301 73.1271 42.2475C74.9515 42.6041 76.1816 43.8388 77.3011 45.1969C77.8678 45.8965 78.3791 46.6373 78.9458 47.3369C79.167 47.6113 79.5125 47.7896 79.858 48.0777C80.5076 46.9665 80.5076 45.8691 80.4523 44.799C80.3279 41.9594 81.7515 40.1486 84.3084 39.2157C88.0402 37.8576 91.7443 38.0085 95.3792 39.7233C98.7378 41.3009 100.617 44.1954 102.345 47.2271C102.857 48.1188 103.216 49.0791 103.713 50.204C103.354 50.8625 103.091 51.6718 102.566 52.2617C100.327 54.7447 98.0053 57.1591 95.6971 59.5735C95.5313 59.7518 95.2687 59.8342 94.9646 60.0125C93.3337 57.9136 91.2882 56.3635 88.828 55.4581C87.2662 54.8819 85.6353 54.4292 83.9906 54.1685C80.0239 53.5512 77.0247 55.4443 74.371 58.0919C72.8921 59.5735 72.4498 61.398 72.6433 63.4009C72.7677 64.7864 73.3482 65.3214 74.91 65.6369C75.0759 64.7727 75.3938 63.9085 75.4076 63.0442C75.4352 60.2869 77.2596 58.7916 79.3052 57.5021C81.3784 56.1988 83.6174 56.2674 85.8426 57.0494C88.676 58.0371 91.2329 59.4912 93.4719 61.933L93.4857 61.9056Z" fill="white"/>
<path d="M285.338 65.3073C285.725 64.2236 286.015 63.5103 286.236 62.7695C287.218 59.532 289.401 57.4331 292.511 56.1436C295.206 55.0187 298.04 54.4837 300.859 53.7978C302.269 53.4548 303.624 52.7826 304.937 52.1379C306.153 51.548 307.286 50.7798 308.461 50.1213C310.52 48.969 312.69 48.7769 315.012 49.1473C320.002 49.943 324.037 52.1379 326.553 56.6374C326.981 57.4057 327.203 58.2973 327.465 59.1479C327.686 59.8749 327.852 60.6157 328.073 61.4662C328.709 61.4662 329.29 61.4662 329.856 61.4662C330.824 61.4662 331.805 61.4251 332.759 61.5211C335.868 61.8092 337.886 63.9218 338.273 66.9947C338.978 72.4957 335.412 76.8855 331.777 78.9981C330.077 79.9858 328.115 80.2739 326.18 80.3287C323.471 80.3836 320.776 80.2601 317.707 80.2053C317.389 80.6168 316.85 81.3302 316.311 82.0298C315.454 83.141 314.639 84.307 313.699 85.3633C312.262 86.9958 310.313 87.8051 308.226 87.9698C305.406 88.1893 302.573 88.1207 299.615 88.1893C295.414 80.1092 290.189 72.7975 285.324 65.3211L285.338 65.3073Z" fill="white"/>
<path d="M178.832 248.665C177.104 248.665 175.611 248.72 174.133 248.665C168.839 248.459 163.739 249.598 158.694 250.983C152.737 252.63 146.822 254.427 140.892 256.141C140.036 256.388 139.137 256.539 138.184 256.745C134.783 254.824 131.328 252.863 127.527 250.709C128.246 250.489 128.564 250.352 128.909 250.284C135.737 248.665 142.413 246.497 149.116 244.44C154.714 242.711 160.325 241.01 165.978 239.501C169.53 238.555 173.193 238.184 176.897 238.678C178.624 238.911 180.352 239.007 182.094 239.172C182.329 239.199 182.55 239.35 182.923 239.501C181.748 242.656 180.781 245.825 178.832 248.679V248.665Z" fill="white"/>
<path d="M223.324 145.614C223.103 145.422 222.73 145.106 222.357 144.791C222.55 144.31 222.702 143.94 222.896 143.46C221.832 143.282 221.5 143.721 221.5 144.544C220.989 144.214 220.477 143.885 220.076 143.638C218.722 144.42 217.533 145.106 216.22 145.861C215.64 145.806 214.935 145.723 214.05 145.641C213.069 144.612 211.977 143.474 210.802 142.239C210.167 142.76 209.697 143.172 209.227 143.556C209.088 144.187 208.978 144.749 208.826 145.476C208.08 145.861 207.264 146.3 206.38 146.752C206.297 145.984 206.227 145.243 206.131 144.338C205.191 144.887 205.758 145.71 205.357 146.464C204.583 147.383 203.38 147.905 201.957 148.042C200.575 147.027 200.506 146.656 201.459 144.818C201.901 144.749 202.399 144.626 202.91 144.585C203.394 144.544 203.892 144.585 204.541 144.585C204.832 144.406 205.26 144.132 205.716 143.844C205.868 143.186 206.034 142.513 206.227 141.704C205.868 141.526 205.523 141.361 205.067 141.128C204.79 141.855 204.569 142.431 204.348 143.035C203.076 143.199 201.874 143.309 200.699 142.417C199.497 139.687 200.049 136.889 200.865 134.145C200.229 131.703 198.653 129.44 199.621 126.737H207.071C207.126 126.573 207.444 126.12 207.347 125.805C206.49 123.294 206.38 120.729 206.587 118.15C207.126 117.56 207.596 117.683 208.08 118.191C209.393 119.549 209.918 121.25 210.153 123.047C210.581 126.463 210.899 129.879 211.369 133.295C211.493 134.159 211.977 134.968 212.281 135.723C213.76 136.793 215.17 137.794 216.58 138.809V139.921C216.759 139.975 216.897 140.085 216.994 140.058C217.685 139.866 218.307 139.879 219.054 140.017C220.27 140.264 221.597 140.414 222.882 139.742C222.785 137.89 221.956 136.285 221.376 134.625C220.809 132.993 219.731 131.484 219.482 129.824C219.219 128.027 217.851 126.724 217.519 124.872C219.413 124.707 219.62 126.929 221.058 126.806C221.721 128.246 222.329 129.55 223.048 131.114C223.504 131.511 224.181 132.115 224.762 132.623C225.245 135.558 225.646 138.329 226.973 140.812C227.125 140.785 227.277 140.771 227.429 140.744C227.733 139.921 228.037 139.098 228.383 138.192C229.558 138.741 229.516 139.948 229.834 140.853C230.387 141.265 230.885 141.635 231.576 142.143C230.967 142.349 230.58 142.486 230.097 142.651C229.654 143.501 229.198 144.406 228.715 145.367C228.507 144.914 228.286 144.42 228.065 143.94C228.272 143.611 228.438 143.35 228.659 143.007C227.968 142.829 227.332 142.678 226.6 142.486C226.337 142.966 226.089 143.405 225.84 143.858C225.425 143.954 224.997 144.05 224.513 144.16C224.292 144.736 224.706 145.737 223.324 145.627V145.614Z" fill="white"/>
<path d="M209.82 255.538C210.677 252.794 213.607 248.034 214.99 246.991C216.952 247.471 218.956 247.924 220.933 248.445C223.642 249.172 226.42 249.172 229.184 249.241C233.745 249.351 238.182 248.761 242.535 247.403C247.456 245.88 252.39 244.385 257.324 242.889C257.794 242.752 258.278 242.656 259.038 242.464C258.623 243.383 258.057 243.74 257.504 244.11C252.846 247.238 248.009 250.064 242.95 252.506C238.831 254.495 234.657 256.361 230.511 258.281C227.816 259.53 225.079 259.639 222.232 258.844C218.141 257.705 214.036 256.649 209.807 255.524L209.82 255.538Z" fill="white"/>
<path d="M77.3862 84.8426C77.0821 85.652 76.7504 86.5299 76.3634 87.5725C73.6268 87.0924 71.6642 84.5957 68.6926 84.9935C68.0292 85.6931 67.1032 86.2144 66.8958 87.4628C68.2503 87.5588 69.5495 87.4628 70.7105 87.792C71.9129 88.135 72.991 88.9169 74.0829 89.4793C74.691 91.6194 73.8894 93.1147 72.452 94.6648C71.7195 93.924 70.9316 93.3341 70.4203 92.5659C69.2178 90.7551 67.5593 89.4382 65.8454 88.2035C65.0438 87.6274 63.9657 87.4491 62.9015 87.0375C62.708 86.5437 62.3625 86.0224 62.321 85.4736C62.0308 82.291 60.0682 80.151 57.6356 78.5185C54.3462 76.3099 50.6697 75.2673 46.6477 76.0081C46.1364 76.1041 45.625 76.1041 45.0998 76.1315C44.7128 76.1453 44.3396 76.1315 43.8835 76.1315C43.5794 75.7063 43.2892 75.3085 42.916 74.7872C43.303 74.1836 43.5656 73.4839 44.077 73.0587C44.7542 72.4825 45.5697 71.9887 46.399 71.7143C47.0071 71.5085 47.8226 71.5085 48.4307 71.7417C50.4762 72.4825 52.4941 73.333 54.4844 74.211C57.1795 75.4182 59.8194 76.7763 62.7495 77.4348C63.3438 77.572 63.9381 77.9698 64.3666 78.4088C66.1771 80.1784 68.4576 81.0289 70.8349 81.6737C72.2032 82.0441 73.5991 82.3322 74.9536 82.7437C75.9211 83.0455 76.9853 83.3062 77.3862 84.8152V84.8426Z" fill="white"/>
<path d="M209.393 245.701C207.887 248.335 206.477 250.805 205.095 253.205C202.69 253.054 189.076 249.652 187.445 248.829C188.565 245.194 190.03 242.135 191.384 240.722C197.41 241.97 203.34 243.74 209.393 245.688V245.701Z" fill="white"/>
<path d="M151.578 261.629C155.047 258.967 168.647 256.059 174.936 256.567C175.42 258.364 174.245 261.917 172.213 264.729C170.181 265.593 167.984 265.305 165.814 265.154C163.368 264.976 161.018 264.263 158.696 263.494C156.678 262.836 154.591 262.424 152.532 261.903C152.242 261.834 151.965 261.738 151.606 261.629H151.578Z" fill="white"/>
<path d="M185.356 257.239C189.779 257.705 193.898 259.118 198.321 260.613C196.538 262.548 194.907 264.317 193.262 266.087C189.268 265.744 185.453 265.415 181.293 265.058C182.717 262.273 183.67 259.653 185.356 257.252V257.239Z" fill="white"/>
<path d="M240.061 135.682C240.171 137.438 240.309 139.372 240.434 141.306C240.019 141.773 239.646 142.198 239.162 142.747C238.734 141.992 238.374 141.347 238.001 140.661C236.426 140.469 235.527 141.745 234.339 142.376C232.625 142.157 232.57 142.102 232.141 139.907C233.15 139.248 234.104 140.058 235.32 140.058C235.085 139.331 234.878 138.7 234.684 138.124C232.321 136.875 230.026 135.654 227.939 134.543C227.179 133.171 226.544 132.005 225.77 130.606C225.77 130.551 225.852 130.194 225.908 129.934C227.013 130.016 228.009 130.098 229.28 130.194C231.049 131.21 233.067 132.376 235.182 133.583H237.227C238.167 134.283 238.969 134.872 240.075 135.695L240.061 135.682Z" fill="white"/>
<path d="M112.519 165.807C115.021 167.083 116.652 168.77 117.066 171.143C116.79 173.215 114.634 173.558 114.316 175.3C114.053 176.768 113.487 178.181 113.017 179.704C111.414 179.621 110.101 178.881 108.884 178.126C108.221 176.987 107.986 175.89 108.097 174.71C108.207 173.503 108.262 172.296 108.318 171.089C108.456 168.427 110.308 167.124 112.505 165.807H112.519Z" fill="white"/>
<path d="M78.9477 82.2774C77.0957 81.0839 75.1607 80.2334 73.0461 79.863C72.2859 79.7258 71.5119 79.6572 70.7517 79.5475C69.5493 79.3691 68.333 79.2457 67.3379 78.2442C68.9135 76.6666 70.7103 75.6103 72.7835 75.0479C73.1981 74.9381 73.7095 74.9381 74.1241 75.0479C76.529 75.7749 78.9063 76.5569 81.2835 77.3251C81.3941 77.3663 81.4632 77.5034 81.6705 77.7366C81.0347 79.328 80.1363 80.8232 78.9339 82.2774H78.9477Z" fill="white"/>
<path d="M199.275 266.649C200.395 265.113 201.404 263.727 202.316 262.465C205.523 262.287 210.249 263.275 211.562 264.345C209.531 266.087 202.067 267.582 199.275 266.663V266.649Z" fill="white"/>
<path d="M75.1187 214.054C76.5553 216.523 78.0609 218.828 79.014 221.613C77.094 221.695 75.6851 220.927 74.1242 220.282C74.0275 219.747 73.9308 219.198 73.8341 218.649C74.732 217.689 76.0028 216.935 75.1187 215.151C74.6629 216.029 74.2761 216.756 73.8479 217.593C72.8258 215.81 73.1987 212.476 74.58 210.391C74.7734 211.694 74.953 212.943 75.1326 214.068L75.1187 214.054Z" fill="white"/>
<path d="M96.3186 224.013C95.5312 222.861 94.6472 221.873 94.9373 220.227C95.4898 219.39 96.1528 218.389 96.8159 217.374C97.0231 217.044 97.2164 216.701 97.4236 216.358C98.1281 217.003 98.5425 217.374 98.9983 217.785C99.758 220.227 98.7221 222.765 96.3324 224.013H96.3186Z" fill="white"/>
<path d="M249.295 190.006C248.798 190.623 248.273 191.254 247.734 191.885C247.692 191.927 247.623 191.94 247.36 192.036C246.973 191.707 246.504 191.309 246.158 191.007C245.647 188.991 245.564 187.18 246.434 185.438C246.587 185.122 247.07 184.958 247.471 184.683C248.577 186.412 249.6 187.948 249.295 190.006Z" fill="white"/>
<path d="M208.093 98.4508C207.015 98.0804 206.158 97.7786 205.108 97.4219C204.956 97.0652 204.735 96.5577 204.514 96.0638C204.693 95.9266 204.804 95.7757 204.887 95.7894C207.845 96.0775 210.816 96.105 213.774 95.7894C214.216 96.5988 214.064 97.1338 213.428 97.6825C211.604 97.5042 209.766 97.6277 208.08 98.4645L208.093 98.4508Z" fill="white"/>
<path d="M306.334 62.6875C305.989 64.3611 305.712 65.7192 305.381 67.2968C304.496 67.1322 303.777 67.0087 303.211 66.899C302.077 64.3474 303.294 60.9453 305.699 59.5598C307.647 58.4486 309.762 57.8999 312.015 58.3526C315.525 59.0659 318.414 60.7121 320.197 63.9222C321.082 65.5272 321.151 67.2282 320.612 68.9567C319.893 71.3025 318.538 73.1819 316.548 74.6635C314.724 76.0216 312.899 77.2562 310.619 77.7912C307.357 78.5457 304.344 78.1205 301.525 76.3783C300.861 75.9667 300.253 75.5003 299.645 75.0888C297.641 74.3891 295.457 75.5689 293.467 74.348C293.66 73.9776 293.854 73.5935 294.02 73.2779C295.858 72.6195 297.903 72.9762 299.424 71.4534C299.88 71.7552 300.419 71.9473 300.695 72.3314C301.994 74.1148 304.012 74.7046 305.892 75.5277C307.44 76.1999 308.974 76.0627 310.564 75.4043C313.286 74.2931 315.346 72.4137 317.239 70.2737C318.552 68.7921 318.4 65.7741 317.364 64.4846C315.512 62.1937 313.286 60.6161 310.108 60.7258C308.325 60.7807 306.984 61.3569 306.334 62.7012V62.6875Z" fill="#0C1837"/>
</svg>
